<?xml version="1.0" encoding="UTF-8" standalone="no"?>
<svg
   xmlns:dc="http://purl.org/dc/elements/1.1/"
   xmlns:cc="http://creativecommons.org/ns#"
   xmlns:rdf="http://www.w3.org/1999/02/22-rdf-syntax-ns#"
   xmlns:svg="http://www.w3.org/2000/svg"
   xmlns="http://www.w3.org/2000/svg"
   xmlns:sodipodi="http://sodipodi.sourceforge.net/DTD/sodipodi-0.dtd"
   xmlns:inkscape="http://www.inkscape.org/namespaces/inkscape"
   version="1.1"
   id="svg2"
   xml:space="preserve"
   width="163.33333"
   height="161.46667"
   viewBox="0 0 163.33333 161.46667"
   sodipodi:docname="figps-sec642.eps"><metadata
     id="metadata8"><rdf:RDF><cc:Work
         rdf:about=""><dc:format>image/svg+xml</dc:format><dc:type
           rdf:resource="http://purl.org/dc/dcmitype/StillImage" /></cc:Work></rdf:RDF></metadata><defs
     id="defs6" /><sodipodi:namedview
     pagecolor="#ffffff"
     bordercolor="#666666"
     borderopacity="1"
     objecttolerance="10"
     gridtolerance="10"
     guidetolerance="10"
     inkscape:pageopacity="0"
     inkscape:pageshadow="2"
     inkscape:window-width="640"
     inkscape:window-height="480"
     id="namedview4" /><g
     id="g10"
     inkscape:groupmode="layer"
     inkscape:label="ink_ext_XXXXXX"
     transform="matrix(1.3333333,0,0,-1.3333333,0,161.46667)"><g
       id="g12"
       transform="scale(0.1)"><path
         d="M 56.9688,58.5898 C 27.9883,88.6484 9.98828,130.051 9.98828,175.578 v 682.57 c 0,45.543 18.00002,86.938 46.98052,116.997 28.9804,30.065 68.9372,48.605 112.7732,48.605 v 4.95 -4.95 c 43.828,0 83.789,-18.54 112.77,-48.605 28.976,-30.059 46.976,-71.454 46.976,-116.997 h 5.043 -5.043 v -2.738 l -117.269,31.985 -2.61,-9.625 119.879,-32.704 V 644.398 H 208.887 v -5.039 -5.043 H 329.488 V 394.559 H 210.957 v -5.039 -4.95 H 329.488 V 175.578 c 0,-12.699 -1.402,-25.066 -4.05,-36.976 h -114.75 v -4.954 -5.039 H 322.891 C 315.195,101.859 301.117,77.8906 282.512,58.5898 253.531,28.5195 213.57,9.98828 169.742,9.98828 125.906,9.98828 85.9492,28.5195 56.9688,58.5898 M 172.797,112.141 c 3.961,0 7.562,1.711 10.086,4.308 2.515,2.621 4.047,6.313 4.047,10.18 0,7.922 -6.211,14.492 -14.133,14.492 v -4.949 4.949 c -8.008,0 -14.129,-6.57 -14.129,-14.492 0,-3.867 1.531,-7.559 4.051,-10.18 2.519,-2.597 6.121,-4.308 10.078,-4.308 m -55.348,12.871 c -0.902,-2.973 -1.351,-5.313 -1.351,-7.024 0,-1.347 0.363,-2.429 0.898,-3.148 l 2.164,-1.168 c 1.621,0 3.238,0.898 5.039,2.609 1.801,1.617 3.512,4.047 5.309,7.02 l -1.528,0.988 c -1.625,-2.969 -2.789,-4.769 -3.417,-5.488 l -0.907,-0.539 -0.535,0.359 -0.273,0.809 c 0,0.992 0.453,2.968 1.261,5.941 l 15.75,55.801 -15.39,-2.621 v -1.61 c 1.621,0.18 2.699,0.27 3.422,0.27 0.988,0 1.711,-0.27 2.425,-0.813 l 0.629,-1.628 c 0,-0.809 -0.175,-1.879 -0.535,-3.141 -0.273,-1 -0.629,-2.34 -1.078,-3.957 l -4.32,-15.402 c -1.262,1.539 -2.524,2.71 -3.782,3.332 -1.257,0.726 -2.699,1.089 -4.5,1.089 -3.332,0 -6.929,-1.351 -10.89,-3.972 -5.039,-3.231 -9.0939,-7.457 -12.1486,-12.68 -3.0625,-5.23 -4.5937,-10.168 -4.5937,-14.758 0,-3.511 0.9023,-6.39 2.7929,-8.461 1.8008,-2.07 3.9571,-3.148 6.4766,-3.148 2.5238,0 5.0388,0.898 7.7418,2.777 3.871,2.621 8.188,7.391 12.957,14.231 l -1.617,-5.668 m 55.348,243.082 c 3.961,0 7.562,1.711 10.086,4.328 2.515,2.605 4.047,6.211 4.047,10.164 0,7.922 -6.211,14.406 -14.133,14.492 v -5.039 5.039 c -8.008,-0.086 -14.129,-6.57 -14.129,-14.492 0,-3.953 1.531,-7.559 4.051,-10.164 2.519,-2.617 6.121,-4.328 10.078,-4.328 m -68.758,40.234 c -4.3202,-2.879 -7.7421,-6.57 -10.3476,-11.16 -2.5234,-4.504 -3.7851,-9.18 -3.7851,-13.859 0,-4.227 1.1718,-7.469 3.5117,-9.989 2.4297,-2.433 5.6679,-3.691 9.902,-3.691 3.512,0 6.84,0.898 10.078,2.695 3.149,1.805 6.297,4.59 9.36,8.465 l -1.348,1.262 c -2.793,-3.156 -5.312,-5.313 -7.648,-6.485 -2.254,-1.171 -4.504,-1.796 -6.844,-1.796 -2.969,0 -5.398,0.898 -7.1094,2.793 -1.707,1.796 -2.6094,4.316 -2.6094,7.468 0,4.68 1.2578,9.446 3.6918,14.219 1.98,3.867 4.5,6.926 7.379,9.094 2.878,2.058 5.851,3.144 8.726,3.144 1.621,0 2.883,-0.273 3.785,-0.898 l 0.805,-1.621 -0.27,-0.989 -1.257,-1.445 -1.348,-1.797 -0.359,-1.621 c 0,-0.898 0.359,-1.621 0.988,-2.246 0.539,-0.633 1.348,-0.906 2.246,-0.906 1.262,0 2.254,0.449 3.062,1.531 1.172,1.348 1.707,2.969 1.707,4.863 0,2.071 -0.808,3.782 -2.425,5.129 -1.621,1.446 -4.051,2.157 -7.289,2.157 -4.141,0 -8.282,-1.434 -12.602,-4.317 m 68.758,215.731 c 7.922,0 14.133,6.57 14.133,14.492 0,7.824 -6.117,14.398 -14.133,14.484 v -5.039 5.039 c -8.008,-0.086 -14.129,-6.66 -14.129,-14.484 0,-7.922 6.121,-14.492 14.129,-14.492 m -67.317,63.898 0.629,-1.801 c 0,-0.629 -0.539,-2.875 -1.531,-6.566 L 90.9922,630.809 c 4.5898,-3.508 8.9961,-5.219 13.4058,-5.219 3.872,0 7.829,1.348 11.879,4.137 4.051,2.699 7.379,6.57 9.993,11.429 2.699,4.949 4.046,9.903 4.046,14.856 0,3.867 -1.078,6.926 -3.054,9.176 -1.985,2.253 -4.504,3.332 -7.653,3.332 -2.25,0 -4.32,-0.543 -6.39,-1.715 -2.071,-1.078 -4.41,-3.239 -7.199,-6.297 l 8.906,32.222 -15.4768,-2.613 V 688.5 c 1.3518,0.176 2.3358,0.27 2.9688,0.27 1.258,0 2.344,-0.27 3.062,-0.813 m 67.317,192.063 c 7.922,0 14.133,6.566 14.133,14.398 0,3.961 -1.532,7.559 -4.047,10.258 -2.524,2.613 -6.125,4.234 -10.086,4.234 v -4.949 4.949 c -3.957,0 -7.559,-1.621 -10.078,-4.234 -2.52,-2.699 -4.051,-6.297 -4.051,-10.258 0,-7.832 6.121,-14.398 14.129,-14.398 m -56.156,11.335 c -0.629,-2.425 -0.903,-4.496 -0.903,-5.937 0,-1.258 0.274,-2.25 0.809,-2.879 0.633,-0.723 1.441,-0.992 2.519,-0.992 1.536,0 3.243,0.723 5.043,2.25 1.891,1.527 3.602,3.781 5.399,6.93 l -1.528,1.078 c -1.347,-2.785 -2.433,-4.59 -3.238,-5.395 l -1.086,-0.722 -0.629,0.363 -0.355,1.164 0.266,1.086 0.902,4.226 8.64,31.321 -6.839,-1.078 -1.442,-4.774 c -0.722,2.07 -1.711,3.602 -2.969,4.504 -1.351,0.898 -2.972,1.348 -4.953,1.348 -3.242,0 -6.746,-1.262 -10.437,-3.782 -4.77,-3.238 -8.7306,-7.558 -11.7931,-12.957 -3.0547,-5.312 -4.5899,-10.441 -4.5899,-15.211 0,-3.242 0.9024,-5.761 2.6133,-7.652 1.711,-1.797 3.7774,-2.699 6.211,-2.699 2.4257,0 4.9457,0.723 7.5587,2.25 3.598,2.07 7.558,5.762 11.789,10.98 l -0.988,-3.422 M 98.1016,120.961 c -1.0782,1.168 -1.7149,2.961 -1.7149,5.309 0,5.851 2.25,11.968 6.7543,18.449 4.496,6.39 8.816,9.621 12.957,9.621 1.89,0 3.422,-0.621 4.683,-1.789 1.168,-1.262 1.797,-2.801 1.797,-4.77 0,-5.222 -2.519,-11.351 -7.473,-18.269 -4.945,-6.934 -9.175,-10.442 -12.777,-10.442 -1.621,0 -3.0585,0.629 -4.2264,1.891 m -0.543,509.309 5.6684,20.519 c 1.171,4.137 2.972,7.379 5.496,9.813 2.515,2.336 5.125,3.597 7.738,3.597 1.797,0 3.234,-0.812 4.59,-2.433 1.258,-1.621 1.887,-3.868 1.887,-6.661 0,-4.769 -0.989,-9.539 -2.965,-14.304 -1.985,-4.684 -4.325,-8.102 -7.024,-10.082 -2.699,-1.981 -5.312,-2.973 -7.832,-2.973 -2.156,0 -4.679,0.899 -7.5584,2.524 m 0.9922,258.386 c -1.1719,1.262 -1.8047,2.879 -1.8047,4.949 0,4.055 1.3555,8.645 3.9609,13.684 2.52,5.129 5.492,8.91 8.731,11.52 2.339,1.8 4.589,2.699 6.66,2.699 1.89,0 3.332,-0.543 4.324,-1.707 1.078,-1.172 1.617,-3.063 1.617,-5.582 0.18,-6.84 -2.43,-13.5 -7.648,-19.981 -4.325,-4.859 -8.282,-7.379 -11.973,-7.379 -1.441,0 -2.7891,0.629 -3.8672,1.797"
         style="fill:#ffffff;fill-opacity:1;fill-rule:nonzero;stroke:none"
         id="path14" /><path
         d="m 0,175.578 v 682.57 c 0,96.481 76.2305,175.492 169.742,175.592 v -9.99 c -43.836,0 -83.7928,-18.54 -112.7732,-48.605 C 27.9883,945.086 9.98828,903.691 9.98828,858.148 V 175.578 C 9.98828,130.051 27.9883,88.6484 56.9688,58.5898 85.9492,28.5195 125.906,9.98828 169.742,9.98828 c 43.828,0 83.789,18.53122 112.77,48.60152 18.605,19.3008 32.683,43.2692 40.379,70.0192 h 10.375 C 313.301,54.7305 247.496,0.078125 169.742,0 V 5.03906 0 C 76.2305,0.0898438 0,79.1094 0,175.578 m 325.438,-36.976 c 2.648,11.91 4.05,24.277 4.05,36.976 V 384.57 h 9.989 V 175.578 c 0,-12.668 -1.317,-25.039 -3.813,-36.976 h -10.226 m 4.05,255.957 v 239.757 h 9.989 V 394.559 h -9.989 m 0,249.839 v 200.668 l 9.989,-2.722 V 644.398 h -9.989 m 0,211.012 v 2.738 h 9.989 v -5.464 l -9.989,2.726 m 0,2.738 c 0,45.543 -18,86.938 -46.976,116.997 -28.981,30.065 -68.942,48.605 -112.77,48.605 v 9.99 c 93.504,-0.1 169.735,-79.111 169.735,-175.592 h -9.989 M 169.742,1028.7 v 5.04 -5.04"
         style="fill:#231f20;fill-opacity:1;fill-rule:nonzero;stroke:none"
         id="path16" /><path
         d="m 169.918,891.27 c -0.809,0.808 -1.262,1.886 -1.262,3.148 0,1.352 0.453,2.434 1.262,3.242 0.809,0.805 1.801,1.262 2.879,1.262 v 5.039 -5.039 c 1.082,0 2.07,-0.457 2.883,-1.262 0.808,-0.808 1.258,-1.89 1.258,-3.242 0,-1.262 -0.45,-2.34 -1.258,-3.148 -0.813,-0.813 -1.801,-1.262 -2.883,-1.262 -1.078,0 -2.07,0.449 -2.879,1.262"
         style="fill:#231f20;fill-opacity:1;fill-rule:nonzero;stroke:none"
         id="path18" /><path
         d="m 172.797,880.02 v 0 m -14.129,14.398 c 0,3.961 1.531,7.559 4.051,10.258 2.519,2.613 6.121,4.234 10.078,4.234 v -9.988 c -1.078,0 -2.07,-0.457 -2.879,-1.262 -0.809,-0.808 -1.262,-1.89 -1.262,-3.242 0,-1.262 0.453,-2.34 1.262,-3.148 0.809,-0.813 1.801,-1.262 2.879,-1.262 1.082,0 2.07,0.449 2.883,1.262 0.808,0.808 1.258,1.886 1.258,3.148 0,1.352 -0.45,2.434 -1.258,3.242 -0.813,0.805 -1.801,1.262 -2.883,1.262 v 9.988 c 3.961,0 7.562,-1.621 10.086,-4.234 2.515,-2.699 4.047,-6.297 4.047,-10.258 0,-7.832 -6.211,-14.398 -14.133,-14.398 v 4.949 -4.949 c -8.008,0 -14.129,6.566 -14.129,14.398 m 14.129,9.543 v 4.949 -4.949"
         style="fill:#231f20;fill-opacity:1;fill-rule:nonzero;stroke:none"
         id="path20" /><path
         d="m 169.918,635.309 c -0.809,0.808 -1.262,1.886 -1.262,3.242 0,1.258 0.453,2.426 1.262,3.234 0.809,0.813 1.801,1.172 2.879,1.172 v 5.039 -5.039 c 1.082,0 2.07,-0.359 2.883,-1.172 0.808,-0.808 1.258,-1.976 1.258,-3.234 0,-1.356 -0.45,-2.434 -1.258,-3.242 -0.813,-0.813 -1.801,-1.262 -2.883,-1.262 -1.078,0 -2.07,0.449 -2.879,1.262"
         style="fill:#231f20;fill-opacity:1;fill-rule:nonzero;stroke:none"
         id="path22" /><path
         d="m 172.797,624.059 v 0 m -14.129,14.492 c 0,7.824 6.121,14.398 14.129,14.484 v -10.078 c -1.078,0 -2.07,-0.359 -2.879,-1.172 -0.809,-0.808 -1.262,-1.976 -1.262,-3.234 0,-1.356 0.453,-2.434 1.262,-3.242 0.809,-0.813 1.801,-1.262 2.879,-1.262 1.082,0 2.07,0.449 2.883,1.262 0.808,0.808 1.258,1.886 1.258,3.242 0,1.258 -0.45,2.426 -1.258,3.234 -0.813,0.813 -1.801,1.172 -2.883,1.172 v 10.078 c 8.016,-0.086 14.133,-6.66 14.133,-14.484 0,-7.922 -6.211,-14.492 -14.133,-14.492 v 4.949 -4.949 c -8.008,0 -14.129,6.57 -14.129,14.492 m 14.129,9.445 v 5.039 -5.039"
         style="fill:#231f20;fill-opacity:1;fill-rule:nonzero;stroke:none"
         id="path24" /><path
         d="m 169.918,379.344 c -0.809,0.812 -1.262,1.984 -1.262,3.242 0,1.262 0.453,2.434 1.262,3.242 0.809,0.813 1.801,1.262 2.879,1.262 v 4.949 -4.949 c 1.082,0 2.07,-0.449 2.883,-1.262 0.808,-0.808 1.258,-1.98 1.258,-3.242 0,-1.258 -0.45,-2.43 -1.258,-3.242 -0.813,-0.809 -1.801,-1.258 -2.883,-1.258 -1.078,0 -2.07,0.449 -2.879,1.258"
         style="fill:#231f20;fill-opacity:1;fill-rule:nonzero;stroke:none"
         id="path26" /><path
         d="m 162.719,372.422 c -2.52,2.605 -4.051,6.211 -4.051,10.164 0,7.922 6.121,14.406 14.129,14.492 v -9.988 c -1.078,0 -2.07,-0.449 -2.879,-1.262 -0.809,-0.808 -1.262,-1.98 -1.262,-3.242 0,-1.258 0.453,-2.43 1.262,-3.242 0.809,-0.809 1.801,-1.258 2.879,-1.258 1.082,0 2.07,0.449 2.883,1.258 0.808,0.812 1.258,1.984 1.258,3.242 0,1.262 -0.45,2.434 -1.258,3.242 -0.813,0.813 -1.801,1.262 -2.883,1.262 v 9.988 c 7.922,-0.086 14.133,-6.57 14.133,-14.492 0,-3.953 -1.532,-7.559 -4.047,-10.164 -2.524,-2.617 -6.125,-4.328 -10.086,-4.328 v 5.039 -5.039 c -3.957,0 -7.559,1.711 -10.078,4.328 m 10.078,19.617 v 5.039 -5.039"
         style="fill:#231f20;fill-opacity:1;fill-rule:nonzero;stroke:none"
         id="path28" /><path
         d="m 169.918,123.391 c -0.809,0.808 -1.262,1.98 -1.262,3.238 0,1.351 0.453,2.43 1.262,3.242 0.809,0.809 1.801,1.258 2.879,1.258 v 5.043 -5.043 c 1.082,0 2.07,-0.449 2.883,-1.258 0.808,-0.812 1.258,-1.891 1.258,-3.242 0,-1.258 -0.45,-2.43 -1.258,-3.238 -0.813,-0.813 -1.801,-1.172 -2.883,-1.262 -1.078,0.09 -2.07,0.449 -2.879,1.262"
         style="fill:#231f20;fill-opacity:1;fill-rule:nonzero;stroke:none"
         id="path30" /><path
         d="m 162.719,116.449 c -2.52,2.621 -4.051,6.313 -4.051,10.18 0,7.922 6.121,14.492 14.129,14.492 v -9.992 c -1.078,0 -2.07,-0.449 -2.879,-1.258 -0.809,-0.812 -1.262,-1.891 -1.262,-3.242 0,-1.258 0.453,-2.43 1.262,-3.238 0.809,-0.813 1.801,-1.172 2.879,-1.262 1.082,0.09 2.07,0.449 2.883,1.262 0.808,0.808 1.258,1.98 1.258,3.238 0,1.351 -0.45,2.43 -1.258,3.242 -0.813,0.809 -1.801,1.258 -2.883,1.258 v 9.992 c 7.922,0 14.133,-6.57 14.133,-14.492 0,-3.867 -1.532,-7.559 -4.047,-10.18 -2.524,-2.597 -6.125,-4.308 -10.086,-4.308 v 5.039 -5.039 c -3.957,0 -7.559,1.711 -10.078,4.308 m 10.078,19.723 v 4.949 -4.949"
         style="fill:#231f20;fill-opacity:1;fill-rule:nonzero;stroke:none"
         id="path32" /><path
         d="m 942.48,61.7383 c -17.871,18.543 -31.574,41.3907 -39.445,66.8707 h 33.508 v -18.988 c 4.316,2.16 21.953,9.449 37.078,14.129 16.192,5.129 30.959,8.539 40.409,9.801 -9.45,1.258 -24.217,4.687 -40.409,9.73 -15.125,4.77 -24.93,9.18 -37.078,14.219 v -18.898 h -36.262 c -3.125,12.859 -4.785,26.308 -4.785,40.136 V 384.57 h 41.313 v -18.996 c 4.324,2.16 21.961,9.453 37.078,14.133 16.203,5.039 30.873,8.555 40.413,9.813 -9.54,1.171 -24.21,4.679 -40.413,9.718 -15.117,4.774 -24.934,9.09 -37.078,14.129 v -18.808 h -41.313 v 239.757 h 39.238 v -18.898 c 4.414,2.16 22.051,9.359 37.168,14.133 16.203,5.039 30.878,8.551 40.408,9.715 -9.53,1.261 -24.205,4.769 -40.408,9.808 -15.117,4.774 -25.015,9.094 -37.168,14.133 v -18.809 h -39.238 v 46.282 l 25.234,-6.887 -4.167,-19.145 c 4.492,1.079 22.402,3.872 37.441,4.77 16.016,0.992 30.41,0.812 39.504,-0.359 -8.547,3.601 -21.418,10.796 -35.278,19.976 -12.957,8.551 -21.152,15.395 -31.226,23.492 l -4.145,-18.972 -27.363,7.465 v 160.277 c 0,45.543 18,86.937 46.984,117.004 28.973,30.059 68.85,48.599 112.77,48.599 v 4.95 -4.95 c 43.83,0 83.79,-18.54 112.77,-48.599 C 1197,948.234 1215,906.84 1215,861.297 h 5.04 -5.04 V 178.738 c 0,-45.539 -18,-86.9372 -46.98,-116.9997 -28.98,-29.9688 -68.94,-48.6094 -112.77,-48.6094 -43.92,0 -83.797,18.6406 -112.77,48.6094 m 163.08,88.4607 c 2.25,-4.758 3.78,-17 4.5,-36.527 h 1.62 c 6.03,6.476 9.27,10.078 9.9,10.797 4.68,5.672 8.1,10.172 10.26,13.5 2.07,3.422 3.51,6.301 4.32,8.64 0.45,1.442 0.63,2.973 0.63,4.5 0,1.61 -0.45,2.871 -1.44,3.961 -0.9,1.078 -1.98,1.621 -3.24,1.621 -0.99,0 -1.9,-0.363 -2.71,-1.171 -0.71,-0.809 -1.07,-1.622 -1.07,-2.61 0,-1.351 0.63,-2.519 2.07,-3.519 1.35,-1.071 2.07,-1.969 2.07,-2.782 0,-0.808 -0.18,-1.711 -0.54,-2.699 -0.36,-1.18 -1.08,-2.609 -2.07,-4.23 -0.63,-0.989 -2.88,-4.231 -6.75,-9.719 -0.72,-1.082 -2.97,-3.691 -6.66,-7.922 -0.45,7.731 -0.72,12.871 -0.99,15.211 -0.54,4.859 -1.17,8.91 -1.98,12.422 -0.54,2.43 -1.26,4.668 -2.25,7.019 l -12.78,-2.882 0.27,-1.618 c 1.35,0.27 2.33,0.45 3.15,0.45 1.7,0 2.97,-0.813 3.69,-2.442 m -37.17,-30.59 c 2.52,2.692 4.05,6.301 4.05,10.161 0,3.968 -1.53,7.57 -4.05,10.179 -2.52,2.699 -6.12,4.321 -10.08,4.321 v -4.95 4.95 c -8.01,0 -14.13,-6.579 -14.13,-14.5 0,-7.821 6.12,-14.391 14.13,-14.391 3.96,-0.09 7.56,1.621 10.08,4.23 m 55.98,257.852 c -0.36,-1.711 -0.63,-3.156 -0.63,-4.141 0,-1.086 0.36,-1.984 0.9,-2.707 0.63,-0.625 1.43,-0.984 2.43,-0.984 1.35,0 2.7,0.535 4.14,1.621 2.16,1.707 4.32,4.402 6.39,8.191 l -1.35,1.075 c -1.89,-3.328 -3.06,-5.215 -3.52,-5.664 l -1.26,-0.723 -0.62,0.449 -0.27,1.074 c 0,1.086 0.63,3.692 1.89,7.922 l 8.18,27.899 h -6.74 l -1.08,-3.778 c -2.07,-6.75 -3.96,-11.601 -5.76,-14.668 -1.8,-3.058 -4.05,-6.386 -6.75,-9.902 -2.7,-3.508 -4.86,-5.754 -6.57,-6.75 -1.62,-1.074 -2.97,-1.523 -3.96,-1.523 l -1.63,0.449 -0.53,1.437 c 0,1.082 0.72,3.602 2.07,7.645 l 4.86,14.765 c 1.44,4.231 2.07,7.2 2.07,8.821 0,1.347 -0.36,2.519 -1.08,3.328 -0.81,0.898 -1.71,1.348 -2.97,1.348 -1.71,0 -3.69,-0.711 -5.76,-2.071 -2.7,-1.621 -5.31,-4.316 -7.74,-7.82 l 1.35,-1.086 c 2.7,2.969 4.41,4.68 5.13,5.129 l 2.25,0.723 0.99,-0.364 0.45,-0.984 c 0,-0.813 -0.54,-2.969 -1.71,-6.399 l -4.68,-14.304 c -1.53,-4.766 -2.34,-8.281 -2.34,-10.617 0,-1.532 0.45,-2.793 1.44,-3.692 0.99,-0.996 2.25,-1.531 3.6,-1.531 2.97,0 6.21,1.621 9.81,4.766 3.51,3.242 7.92,9.179 13.23,17.734 -2.34,-7.649 -3.79,-12.512 -4.23,-14.668 m -66.06,-6.211 c 3.96,0 7.56,1.707 10.08,4.316 2.52,2.618 4.05,6.211 4.05,10.176 0,3.953 -1.53,7.559 -4.05,10.164 -2.52,2.61 -6.12,4.317 -10.08,4.317 v -5.039 5.039 c -8.01,0 -14.13,-6.563 -14.13,-14.481 0,-7.922 6.12,-14.406 14.13,-14.492 m 53.28,299.246 c -2.25,-1.891 -5.04,-3.234 -8.37,-4.141 l -0.45,-1.886 h 6.84 l -7.92,-26.731 c -0.9,-3.422 -1.44,-5.941 -1.44,-7.652 0,-1.348 0.36,-2.426 1.17,-3.234 0.81,-0.813 1.8,-1.262 3.06,-1.262 1.62,0 3.15,0.539 4.77,1.617 2.25,1.621 4.68,4.5 7.29,8.551 l -1.44,1.172 c -2.16,-3.153 -3.6,-5.039 -4.23,-5.672 -1.08,-0.988 -1.98,-1.531 -2.61,-1.531 l -0.72,0.359 -0.36,1.172 c 0,0.898 0.45,2.883 1.53,6.031 l 8.1,27.18 h 6.21 l 0.72,2.972 h -6.03 l 3.6,12.508 h -1.9 c -2.96,-4.5 -5.48,-7.648 -7.82,-9.453 m -53.28,-43.289 c 3.96,0 7.56,1.621 10.08,4.32 2.52,2.614 4.05,6.211 4.05,10.172 0,3.867 -1.53,7.559 -4.05,10.168 -2.52,2.61 -6.12,4.324 -10.08,4.324 v -5.046 5.046 c -8.01,-0.093 -14.13,-6.66 -14.13,-14.492 0,-7.922 6.12,-14.492 14.13,-14.492 m 44.19,255.871 c 2.88,-1.082 5.31,-1.531 7.47,-1.531 3.96,0 7.2,1.172 9.81,3.691 2.51,2.52 3.87,5.309 3.87,8.551 0,1.981 -0.63,4.047 -1.71,6.297 -1.17,2.164 -3.69,5.492 -7.56,9.902 -1.44,1.621 -2.43,2.969 -2.88,3.867 -0.36,0.907 -0.63,1.891 -0.63,2.883 0,1.532 0.54,2.793 1.62,3.871 1.17,0.989 2.61,1.528 4.5,1.528 2.25,0 4.14,-0.899 5.76,-2.785 1.53,-1.891 2.34,-4.954 2.52,-9.094 h 1.61 l 2.71,14.219 h -1.71 c -0.81,-1.442 -1.89,-2.161 -3.15,-2.161 -0.54,0 -1.53,0.27 -3.06,0.903 -1.53,0.629 -2.52,0.902 -2.97,0.988 -0.72,0.184 -1.62,0.27 -2.61,0.27 -3.24,0 -5.94,-0.989 -8.1,-3.055 -2.07,-2.07 -3.15,-4.684 -3.15,-7.652 0,-1.622 0.45,-3.243 1.17,-4.86 0.72,-1.621 2.43,-4.14 5.13,-7.383 2.7,-3.238 4.41,-5.847 5.22,-7.652 0.53,-1.078 0.81,-2.246 0.81,-3.418 0,-1.98 -0.72,-3.598 -2.07,-4.855 -1.26,-1.356 -3.15,-1.985 -5.4,-1.985 -2.97,0 -5.32,0.992 -7.02,2.883 -1.71,1.977 -2.61,5.305 -2.79,9.988 h -1.62 l -2.7,-14.941 h 1.62 c 0.72,1.351 1.71,2.07 3.06,2.07 0.54,0 1.26,-0.179 2.25,-0.539 m -44.19,0.09 c 3.96,0 7.56,1.621 10.08,4.227 2.52,2.703 4.05,6.304 4.05,10.171 0,3.961 -1.53,7.559 -4.05,10.258 -2.52,2.614 -6.12,4.235 -10.08,4.235 v -4.95 4.95 c -8.01,0 -14.13,-6.571 -14.13,-14.493 0,-7.828 6.12,-14.398 14.13,-14.398"
         style="fill:#ffffff;fill-opacity:1;fill-rule:nonzero;stroke:none"
         id="path34" /><path
         d="m 892.598,128.609 h 10.437 c 7.871,-25.48 21.574,-48.3277 39.445,-66.8707 28.973,-29.9688 68.85,-48.6094 112.77,-48.6094 43.83,0 83.79,18.6406 112.77,48.6094 C 1197,91.8008 1215,133.199 1215,178.738 v 682.559 h 9.99 V 178.738 C 1224.99,82.25 1148.76,3.23828 1055.25,3.14063 V 8.19141 3.14063 C 978.523,3.21875 913.535,56.3203 892.598,128.609 m -2.586,9.993 c -2.942,12.898 -4.504,26.339 -4.504,40.136 V 384.57 h 9.988 V 178.738 c 0,-13.828 1.66,-27.277 4.785,-40.136 h -10.269 m -4.504,255.957 v 239.757 h 9.988 V 394.559 h -9.988 m 0,249.839 v 49.004 l 9.988,-2.722 v -46.282 h -9.988 m 0,59.344 v 157.555 c 0,96.48 76.14,175.503 169.742,175.593 v -9.99 c -43.92,0 -83.797,-18.54 -112.77,-48.599 C 913.496,948.234 895.496,906.84 895.496,861.297 V 701.02 l -9.988,2.722 M 1215,861.297 c 0,45.543 -18,86.937 -46.98,117.004 -28.98,30.059 -68.94,48.599 -112.77,48.599 v 9.99 c 93.51,-0.09 169.74,-79.113 169.74,-175.593 H 1215 m -159.75,170.553 v 5.04 -5.04"
         style="fill:#231f20;fill-opacity:1;fill-rule:nonzero;stroke:none"
         id="path36" /><path
         d="m 1055.43,894.418 c -0.81,0.812 -1.26,1.891 -1.26,3.148 0,1.356 0.45,2.434 1.26,3.243 0.81,0.812 1.8,1.261 2.88,1.261 v 5.039 -5.039 c 1.07,0 2.07,-0.449 2.88,-1.261 0.71,-0.809 1.26,-1.887 1.26,-3.243 0,-1.257 -0.55,-2.336 -1.26,-3.148 -0.81,-0.813 -1.81,-1.262 -2.88,-1.262 -1.08,0 -2.07,0.449 -2.88,1.262"
         style="fill:#231f20;fill-opacity:1;fill-rule:nonzero;stroke:none"
         id="path38" /><path
         d="m 1058.31,883.168 v 0 m -14.13,14.398 c 0,7.922 6.12,14.493 14.13,14.493 v -9.989 c -1.08,0 -2.07,-0.449 -2.88,-1.261 -0.81,-0.809 -1.26,-1.887 -1.26,-3.243 0,-1.257 0.45,-2.336 1.26,-3.148 0.81,-0.813 1.8,-1.262 2.88,-1.262 1.07,0 2.07,0.449 2.88,1.262 0.71,0.812 1.26,1.891 1.26,3.148 0,1.356 -0.55,2.434 -1.26,3.243 -0.81,0.812 -1.81,1.261 -2.88,1.261 v 9.989 c 3.96,0 7.56,-1.621 10.08,-4.235 2.52,-2.699 4.05,-6.297 4.05,-10.258 0,-3.867 -1.53,-7.468 -4.05,-10.171 -2.52,-2.606 -6.12,-4.227 -10.08,-4.227 v 4.949 -4.949 c -8.01,0 -14.13,6.57 -14.13,14.398 m 14.13,9.543 v 4.95 -4.95"
         style="fill:#231f20;fill-opacity:1;fill-rule:nonzero;stroke:none"
         id="path40" /><path
         d="m 1055.43,638.457 c -0.81,0.809 -1.26,1.891 -1.26,3.242 0,1.258 0.45,2.43 1.26,3.242 0.81,0.805 1.8,1.164 2.88,1.258 v 4.946 -4.946 c 1.07,-0.094 2.07,-0.453 2.88,-1.258 0.71,-0.812 1.26,-1.984 1.26,-3.242 0,-1.351 -0.55,-2.433 -1.26,-3.242 -0.81,-0.812 -1.81,-1.262 -2.88,-1.262 -1.08,0 -2.07,0.45 -2.88,1.262"
         style="fill:#231f20;fill-opacity:1;fill-rule:nonzero;stroke:none"
         id="path42" /><path
         d="m 1044.18,641.699 c 0,7.832 6.12,14.399 14.13,14.492 v -9.992 c -1.08,-0.094 -2.07,-0.453 -2.88,-1.258 -0.81,-0.812 -1.26,-1.984 -1.26,-3.242 0,-1.351 0.45,-2.433 1.26,-3.242 0.81,-0.812 1.8,-1.262 2.88,-1.262 1.07,0 2.07,0.45 2.88,1.262 0.71,0.809 1.26,1.891 1.26,3.242 0,1.258 -0.55,2.43 -1.26,3.242 -0.81,0.805 -1.81,1.164 -2.88,1.258 v 9.992 c 3.96,0 7.56,-1.714 10.08,-4.324 2.52,-2.609 4.05,-6.301 4.05,-10.168 0,-3.961 -1.53,-7.558 -4.05,-10.172 -2.52,-2.699 -6.12,-4.32 -10.08,-4.32 v 4.949 -4.949 c -8.01,0 -14.13,6.57 -14.13,14.492 m 14.13,9.446 v 5.046 -5.046"
         style="fill:#231f20;fill-opacity:1;fill-rule:nonzero;stroke:none"
         id="path44" /><path
         d="m 1055.43,382.5 c -0.81,0.809 -1.26,1.98 -1.26,3.242 0,1.348 0.45,2.422 1.26,3.231 0.81,0.812 1.8,1.261 2.88,1.261 v 4.95 -4.95 c 1.07,0 2.07,-0.449 2.88,-1.261 0.71,-0.809 1.26,-1.883 1.26,-3.231 0,-1.262 -0.55,-2.433 -1.26,-3.242 -0.81,-0.812 -1.81,-1.262 -2.88,-1.262 -1.08,0 -2.07,0.45 -2.88,1.262"
         style="fill:#231f20;fill-opacity:1;fill-rule:nonzero;stroke:none"
         id="path46" /><path
         d="m 1044.18,385.742 c 0,7.918 6.12,14.481 14.13,14.481 v -9.989 c -1.08,0 -2.07,-0.449 -2.88,-1.261 -0.81,-0.809 -1.26,-1.883 -1.26,-3.231 0,-1.262 0.45,-2.433 1.26,-3.242 0.81,-0.812 1.8,-1.262 2.88,-1.262 1.07,0 2.07,0.45 2.88,1.262 0.71,0.809 1.26,1.98 1.26,3.242 0,1.348 -0.55,2.422 -1.26,3.231 -0.81,0.812 -1.81,1.261 -2.88,1.261 v 9.989 c 3.96,0 7.56,-1.707 10.08,-4.317 2.52,-2.605 4.05,-6.211 4.05,-10.164 0,-3.965 -1.53,-7.558 -4.05,-10.176 -2.52,-2.609 -6.12,-4.316 -10.08,-4.316 v 5.039 -5.039 c -8.01,0.086 -14.13,6.57 -14.13,14.492 m 14.13,9.442 v 5.039 -5.039"
         style="fill:#231f20;fill-opacity:1;fill-rule:nonzero;stroke:none"
         id="path48" /><path
         d="m 1055.43,126.629 c -0.81,0.812 -1.26,1.883 -1.26,3.141 0,1.359 0.45,2.441 1.26,3.25 0.81,0.808 1.8,1.261 2.88,1.261 v 5.039 -5.039 c 1.07,0 2.07,-0.453 2.88,-1.261 0.71,-0.809 1.26,-1.891 1.26,-3.25 0,-1.258 -0.55,-2.418 -1.26,-3.231 -0.81,-0.719 -1.81,-1.168 -2.88,-1.168 -1.08,0 -2.07,0.449 -2.88,1.258"
         style="fill:#231f20;fill-opacity:1;fill-rule:nonzero;stroke:none"
         id="path50" /><path
         d="m 1058.31,115.379 v 4.949 -4.949 c -8.01,0 -14.13,6.57 -14.13,14.391 0,7.921 6.12,14.5 14.13,14.5 v -9.989 c -1.08,0 -2.07,-0.453 -2.88,-1.261 -0.81,-0.809 -1.26,-1.891 -1.26,-3.25 0,-1.258 0.45,-2.329 1.26,-3.141 0.81,-0.809 1.8,-1.258 2.88,-1.258 1.07,0 2.07,0.449 2.88,1.168 0.71,0.813 1.26,1.973 1.26,3.231 0,1.359 -0.55,2.441 -1.26,3.25 -0.81,0.808 -1.81,1.261 -2.88,1.261 v 9.989 c 3.96,0 7.56,-1.622 10.08,-4.321 2.52,-2.609 4.05,-6.211 4.05,-10.179 0,-3.86 -1.53,-7.469 -4.05,-10.161 -2.46,-2.55 -5.94,-4.238 -9.79,-4.238 -0.09,0 -0.19,0.008 -0.29,0.008 m 0,23.941 v 4.95 -4.95"
         style="fill:#231f20;fill-opacity:1;fill-rule:nonzero;stroke:none"
         id="path52" /><path
         d="m 116.547,882.539 c -0.535,0.629 -0.809,1.621 -0.809,2.879 0,1.441 0.274,3.512 0.903,5.937 l 0.988,3.422 c -4.231,-5.218 -8.191,-8.91 -11.789,-10.98 -2.613,-1.527 -5.133,-2.25 -7.5587,-2.25 -2.4336,0 -4.5,0.902 -6.211,2.699 -1.7109,1.891 -2.6133,4.41 -2.6133,7.652 0,4.77 1.5352,9.899 4.5899,15.211 3.0625,5.399 7.0231,9.719 11.7931,12.957 3.691,2.52 7.195,3.782 10.437,3.782 1.981,0 3.602,-0.45 4.953,-1.348 1.258,-0.902 2.247,-2.434 2.969,-4.504 l 1.442,4.774 6.839,1.078 -8.64,-31.321 -0.902,-4.226 -0.266,-1.086 0.355,-1.164 0.629,-0.363 1.086,0.722 c 0.805,0.805 1.891,2.61 3.238,5.395 l 1.528,-1.078 c -1.797,-3.149 -3.508,-5.403 -5.399,-6.93 -1.8,-1.527 -3.507,-2.25 -5.043,-2.25 -1.078,0 -1.886,0.269 -2.519,0.992 m -7.109,36.27 c -3.239,-2.61 -6.211,-6.391 -8.731,-11.52 -2.6054,-5.039 -3.9609,-9.629 -3.9609,-13.684 0,-2.07 0.6328,-3.687 1.8047,-4.949 1.0781,-1.168 2.4262,-1.797 3.8672,-1.797 3.691,0 7.648,2.52 11.973,7.379 5.218,6.481 7.828,13.141 7.648,19.981 0,2.519 -0.539,4.41 -1.617,5.582 -0.992,1.164 -2.434,1.707 -4.324,1.707 -2.071,0 -4.321,-0.899 -6.66,-2.699"
         style="fill:#231f20;fill-opacity:1;fill-rule:nonzero;stroke:none"
         id="path54" /><path
         d="m 90.9922,630.809 13.5858,48.781 c 0.992,3.691 1.531,5.937 1.531,6.566 l -0.629,1.801 c -0.718,0.543 -1.804,0.813 -3.062,0.813 -0.633,0 -1.617,-0.094 -2.9688,-0.27 v 1.617 l 15.4768,2.613 -8.906,-32.222 c 2.789,3.058 5.128,5.219 7.199,6.297 2.07,1.172 4.14,1.715 6.39,1.715 3.149,0 5.668,-1.079 7.653,-3.332 1.976,-2.25 3.054,-5.309 3.054,-9.176 0,-4.953 -1.347,-9.907 -4.046,-14.856 -2.614,-4.859 -5.942,-8.73 -9.993,-11.429 -4.05,-2.789 -8.007,-4.137 -11.879,-4.137 -4.4097,0 -8.816,1.711 -13.4058,5.219 m 17.7308,29.793 c -2.524,-2.434 -4.325,-5.676 -5.496,-9.813 L 97.5586,630.27 c 2.8794,-1.625 5.4024,-2.524 7.5584,-2.524 2.52,0 5.133,0.992 7.832,2.973 2.699,1.98 5.039,5.398 7.024,10.082 1.976,4.765 2.965,9.535 2.965,14.304 0,2.793 -0.629,5.04 -1.887,6.661 -1.356,1.621 -2.793,2.433 -4.59,2.433 -2.613,0 -5.223,-1.261 -7.738,-3.597"
         style="fill:#231f20;fill-opacity:1;fill-rule:nonzero;stroke:none"
         id="path56" /><path
         d="m 93.418,373.32 c -2.3399,2.52 -3.5117,5.762 -3.5117,9.989 0,4.679 1.2617,9.355 3.7851,13.859 2.6055,4.59 6.0274,8.281 10.3476,11.16 4.32,2.883 8.461,4.317 12.602,4.317 3.238,0 5.668,-0.711 7.289,-2.157 1.617,-1.347 2.425,-3.058 2.425,-5.129 0,-1.894 -0.535,-3.515 -1.707,-4.863 -0.808,-1.082 -1.8,-1.531 -3.062,-1.531 -0.898,0 -1.707,0.273 -2.246,0.906 -0.629,0.625 -0.988,1.348 -0.988,2.246 l 0.359,1.621 1.348,1.797 1.257,1.445 0.27,0.989 -0.805,1.621 c -0.902,0.625 -2.164,0.898 -3.785,0.898 -2.875,0 -5.848,-1.086 -8.726,-3.144 -2.879,-2.168 -5.399,-5.227 -7.379,-9.094 -2.434,-4.773 -3.6918,-9.539 -3.6918,-14.219 0,-3.152 0.9024,-5.672 2.6094,-7.468 1.7114,-1.895 4.1404,-2.793 7.1094,-2.793 2.34,0 4.59,0.625 6.844,1.796 2.336,1.172 4.855,3.329 7.648,6.485 l 1.348,-1.262 c -3.063,-3.875 -6.211,-6.66 -9.36,-8.465 -3.238,-1.797 -6.566,-2.695 -10.078,-2.695 -4.2341,0 -7.4723,1.258 -9.902,3.691"
         style="fill:#231f20;fill-opacity:1;fill-rule:nonzero;stroke:none"
         id="path58" /><path
         d="m 116.996,114.84 c -0.535,0.719 -0.898,1.801 -0.898,3.148 0,1.711 0.449,4.051 1.351,7.024 l 1.617,5.668 c -4.769,-6.84 -9.086,-11.61 -12.957,-14.231 -2.703,-1.879 -5.218,-2.777 -7.7418,-2.777 -2.5195,0 -4.6758,1.078 -6.4766,3.148 -1.8906,2.071 -2.7929,4.95 -2.7929,8.461 0,4.59 1.5312,9.528 4.5937,14.758 3.0547,5.223 7.1096,9.449 12.1486,12.68 3.961,2.621 7.558,3.972 10.89,3.972 1.801,0 3.243,-0.363 4.5,-1.089 1.258,-0.622 2.52,-1.793 3.782,-3.332 l 4.32,15.402 c 0.449,1.617 0.805,2.957 1.078,3.957 0.36,1.262 0.535,2.332 0.535,3.141 l -0.629,1.628 c -0.714,0.543 -1.437,0.813 -2.425,0.813 -0.723,0 -1.801,-0.09 -3.422,-0.27 v 1.61 l 15.39,2.621 -15.75,-55.801 c -0.808,-2.973 -1.261,-4.949 -1.261,-5.941 l 0.273,-0.809 0.535,-0.359 0.907,0.539 c 0.628,0.719 1.792,2.519 3.417,5.488 l 1.528,-0.988 c -1.797,-2.973 -3.508,-5.403 -5.309,-7.02 -1.801,-1.711 -3.418,-2.609 -5.039,-2.609 l -2.164,1.168 m -13.855,29.879 c -4.5043,-6.481 -6.7543,-12.598 -6.7543,-18.449 0,-2.348 0.6367,-4.141 1.7149,-5.309 1.1679,-1.262 2.6054,-1.891 4.2264,-1.891 3.602,0 7.832,3.508 12.777,10.442 4.954,6.918 7.473,13.047 7.473,18.269 0,1.969 -0.629,3.508 -1.797,4.77 -1.261,1.168 -2.793,1.789 -4.683,1.789 -4.141,0 -8.461,-3.231 -12.957,-9.621"
         style="fill:#231f20;fill-opacity:1;fill-rule:nonzero;stroke:none"
         id="path60" /><path
         d="m 1102.5,883.078 c -0.99,0.36 -1.71,0.539 -2.25,0.539 -1.35,0 -2.34,-0.719 -3.06,-2.07 h -1.62 l 2.7,14.941 h 1.62 c 0.18,-4.683 1.08,-8.011 2.79,-9.988 1.7,-1.891 4.05,-2.883 7.02,-2.883 2.25,0 4.14,0.629 5.4,1.985 1.35,1.257 2.07,2.875 2.07,4.855 0,1.172 -0.28,2.34 -0.81,3.418 -0.81,1.805 -2.52,4.414 -5.22,7.652 -2.7,3.243 -4.41,5.762 -5.13,7.383 -0.72,1.617 -1.17,3.238 -1.17,4.86 0,2.968 1.08,5.582 3.15,7.652 2.16,2.066 4.86,3.055 8.1,3.055 0.99,0 1.89,-0.086 2.61,-0.27 0.45,-0.086 1.44,-0.359 2.97,-0.988 1.53,-0.633 2.52,-0.903 3.06,-0.903 1.26,0 2.34,0.719 3.15,2.161 h 1.71 l -2.71,-14.219 h -1.61 c -0.18,4.14 -0.99,7.203 -2.52,9.094 -1.62,1.886 -3.51,2.785 -5.76,2.785 -1.89,0 -3.33,-0.539 -4.5,-1.528 -1.08,-1.078 -1.62,-2.339 -1.62,-3.871 0,-0.992 0.27,-1.976 0.63,-2.883 0.45,-0.898 1.44,-2.246 2.88,-3.867 3.87,-4.41 6.39,-7.738 7.56,-9.902 1.08,-2.25 1.71,-4.316 1.71,-6.297 0,-3.242 -1.36,-6.031 -3.87,-8.551 -2.61,-2.519 -5.85,-3.691 -9.81,-3.691 -2.16,0 -4.59,0.449 -7.47,1.531"
         style="fill:#231f20;fill-opacity:1;fill-rule:nonzero;stroke:none"
         id="path62" /><path
         d="m 1101.42,626.852 c -0.81,0.808 -1.17,1.886 -1.17,3.234 0,1.711 0.54,4.23 1.44,7.652 l 7.92,26.731 h -6.84 l 0.45,1.886 c 3.33,0.907 6.12,2.25 8.37,4.141 2.34,1.805 4.86,4.953 7.82,9.453 h 1.9 l -3.6,-12.508 h 6.03 l -0.72,-2.972 h -6.21 l -8.1,-27.18 c -1.08,-3.148 -1.53,-5.133 -1.53,-6.031 l 0.36,-1.172 0.72,-0.359 c 0.63,0 1.53,0.543 2.61,1.531 0.63,0.633 2.07,2.519 4.23,5.672 l 1.44,-1.172 c -2.61,-4.051 -5.04,-6.93 -7.29,-8.551 -1.62,-1.078 -3.15,-1.617 -4.77,-1.617 -1.26,0 -2.25,0.449 -3.06,1.262"
         style="fill:#231f20;fill-opacity:1;fill-rule:nonzero;stroke:none"
         id="path64" /><path
         d="m 1124.64,370.613 c -0.54,0.723 -0.9,1.621 -0.9,2.707 0,0.985 0.27,2.43 0.63,4.141 0.44,2.156 1.89,7.019 4.23,14.668 -5.31,-8.555 -9.72,-14.492 -13.23,-17.734 -3.6,-3.145 -6.84,-4.766 -9.81,-4.766 -1.35,0 -2.61,0.535 -3.6,1.531 -0.99,0.899 -1.44,2.16 -1.44,3.692 0,2.336 0.81,5.851 2.34,10.617 l 4.68,14.304 c 1.17,3.43 1.71,5.586 1.71,6.399 l -0.45,0.984 -0.99,0.364 -2.25,-0.723 c -0.72,-0.449 -2.43,-2.16 -5.13,-5.129 l -1.35,1.086 c 2.43,3.504 5.04,6.199 7.74,7.82 2.07,1.36 4.05,2.071 5.76,2.071 1.26,0 2.16,-0.45 2.97,-1.348 0.72,-0.809 1.08,-1.981 1.08,-3.328 0,-1.621 -0.63,-4.59 -2.07,-8.821 l -4.86,-14.765 c -1.35,-4.043 -2.07,-6.563 -2.07,-7.645 l 0.53,-1.437 1.63,-0.449 c 0.99,0 2.34,0.449 3.96,1.523 1.71,0.996 3.87,3.242 6.57,6.75 2.7,3.516 4.95,6.844 6.75,9.902 1.8,3.067 3.69,7.918 5.76,14.668 l 1.08,3.778 h 6.74 l -8.18,-27.899 c -1.26,-4.23 -1.89,-6.836 -1.89,-7.922 l 0.27,-1.074 0.62,-0.449 1.26,0.723 c 0.46,0.449 1.63,2.336 3.52,5.664 l 1.35,-1.075 c -2.07,-3.789 -4.23,-6.484 -6.39,-8.191 -1.44,-1.086 -2.79,-1.621 -4.14,-1.621 -1,0 -1.8,0.359 -2.43,0.984"
         style="fill:#231f20;fill-opacity:1;fill-rule:nonzero;stroke:none"
         id="path66" /><path
         d="m 1110.06,113.672 c -0.72,19.527 -2.25,31.769 -4.5,36.527 -0.72,1.629 -1.99,2.442 -3.69,2.442 -0.82,0 -1.8,-0.18 -3.15,-0.45 l -0.27,1.618 12.78,2.882 c 0.99,-2.351 1.71,-4.589 2.25,-7.019 0.81,-3.512 1.44,-7.563 1.98,-12.422 0.27,-2.34 0.54,-7.48 0.99,-15.211 3.69,4.231 5.94,6.84 6.66,7.922 3.87,5.488 6.12,8.73 6.75,9.719 0.99,1.621 1.71,3.05 2.07,4.23 0.36,0.988 0.54,1.891 0.54,2.699 0,0.813 -0.72,1.711 -2.07,2.782 -1.44,1 -2.07,2.168 -2.07,3.519 0,0.988 0.36,1.801 1.07,2.61 0.81,0.808 1.72,1.171 2.71,1.171 1.26,0 2.34,-0.543 3.24,-1.621 0.99,-1.09 1.44,-2.351 1.44,-3.961 0,-1.527 -0.18,-3.058 -0.63,-4.5 -0.81,-2.339 -2.25,-5.218 -4.32,-8.64 -2.16,-3.328 -5.58,-7.828 -10.26,-13.5 -0.63,-0.719 -3.87,-4.321 -9.9,-10.797 h -1.62"
         style="fill:#231f20;fill-opacity:1;fill-rule:nonzero;stroke:none"
         id="path68" /><path
         d="m 188.516,1138.75 -36.098,-50.94 c -3.332,-4.72 -5.824,-7.81 -7.492,-9.26 -1.664,-1.44 -3.586,-2.21 -5.781,-2.31 l -0.508,-1.63 h 17.847 l 0.512,1.63 c -1.793,0.07 -3.07,0.45 -3.844,1.17 -0.769,0.72 -1.156,1.57 -1.156,2.56 l 0.531,2.4 c 0.36,0.86 1.227,2.26 2.618,4.22 l 6.148,8.64 h 17.301 l -0.739,-7.94 c -0.304,-3.58 -0.628,-5.84 -0.968,-6.8 -0.465,-1.37 -1.129,-2.35 -1.992,-2.94 -1.235,-0.87 -2.805,-1.31 -4.719,-1.31 h -1.067 l -0.461,-1.63 h 23.829 l 0.511,1.63 c -2.285,0 -3.91,0.22 -4.883,0.65 -0.972,0.44 -1.753,1.11 -2.339,2.01 -0.43,0.65 -0.645,1.6 -0.645,2.84 0,0.78 0.121,2.4 0.367,4.85 l 4.61,52.16 z m -9.61,-40.16 h -15.222 l 17.515,24.64 -2.293,-24.64"
         style="fill:#231f20;fill-opacity:1;fill-rule:nonzero;stroke:none"
         id="path70" /><path
         d="m 1105.01,1138.75 c -1.24,-1.46 -2.12,-2.36 -2.67,-2.67 l -1.87,-0.46 c -0.74,0 -1.92,0.31 -3.52,0.93 -3.64,1.46 -6.94,2.2 -9.9,2.2 -6.3,0 -12.53,-1.86 -18.7,-5.55 -6.17,-3.7 -11.04,-8.79 -14.58,-15.25 -3.55,-6.48 -5.32,-13.14 -5.32,-19.98 0,-4.47 0.99,-8.64 2.99,-12.52 1.98,-3.89 4.88,-6.9 8.7,-9.04 3.81,-2.14 8.19,-3.21 13.16,-3.21 5.56,0 10.33,1.27 14.33,3.82 3.99,2.56 7.62,6.54 10.9,11.96 h -2.1 c -2.81,-3.99 -5.84,-6.93 -9.11,-8.85 -3.27,-1.91 -6.99,-2.87 -11.15,-2.87 -5.51,0 -10,1.81 -13.46,5.42 -3.47,3.62 -5.21,8.46 -5.21,14.53 0,5.93 1.21,11.8 3.63,17.58 2.88,7.03 6.9,12.46 12.01,16.3 4.04,3.02 8.74,4.53 14.12,4.53 1.98,0 3.8,-0.3 5.46,-0.91 1.66,-0.59 3.03,-1.42 4.11,-2.48 1.06,-1.07 1.87,-2.32 2.41,-3.77 0.55,-1.45 0.9,-3.1 1.05,-4.94 l 0.19,-5.09 h 1.64 l 4.53,20.32 h -1.64"
         style="fill:#231f20;fill-opacity:1;fill-rule:nonzero;stroke:none"
         id="path72" /><path
         d="m 231.566,1095.93 h 720.77"
         style="fill:#ffffff;fill-opacity:1;fill-rule:nonzero;stroke:none"
         id="path74" /><path
         d="m 231.566,1095.93 h 720.77"
         style="fill:none;stroke:#231f20;stroke-width:10;stroke-linecap:butt;stroke-linejoin:miter;stroke-miterlimit:4;stroke-dasharray:none;stroke-opacity:1"
         id="path76" /><path
         d="m 973.945,1105.64 c -15.136,4.74 -24.968,9.1 -37.109,14.15 v -47.82 c 4.348,2.14 21.973,9.41 37.109,14.14 16.192,5.07 30.875,8.53 40.405,9.77 -9.53,1.23 -24.213,4.7 -40.405,9.76"
         style="fill:#231f20;fill-opacity:1;fill-rule:nonzero;stroke:none"
         id="path78" /><path
         d="m 210.957,384.57 h 725.852 v 9.98828 H 210.957 Z"
         style="fill:#231f20;fill-opacity:1;fill-rule:nonzero;stroke:none"
         id="path80" /><path
         d="m 936.809,413.367 c 12.144,-5.039 21.961,-9.355 37.078,-14.129 16.203,-5.039 30.873,-8.547 40.413,-9.718 -9.54,-1.258 -24.21,-4.774 -40.413,-9.813 -15.117,-4.68 -32.754,-11.973 -37.078,-14.133 v 47.793"
         style="fill:#231f20;fill-opacity:1;fill-rule:nonzero;stroke:none"
         id="path82" /><path
         d="m 208.887,634.316 h 725.848 v 10.082 H 208.887 Z"
         style="fill:#231f20;fill-opacity:1;fill-rule:nonzero;stroke:none"
         id="path84" /><path
         d="m 934.734,663.207 c 12.153,-5.039 22.051,-9.359 37.168,-14.133 16.203,-5.039 30.878,-8.547 40.408,-9.808 -9.53,-1.164 -24.205,-4.676 -40.408,-9.715 -15.117,-4.774 -32.754,-11.973 -37.168,-14.133 v 47.789"
         style="fill:#231f20;fill-opacity:1;fill-rule:nonzero;stroke:none"
         id="path86" /><path
         d="m 210.688,128.609 h 725.855 v 9.99219 H 210.688 Z"
         style="fill:#231f20;fill-opacity:1;fill-rule:nonzero;stroke:none"
         id="path88" /><path
         d="m 936.543,157.5 c 12.148,-5.039 21.953,-9.449 37.078,-14.219 16.192,-5.043 30.959,-8.472 40.409,-9.73 -9.45,-1.262 -24.217,-4.672 -40.409,-9.801 -15.125,-4.68 -32.762,-11.969 -37.078,-14.129 V 157.5"
         style="fill:#231f20;fill-opacity:1;fill-rule:nonzero;stroke:none"
         id="path90" /><path
         d="m 209.609,877.77 2.61,9.625 710.64,-193.84 -2.129,-9.762 -711.121,193.977"
         style="fill:#231f20;fill-opacity:1;fill-rule:nonzero;stroke:none"
         id="path92" /><path
         d="m 927.004,712.527 c 10.074,-8.097 18.269,-14.941 31.226,-23.492 13.86,-9.18 26.731,-16.375 35.278,-19.976 -9.094,1.171 -23.488,1.351 -39.504,0.359 -15.039,-0.898 -32.949,-3.691 -37.441,-4.77 l 10.441,47.879"
         style="fill:#231f20;fill-opacity:1;fill-rule:nonzero;stroke:none"
         id="path94" /><path
         d="m 506.988,1179.93 c -1.121,1.23 -2.332,2.22 -3.652,2.96 -1.32,0.73 -3.086,1.32 -5.305,1.77 -6.035,1.2 -11.222,0.47 -15.554,-2.2 -4.332,-2.66 -6.926,-6.14 -7.786,-10.43 -0.519,-2.64 -0.082,-5.21 1.321,-7.73 1.394,-2.51 3.582,-4.39 6.562,-5.64 -4.039,-0.9 -6.761,-1.91 -8.172,-3.03 -1.41,-1.14 -2.234,-2.31 -2.472,-3.52 -0.258,-1.29 0.179,-2.62 1.336,-3.98 -4.102,-1.41 -6.594,-2.33 -7.496,-2.75 -1.446,-0.65 -2.707,-1.59 -3.801,-2.84 -1.09,-1.24 -1.77,-2.51 -2.028,-3.81 -0.316,-1.6 0.008,-3.28 0.981,-5.04 0.973,-1.77 2.863,-3.39 5.66,-4.87 2.809,-1.49 6.031,-2.59 9.664,-3.31 4.109,-0.82 7.992,-1 11.625,-0.51 3.637,0.49 6.547,1.57 8.731,3.27 2.175,1.7 3.515,3.78 4.007,6.26 0.411,2.08 0.051,4.06 -1.089,5.96 -1.168,1.85 -4.028,3.83 -8.563,5.92 l -8.164,3.74 c -2.047,0.94 -3.281,1.72 -3.695,2.32 l -0.446,1.82 1.145,1.32 c 1.769,1.04 4.266,1.74 7.473,2.11 5.89,-0.83 10.8,-0.01 14.742,2.46 3.91,2.46 6.269,5.7 7.066,9.7 0.281,1.42 0.313,3.01 0.082,4.75 l 7.344,-1.46 2.195,4.42 z m -6.597,-11.43 c -1.09,-2.26 -2.293,-4.05 -3.637,-5.39 -1.34,-1.33 -2.844,-2.28 -4.508,-2.86 -1.66,-0.58 -3.297,-0.71 -4.887,-0.39 -2.043,0.4 -3.625,1.48 -4.757,3.25 -1.133,1.76 -1.469,3.8 -1.004,6.12 0.738,3.72 2.562,7.06 5.468,10.04 2.907,2.98 6.071,4.13 9.481,3.45 2.191,-0.43 3.828,-1.48 4.898,-3.14 1.075,-1.65 1.371,-3.69 0.891,-6.1 -0.211,-1.05 -0.859,-2.72 -1.945,-4.98 z m -12.446,-28.05 c 3.078,-1.29 5.051,-2.58 5.946,-3.86 0.882,-1.28 1.211,-2.5 0.98,-3.67 -0.461,-2.33 -2.328,-3.92 -5.601,-4.79 -3.27,-0.86 -7,-0.88 -11.2,-0.04 -4.863,0.97 -8.367,2.63 -10.527,5 -1.504,1.66 -2.055,3.47 -1.66,5.46 0.332,1.68 1.281,3.29 2.832,4.8 1.551,1.5 3.609,2.59 6.18,3.23 7.07,-3.38 11.418,-5.43 13.05,-6.13"
         style="fill:#231f20;fill-opacity:1;fill-rule:nonzero;stroke:none"
         id="path96" /><path
         d="m 624.586,1186 c 2.215,6.97 3.699,11.39 4.434,13.26 1.453,3.58 3.093,6.21 4.941,7.89 1.355,1.26 2.91,1.9 4.637,1.9 l 1.574,-0.47 0.34,-0.97 -0.586,-1.47 -0.586,-1.84 0.879,-2 c 0.586,-0.55 1.34,-0.83 2.265,-0.83 1.075,0 1.954,0.37 2.633,1.12 0.684,0.74 1.016,1.65 1.016,2.74 0,1.39 -0.664,2.69 -1.977,3.88 -1.32,1.2 -3.066,1.79 -5.234,1.79 -2.082,0 -4.277,-0.69 -6.613,-2.05 -2.332,-1.38 -4.551,-3.43 -6.661,-6.18 -1.57,-2.03 -3.203,-4.89 -4.89,-8.59 -1.25,-2.75 -2.336,-4.61 -3.254,-5.62 -0.906,-1 -1.922,-1.68 -3.031,-2.03 -1.106,-0.35 -3.043,-0.53 -5.805,-0.53 l -0.664,-3.05 h 8.73 l -8.593,-31.41 c -1.914,-7.22 -3.102,-11.46 -3.563,-12.75 -0.98,-3.11 -2,-5.48 -3.074,-7.13 -1.07,-1.64 -2.309,-2.88 -3.715,-3.71 -1.41,-0.83 -2.754,-1.24 -4.043,-1.24 l -1.234,0.31 -0.282,0.64 0.668,0.98 0.895,1.89 -0.805,1.79 -2.004,0.79 c -1.101,0 -2.031,-0.37 -2.781,-1.08 -0.754,-0.72 -1.129,-1.57 -1.129,-2.55 0,-1.23 0.469,-2.23 1.399,-3 1.246,-1.1 2.765,-1.65 4.562,-1.65 2.77,0 5.535,1 8.297,2.99 3.606,2.61 6.973,7.32 10.109,14.17 2.207,4.85 4.512,11.7 6.934,20.55 l 5.359,20.41 h 6.594 l 0.781,3.05 h -6.523"
         style="fill:#231f20;fill-opacity:1;fill-rule:nonzero;stroke:none"
         id="path98" /><path
         d="m 568.969,1170.41 c -1.406,2.78 -3.434,4.96 -6.082,6.53 -2.653,1.56 -5.36,2.35 -8.117,2.35 -2.856,0 -5.692,-0.84 -8.5,-2.53 -2.813,-1.7 -5.02,-4.08 -6.622,-7.15 -1.601,-3.07 -2.402,-6.21 -2.402,-9.42 0,-4.69 1.594,-8.69 4.77,-11.99 3.179,-3.31 7.062,-4.96 11.644,-4.96 3.254,0 6.219,0.87 8.895,2.6 2.675,1.75 4.758,4.08 6.261,7.02 1.504,2.94 2.258,5.97 2.258,9.11 0,2.83 -0.703,5.65 -2.105,8.44 z m -7.266,-21.21 c -1.82,-2.31 -4,-3.46 -6.531,-3.46 -3.371,0 -6.113,1.68 -8.231,5.04 -2.113,3.36 -3.171,7.52 -3.171,12.47 0,4.4 0.953,7.76 2.863,10.07 1.902,2.31 4.125,3.47 6.66,3.47 2.559,0 4.867,-1.16 6.937,-3.49 2.801,-3.16 4.204,-7.79 4.204,-13.87 0,-4.5 -0.911,-7.91 -2.731,-10.23"
         style="fill:#231f20;fill-opacity:1;fill-rule:nonzero;stroke:none"
         id="path100" /></g></g></svg>
