<?xml version="1.0" encoding="UTF-8" standalone="no"?>
<svg
   xmlns:dc="http://purl.org/dc/elements/1.1/"
   xmlns:cc="http://creativecommons.org/ns#"
   xmlns:rdf="http://www.w3.org/1999/02/22-rdf-syntax-ns#"
   xmlns:svg="http://www.w3.org/2000/svg"
   xmlns="http://www.w3.org/2000/svg"
   xmlns:sodipodi="http://sodipodi.sourceforge.net/DTD/sodipodi-0.dtd"
   xmlns:inkscape="http://www.inkscape.org/namespaces/inkscape"
   version="1.1"
   id="svg2"
   xml:space="preserve"
   width="323.65332"
   height="187.33333"
   viewBox="0 0 323.65332 187.33333"
   sodipodi:docname="figps-compinverse.eps"><metadata
     id="metadata8"><rdf:RDF><cc:Work
         rdf:about=""><dc:format>image/svg+xml</dc:format><dc:type
           rdf:resource="http://purl.org/dc/dcmitype/StillImage" /></cc:Work></rdf:RDF></metadata><defs
     id="defs6" /><sodipodi:namedview
     pagecolor="#ffffff"
     bordercolor="#666666"
     borderopacity="1"
     objecttolerance="10"
     gridtolerance="10"
     guidetolerance="10"
     inkscape:pageopacity="0"
     inkscape:pageshadow="2"
     inkscape:window-width="640"
     inkscape:window-height="480"
     id="namedview4" /><g
     id="g10"
     inkscape:groupmode="layer"
     inkscape:label="ink_ext_XXXXXX"
     transform="matrix(1.3333333,0,0,-1.3333333,0,187.33333)"><g
       id="g12"
       transform="scale(0.1)"><path
         d="m 181.121,1180.66 c 0.988,0 1.793,-0.81 1.793,-1.8 0,-0.98 -0.805,-1.79 -1.793,-1.79 -97.8202,0 -177.53116,-79.71 -177.53116,-177.539 0,-0.98 -0.8125,-1.793 -1.79296,-1.793 C 0.8125,997.738 0,998.551 0,999.531 0,1099.32 81.3281,1180.66 181.121,1180.66"
         style="fill:#231f20;fill-opacity:1;fill-rule:nonzero;stroke:none"
         id="path14" /><path
         d="m 0.238281,593.301 h 3.64844 V 1000 h -3.64844 z"
         style="fill:#231f20;fill-opacity:1;fill-rule:nonzero;stroke:none"
         id="path16" /><path
         d="m 0,592.813 c 0,0.996 0.8125,1.796 1.79688,1.796 0.98046,0 1.79296,-0.8 1.79296,-1.796 0,-97.825 79.71096,-177.532 177.53116,-177.532 0.988,0 1.793,-0.808 1.793,-1.793 0,-0.976 -0.805,-1.789 -1.793,-1.789 C 81.3281,411.699 0,493.027 0,592.813"
         style="fill:#231f20;fill-opacity:1;fill-rule:nonzero;stroke:none"
         id="path18" /><path
         d="m 203.316,1178.86 c 0,0.99 0.809,1.8 1.789,1.8 99.797,0 181.125,-81.34 181.125,-181.129 0,-0.98 -0.808,-1.793 -1.796,-1.793 -0.981,0 -1.793,0.813 -1.793,1.793 0,97.829 -79.711,177.539 -177.536,177.539 -0.98,0 -1.789,0.81 -1.789,1.79"
         style="fill:#231f20;fill-opacity:1;fill-rule:nonzero;stroke:none"
         id="path20" /><path
         d="m 382.563,593.301 h 3.64844 V 1000 H 382.563 Z"
         style="fill:#231f20;fill-opacity:1;fill-rule:nonzero;stroke:none"
         id="path22" /><path
         d="m 384.434,594.609 c 0.988,0 1.796,-0.8 1.796,-1.796 0,-99.786 -81.328,-181.114 -181.125,-181.114 -0.98,0 -1.789,0.813 -1.789,1.789 0,0.985 0.809,1.793 1.789,1.793 97.825,0 177.536,79.707 177.536,177.532 0,0.996 0.812,1.796 1.793,1.796"
         style="fill:#231f20;fill-opacity:1;fill-rule:nonzero;stroke:none"
         id="path24" /><path
         d="m 181.68,411.863 h 24.0586 v 3.64453 H 181.68 Z"
         style="fill:#231f20;fill-opacity:1;fill-rule:nonzero;stroke:none"
         id="path26" /><path
         d="m 181.68,1176.5 h 24.0586 v 3.6367 H 181.68 Z"
         style="fill:#231f20;fill-opacity:1;fill-rule:nonzero;stroke:none"
         id="path28" /><path
         d="m 1201.55,1180.66 c 1,0 1.8,-0.81 1.8,-1.8 0,-0.98 -0.8,-1.79 -1.8,-1.79 -97.81,0 -177.53,-79.71 -177.53,-177.539 0,-0.98 -0.8,-1.793 -1.79,-1.793 -0.98,0 -1.79,0.813 -1.79,1.793 0,99.789 81.32,181.129 181.11,181.129"
         style="fill:#231f20;fill-opacity:1;fill-rule:nonzero;stroke:none"
         id="path30" /><path
         d="m 1019.76,593.301 h 3.6484 V 1000 h -3.6484 z"
         style="fill:#231f20;fill-opacity:1;fill-rule:nonzero;stroke:none"
         id="path32" /><path
         d="m 1020.44,592.813 c 0,0.996 0.81,1.796 1.79,1.796 0.99,0 1.79,-0.8 1.79,-1.796 0,-97.825 79.72,-177.532 177.53,-177.532 1,0 1.8,-0.808 1.8,-1.793 0,-0.976 -0.8,-1.789 -1.8,-1.789 -99.79,0 -181.11,81.328 -181.11,181.114"
         style="fill:#231f20;fill-opacity:1;fill-rule:nonzero;stroke:none"
         id="path34" /><path
         d="m 1223.84,1178.86 c 0,0.99 0.8,1.8 1.79,1.8 99.79,0 181.12,-81.34 181.12,-181.129 0,-0.98 -0.81,-1.793 -1.8,-1.793 -0.99,0 -1.8,0.813 -1.8,1.793 0,97.829 -79.7,177.539 -177.52,177.539 -0.99,0 -1.79,0.81 -1.79,1.79"
         style="fill:#231f20;fill-opacity:1;fill-rule:nonzero;stroke:none"
         id="path36" /><path
         d="m 1404.24,593.301 h 3.6406 V 1000 h -3.6406 z"
         style="fill:#231f20;fill-opacity:1;fill-rule:nonzero;stroke:none"
         id="path38" /><path
         d="m 1404.95,594.609 c 0.99,0 1.8,-0.8 1.8,-1.796 0,-99.786 -81.33,-181.114 -181.12,-181.114 -0.99,0 -1.79,0.813 -1.79,1.789 0,0.985 0.8,1.793 1.79,1.793 97.82,0 177.52,79.707 177.52,177.532 0,0.996 0.81,1.796 1.8,1.796"
         style="fill:#231f20;fill-opacity:1;fill-rule:nonzero;stroke:none"
         id="path40" /><path
         d="m 1201.2,411.863 h 24.0625 v 3.64453 H 1201.2 Z"
         style="fill:#231f20;fill-opacity:1;fill-rule:nonzero;stroke:none"
         id="path42" /><path
         d="m 1201.2,1176.5 h 24.0625 v 3.6367 H 1201.2 Z"
         style="fill:#231f20;fill-opacity:1;fill-rule:nonzero;stroke:none"
         id="path44" /><path
         d="m 2222.07,1180.66 c 1,0 1.8,-0.81 1.8,-1.8 0,-0.98 -0.8,-1.79 -1.8,-1.79 -97.82,0 -177.53,-79.71 -177.53,-177.539 0,-0.98 -0.81,-1.793 -1.8,-1.793 -0.97,0 -1.78,0.813 -1.78,1.793 0,99.789 81.32,181.129 181.11,181.129"
         style="fill:#231f20;fill-opacity:1;fill-rule:nonzero;stroke:none"
         id="path46" /><path
         d="m 2041.44,593.301 h 3.6484 V 1000 h -3.6484 z"
         style="fill:#231f20;fill-opacity:1;fill-rule:nonzero;stroke:none"
         id="path48" /><path
         d="m 2040.96,592.813 c 0,0.996 0.81,1.796 1.78,1.796 0.99,0 1.8,-0.8 1.8,-1.796 0,-97.825 79.71,-177.532 177.53,-177.532 1,0 1.8,-0.808 1.8,-1.793 0,-0.976 -0.8,-1.789 -1.8,-1.789 -99.79,0 -181.11,81.328 -181.11,181.114"
         style="fill:#231f20;fill-opacity:1;fill-rule:nonzero;stroke:none"
         id="path50" /><path
         d="m 2244.27,1178.86 c 0,0.99 0.8,1.8 1.79,1.8 99.8,0 181.12,-81.34 181.12,-181.129 0,-0.98 -0.8,-1.793 -1.79,-1.793 -0.99,0 -1.8,0.813 -1.8,1.793 0,97.829 -79.7,177.539 -177.53,177.539 -0.99,0 -1.79,0.81 -1.79,1.79"
         style="fill:#231f20;fill-opacity:1;fill-rule:nonzero;stroke:none"
         id="path52" /><path
         d="m 2423.76,593.301 h 3.6367 V 1000 h -3.6367 z"
         style="fill:#231f20;fill-opacity:1;fill-rule:nonzero;stroke:none"
         id="path54" /><path
         d="m 2425.39,594.609 c 0.99,0 1.79,-0.8 1.79,-1.796 0,-99.786 -81.32,-181.114 -181.12,-181.114 -0.99,0 -1.79,0.813 -1.79,1.789 0,0.985 0.8,1.793 1.79,1.793 97.83,0 177.53,79.707 177.53,177.532 0,0.996 0.81,1.796 1.8,1.796"
         style="fill:#231f20;fill-opacity:1;fill-rule:nonzero;stroke:none"
         id="path56" /><path
         d="m 2222.88,411.863 h 24.0508 v 3.64453 H 2222.88 Z"
         style="fill:#231f20;fill-opacity:1;fill-rule:nonzero;stroke:none"
         id="path58" /><path
         d="m 2222.88,1176.5 h 24.0508 v 3.6367 H 2222.88 Z"
         style="fill:#231f20;fill-opacity:1;fill-rule:nonzero;stroke:none"
         id="path60" /><g
         id="g62"
         transform="scale(10)"><text
           transform="matrix(1,0,0,-1,12.9766,79.6613)"
           style="font-style:italic;font-variant:normal;font-size:9.81819px;font-family:'Times New Roman';-inkscape-font-specification:TimesNewRomanPS-ItalicMT;writing-mode:lr-tb;fill:#231f20;fill-opacity:1;fill-rule:nonzero;stroke:none"
           id="text66"><tspan
             x="0 102.05154"
             y="0"
             sodipodi:role="line"
             id="tspan64">AB</tspan></text></g><path
         d="m 449.516,921.621 h 510.305 v 3.65234 H 449.516 Z"
         style="fill:#231f20;fill-opacity:1;fill-rule:nonzero;stroke:none"
         id="path68" /><path
         d="m 958.773,924.102 c -12.46,-2.696 -24.382,-7.176 -35.683,-13.36 v 26.895 c 11.301,-6.192 23.223,-10.672 35.683,-13.36 v -0.175"
         style="fill:#231f20;fill-opacity:1;fill-rule:nonzero;stroke:none"
         id="path70" /><path
         d="m 1469.04,921.621 h 510.313 v 3.65234 H 1469.04 Z"
         style="fill:#231f20;fill-opacity:1;fill-rule:nonzero;stroke:none"
         id="path72" /><path
         d="m 1979.2,924.102 c -12.46,-2.696 -24.39,-7.176 -35.68,-13.36 v 26.895 c 11.29,-6.192 23.22,-10.672 35.68,-13.36 v -0.175"
         style="fill:#231f20;fill-opacity:1;fill-rule:nonzero;stroke:none"
         id="path74" /><path
         d="m 449.516,666.738 h 510.305 v 3.65234 H 449.516 Z"
         style="fill:#231f20;fill-opacity:1;fill-rule:nonzero;stroke:none"
         id="path76" /><path
         d="m 484.52,655.586 c -11.383,6.191 -23.313,10.676 -35.68,13.445 12.367,2.778 24.297,7.258 35.68,13.449 v -26.894"
         style="fill:#231f20;fill-opacity:1;fill-rule:nonzero;stroke:none"
         id="path78" /><path
         d="m 1469.04,666.738 h 510.313 v 3.65234 H 1469.04 Z"
         style="fill:#231f20;fill-opacity:1;fill-rule:nonzero;stroke:none"
         id="path80" /><g
         id="g82"
         transform="scale(10)"><text
           transform="matrix(1,0,0,-1,217.075,79.6613)"
           style="font-style:italic;font-variant:normal;font-size:9.81819px;font-family:'Times New Roman';-inkscape-font-specification:TimesNewRomanPS-ItalicMT;writing-mode:lr-tb;fill:#231f20;fill-opacity:1;fill-rule:nonzero;stroke:none"
           id="text90"><tspan
             x="0"
             y="0"
             id="tspan84">C</tspan><tspan
             x="-146.69501 -44.647678"
             y="-19.132"
             sodipodi:role="line"
             id="tspan86">fg</tspan><tspan
             x="-146.69501"
             y="25.507099"
             id="tspan88">f</tspan></text><text
           transform="matrix(1,0,0,-1,82.164,57.71865)"
           style="font-variant:normal;font-weight:normal;font-size:7.1731px;font-family:'Times New Roman';-inkscape-font-specification:TimesNewRomanPSMT;writing-mode:lr-tb;fill:#231f20;fill-opacity:1;fill-rule:nonzero;stroke:none"
           id="text94"><tspan
             x="0"
             y="0"
             id="tspan92">1</tspan></text><text
           transform="matrix(1,0,0,-1,172.4234,54.1542)"
           style="font-style:italic;font-variant:normal;font-size:9.81819px;font-family:'Times New Roman';-inkscape-font-specification:TimesNewRomanPS-ItalicMT;writing-mode:lr-tb;fill:#231f20;fill-opacity:1;fill-rule:nonzero;stroke:none"
           id="text98"><tspan
             x="0"
             y="0"
             id="tspan96">g</tspan></text></g><path
         d="m 322.086,1241.3 h 1785.88 v 3.6445 H 322.086 Z"
         style="fill:#231f20;fill-opacity:1;fill-rule:nonzero;stroke:none"
         id="path100" /><path
         d="m 2106.79,1242.99 c -12.46,-2.69 -24.4,-7.17 -35.69,-13.36 v 26.9 c 11.29,-6.18 23.23,-10.67 35.69,-13.36 v -0.18"
         style="fill:#231f20;fill-opacity:1;fill-rule:nonzero;stroke:none"
         id="path102" /><path
         d="m 322.086,349.23 h 1785.88 v 3.62891 H 322.086 Z"
         style="fill:#231f20;fill-opacity:1;fill-rule:nonzero;stroke:none"
         id="path104" /><path
         d="m 357.027,336.691 c -11.386,6.188 -23.312,10.668 -35.683,13.45 12.371,2.781 24.297,7.257 35.683,13.441 v -26.891"
         style="fill:#231f20;fill-opacity:1;fill-rule:nonzero;stroke:none"
         id="path106" /><g
         id="g108"
         transform="scale(10)"><text
           transform="matrix(1,0,0,-1,183.382,57.7188)"
           style="font-variant:normal;font-weight:normal;font-size:7.1731px;font-family:'Times New Roman';-inkscape-font-specification:TimesNewRomanPSMT;writing-mode:lr-tb;fill:#231f20;fill-opacity:1;fill-rule:nonzero;stroke:none"
           id="text112"><tspan
             x="0"
             y="0"
             id="tspan110">1</tspan></text><text
           transform="matrix(1,0,0,-1,102.2711,130.6829)"
           style="font-style:italic;font-variant:normal;font-size:9.81819px;font-family:'Times New Roman';-inkscape-font-specification:TimesNewRomanPS-ItalicMT;writing-mode:lr-tb;fill:#231f20;fill-opacity:1;fill-rule:nonzero;stroke:none"
           id="text118"><tspan
             x="0 14.305859"
             y="0"
             sodipodi:role="line"
             id="tspan114">gf</tspan><tspan
             x="0 3.8167958 18.130863 23.991802"
             y="108.418"
             sodipodi:role="line"
             id="tspan116">(gf)</tspan></text></g><path
         d="m 1462.59,668.898 c 12.46,2.696 24.39,7.176 35.68,13.36 v -26.895 c -11.29,6.192 -23.22,10.672 -35.68,13.36 v 0.175"
         style="fill:#231f20;fill-opacity:1;fill-rule:nonzero;stroke:none"
         id="path120" /><path
         d="m 1128.6,1332.15 c -1.4,2.79 -3.42,4.96 -6.07,6.54 -2.66,1.56 -5.36,2.35 -8.13,2.35 -2.85,0 -5.68,-0.84 -8.49,-2.54 -2.81,-1.69 -5.02,-4.07 -6.62,-7.15 -1.6,-3.07 -2.41,-6.21 -2.41,-9.42 0,-4.68 1.6,-8.69 4.77,-11.99 3.18,-3.3 7.07,-4.96 11.65,-4.96 3.25,0 6.22,0.87 8.9,2.61 2.67,1.75 4.75,4.07 6.26,7.02 1.5,2.93 2.25,5.97 2.25,9.1 0,2.83 -0.7,5.65 -2.11,8.44 z m -7.26,-21.2 c -1.82,-2.32 -4,-3.47 -6.53,-3.47 -3.37,0 -6.11,1.68 -8.23,5.04 -2.12,3.37 -3.17,7.52 -3.17,12.48 0,4.39 0.96,7.75 2.86,10.06 1.9,2.32 4.13,3.48 6.66,3.48 2.56,0 4.87,-1.16 6.94,-3.49 2.8,-3.17 4.2,-7.79 4.2,-13.88 0,-4.5 -0.91,-7.91 -2.73,-10.22"
         style="fill:#231f20;fill-opacity:1;fill-rule:nonzero;stroke:none"
         id="path122" /><path
         d="m 1163.6,252.148 c -1.4,2.793 -3.42,4.961 -6.07,6.543 -2.66,1.559 -5.36,2.348 -8.13,2.348 -2.85,0 -5.68,-0.84 -8.49,-2.539 -2.81,-1.691 -5.02,-4.07 -6.62,-7.148 -1.6,-3.071 -2.41,-6.211 -2.41,-9.422 0,-4.68 1.6,-8.692 4.77,-11.989 3.18,-3.3 7.07,-4.961 11.65,-4.961 3.25,0 6.22,0.872 8.9,2.61 2.67,1.75 4.75,4.07 6.26,7.019 1.5,2.93 2.25,5.969 2.25,9.102 0,2.828 -0.7,5.648 -2.11,8.437 z m -7.26,-21.199 c -1.82,-2.32 -4,-3.469 -6.53,-3.469 -3.37,0 -6.11,1.68 -8.23,5.04 -2.12,3.371 -3.17,7.519 -3.17,12.48 0,4.391 0.96,7.75 2.86,10.059 1.9,2.32 4.13,3.48 6.66,3.48 2.56,0 4.87,-1.168 6.94,-3.488 2.8,-3.172 4.2,-7.789 4.2,-13.879 0,-4.5 -0.91,-7.91 -2.73,-10.223"
         style="fill:#231f20;fill-opacity:1;fill-rule:nonzero;stroke:none"
         id="path124" /><path
         d="M 1304.81,287.5 H 1347"
         style="fill:none;stroke:#231f20;stroke-width:7.26184;stroke-linecap:butt;stroke-linejoin:miter;stroke-miterlimit:4;stroke-dasharray:none;stroke-opacity:1"
         id="path126" /><path
         d="m 1787.31,597.5 h 42.19"
         style="fill:none;stroke:#231f20;stroke-width:7.26184;stroke-linecap:butt;stroke-linejoin:miter;stroke-miterlimit:4;stroke-dasharray:none;stroke-opacity:1"
         id="path128" /><path
         d="m 767.313,602.5 h 42.191"
         style="fill:none;stroke:#231f20;stroke-width:7.26184;stroke-linecap:butt;stroke-linejoin:miter;stroke-miterlimit:4;stroke-dasharray:none;stroke-opacity:1"
         id="path130" /><g
         id="g132"
         transform="scale(10)"><text
           transform="matrix(1,0,0,-1,136.006,26.7852)"
           style="font-variant:normal;font-weight:normal;font-size:7.1731px;font-family:'Times New Roman';-inkscape-font-specification:TimesNewRomanPSMT;writing-mode:lr-tb;fill:#231f20;fill-opacity:1;fill-rule:nonzero;stroke:none"
           id="text136"><tspan
             x="0"
             y="0"
             id="tspan134">1</tspan></text></g></g></g></svg>
