<?xml version="1.0" encoding="UTF-8" standalone="no"?>
<svg
   xmlns:dc="http://purl.org/dc/elements/1.1/"
   xmlns:cc="http://creativecommons.org/ns#"
   xmlns:rdf="http://www.w3.org/1999/02/22-rdf-syntax-ns#"
   xmlns:svg="http://www.w3.org/2000/svg"
   xmlns="http://www.w3.org/2000/svg"
   xmlns:sodipodi="http://sodipodi.sourceforge.net/DTD/sodipodi-0.dtd"
   xmlns:inkscape="http://www.inkscape.org/namespaces/inkscape"
   version="1.1"
   id="svg2"
   xml:space="preserve"
   width="227.25333"
   height="199.37334"
   viewBox="0 0 227.25333 199.37334"
   sodipodi:docname="figps-prev641.eps"><metadata
     id="metadata8"><rdf:RDF><cc:Work
         rdf:about=""><dc:format>image/svg+xml</dc:format><dc:type
           rdf:resource="http://purl.org/dc/dcmitype/StillImage" /></cc:Work></rdf:RDF></metadata><defs
     id="defs6" /><sodipodi:namedview
     pagecolor="#ffffff"
     bordercolor="#666666"
     borderopacity="1"
     objecttolerance="10"
     gridtolerance="10"
     guidetolerance="10"
     inkscape:pageopacity="0"
     inkscape:pageshadow="2"
     inkscape:window-width="640"
     inkscape:window-height="480"
     id="namedview4" /><g
     id="g10"
     inkscape:groupmode="layer"
     inkscape:label="ink_ext_XXXXXX"
     transform="matrix(1.3333333,0,0,-1.3333333,0,199.37333)"><g
       id="g12"
       transform="scale(0.1)"><path
         d="m 161.023,1250.44 c 0.879,0 1.598,-0.71 1.598,-1.59 0,-0.87 -0.719,-1.59 -1.598,-1.59 -86.9488,0 -157.80425,-70.86 -157.80425,-157.81 0,-0.88 -0.71875,-1.6 -1.59375,-1.6 -0.875,0 -1.59375,0.72 -1.59375,1.6 0,88.71 72.28905,160.99 160.99175,160.99"
         style="fill:#231f20;fill-opacity:1;fill-rule:nonzero;stroke:none"
         id="path14" /><path
         d="M 0,161.949 H 3.24219 V 1090.39 H 0 Z"
         style="fill:#231f20;fill-opacity:1;fill-rule:nonzero;stroke:none"
         id="path16" /><path
         d="m 0.03125,160.988 c 0,0.883 0.71875,1.582 1.59375,1.582 0.875,0 1.59375,-0.699 1.59375,-1.582 0,-86.9489 70.85545,-157.80831 157.80425,-157.80831 0.879,0 1.598,-0.71875 1.598,-1.57813 C 162.621,0.71875 161.902,0 161.023,0 72.3203,0 0.03125,72.2813 0.03125,160.988"
         style="fill:#231f20;fill-opacity:1;fill-rule:nonzero;stroke:none"
         id="path18" /><path
         d="m 180.754,1248.85 c 0,0.88 0.723,1.59 1.594,1.59 88.707,0 160.996,-72.28 160.996,-160.99 0,-0.88 -0.715,-1.6 -1.598,-1.6 -0.871,0 -1.59,0.72 -1.59,1.6 0,86.95 -70.855,157.81 -157.808,157.81 -0.871,0 -1.594,0.72 -1.594,1.59"
         style="fill:#231f20;fill-opacity:1;fill-rule:nonzero;stroke:none"
         id="path20" /><path
         d="m 339.844,161.949 h 3.24219 V 1090.39 H 339.844 Z"
         style="fill:#231f20;fill-opacity:1;fill-rule:nonzero;stroke:none"
         id="path22" /><path
         d="m 341.746,162.57 c 0.883,0 1.598,-0.699 1.598,-1.582 C 343.344,72.2813 271.055,0 182.348,0 c -0.871,0 -1.594,0.71875 -1.594,1.60156 0,0.85938 0.723,1.57813 1.594,1.57813 86.953,0 157.808,70.85941 157.808,157.80831 0,0.883 0.719,1.582 1.59,1.582"
         style="fill:#231f20;fill-opacity:1;fill-rule:nonzero;stroke:none"
         id="path24" /><path
         d="m 161.277,0.660156 h 21.3867 v 3.23828 H 161.277 Z"
         style="fill:#231f20;fill-opacity:1;fill-rule:nonzero;stroke:none"
         id="path26" /><path
         d="m 161.277,1246.75 h 21.3867 v 3.2422 H 161.277 Z"
         style="fill:#231f20;fill-opacity:1;fill-rule:nonzero;stroke:none"
         id="path28" /><path
         d="m 841.273,1250.44 c 0.879,0 1.602,-0.71 1.602,-1.59 0,-0.87 -0.723,-1.59 -1.602,-1.59 -86.949,0 -157.804,-70.86 -157.804,-157.81 0,-0.88 -0.719,-1.6 -1.594,-1.6 -0.875,0 -1.594,0.72 -1.594,1.6 0,88.71 72.285,160.99 160.992,160.99"
         style="fill:#231f20;fill-opacity:1;fill-rule:nonzero;stroke:none"
         id="path30" /><path
         d="m 679.688,161.949 h 3.23438 V 1090.39 H 679.688 Z"
         style="fill:#231f20;fill-opacity:1;fill-rule:nonzero;stroke:none"
         id="path32" /><path
         d="m 680.281,160.988 c 0,0.883 0.719,1.582 1.594,1.582 0.875,0 1.594,-0.699 1.594,-1.582 0,-86.9489 70.855,-157.80831 157.804,-157.80831 0.879,0 1.602,-0.71875 1.602,-1.57813 C 842.875,0.71875 842.152,0 841.273,0 752.566,0 680.281,72.2813 680.281,160.988"
         style="fill:#231f20;fill-opacity:1;fill-rule:nonzero;stroke:none"
         id="path34" /><path
         d="m 861.078,1248.85 c 0,0.88 0.723,1.59 1.602,1.59 88.703,0 161,-72.28 161,-160.99 0,-0.88 -0.73,-1.6 -1.6,-1.6 -0.88,0 -1.6,0.72 -1.6,1.6 0,86.95 -70.847,157.81 -157.8,157.81 -0.879,0 -1.602,0.72 -1.602,1.59"
         style="fill:#231f20;fill-opacity:1;fill-rule:nonzero;stroke:none"
         id="path36" /><path
         d="m 1021.45,161.949 h 3.2422 v 928.441 h -3.2422 z"
         style="fill:#231f20;fill-opacity:1;fill-rule:nonzero;stroke:none"
         id="path38" /><path
         d="m 1022.08,162.57 c 0.87,0 1.6,-0.699 1.6,-1.582 C 1023.68,72.2813 951.383,0 862.68,0 c -0.879,0 -1.602,0.71875 -1.602,1.60156 0,0.85938 0.723,1.57813 1.602,1.57813 86.953,0 157.8,70.85941 157.8,157.80831 0,0.883 0.72,1.582 1.6,1.582"
         style="fill:#231f20;fill-opacity:1;fill-rule:nonzero;stroke:none"
         id="path40" /><path
         d="m 840.961,0.660156 h 21.3867 v 3.23828 H 840.961 Z"
         style="fill:#231f20;fill-opacity:1;fill-rule:nonzero;stroke:none"
         id="path42" /><path
         d="m 840.961,1246.75 h 21.3867 v 3.2422 H 840.961 Z"
         style="fill:#231f20;fill-opacity:1;fill-rule:nonzero;stroke:none"
         id="path44" /><path
         d="m 1521.61,1250.44 c 0.88,0 1.58,-0.71 1.58,-1.59 0,-0.87 -0.7,-1.59 -1.58,-1.59 -86.96,0 -157.82,-70.86 -157.82,-157.81 0,-0.88 -0.72,-1.6 -1.59,-1.6 -0.87,0 -1.59,0.72 -1.59,1.6 0,88.71 72.29,160.99 161,160.99"
         style="fill:#231f20;fill-opacity:1;fill-rule:nonzero;stroke:none"
         id="path46" /><path
         d="m 1361.29,161.949 h 3.2305 v 928.441 h -3.2305 z"
         style="fill:#231f20;fill-opacity:1;fill-rule:nonzero;stroke:none"
         id="path48" /><path
         d="m 1360.61,160.988 c 0,0.883 0.72,1.582 1.59,1.582 0.87,0 1.59,-0.699 1.59,-1.582 0,-86.9489 70.86,-157.80831 157.82,-157.80831 0.88,0 1.58,-0.71875 1.58,-1.57813 0,-0.88281 -0.7,-1.60156 -1.58,-1.60156 -88.71,0 -161,72.2813 -161,160.988"
         style="fill:#231f20;fill-opacity:1;fill-rule:nonzero;stroke:none"
         id="path50" /><path
         d="m 1541.41,1248.85 c 0,0.88 0.71,1.59 1.6,1.59 88.69,0 161,-72.28 161,-160.99 0,-0.88 -0.72,-1.6 -1.6,-1.6 -0.88,0 -1.6,0.72 -1.6,1.6 0,86.95 -70.84,157.81 -157.8,157.81 -0.89,0 -1.6,0.72 -1.6,1.59"
         style="fill:#231f20;fill-opacity:1;fill-rule:nonzero;stroke:none"
         id="path52" /><path
         d="m 1701.12,161.949 h 3.2383 v 928.441 h -3.2383 z"
         style="fill:#231f20;fill-opacity:1;fill-rule:nonzero;stroke:none"
         id="path54" /><path
         d="m 1702.41,162.57 c 0.88,0 1.6,-0.699 1.6,-1.582 C 1704.01,72.2813 1631.7,0 1543.01,0 c -0.89,0 -1.6,0.71875 -1.6,1.60156 0,0.85938 0.71,1.57813 1.6,1.57813 86.96,0 157.8,70.85941 157.8,157.80831 0,0.883 0.72,1.582 1.6,1.582"
         style="fill:#231f20;fill-opacity:1;fill-rule:nonzero;stroke:none"
         id="path56" /><path
         d="m 1522.56,0.660156 h 21.3906 v 3.23828 H 1522.56 Z"
         style="fill:#231f20;fill-opacity:1;fill-rule:nonzero;stroke:none"
         id="path58" /><path
         d="m 1522.56,1246.75 h 21.3906 v 3.2422 H 1522.56 Z"
         style="fill:#231f20;fill-opacity:1;fill-rule:nonzero;stroke:none"
         id="path60" /><path
         d="m 172.039,93.082 c -12.309,0 -22.312,10.02 -22.312,22.328 0,12.301 10.003,22.32 22.312,22.32 12.309,0 22.316,-10.019 22.316,-22.32 0,-12.308 -10.007,-22.328 -22.316,-22.328"
         style="fill:#231f20;fill-opacity:1;fill-rule:nonzero;stroke:none"
         id="path62" /><path
         d="m 172.039,433.219 c -12.309,0 -22.312,10.019 -22.312,22.32 0,12.313 10.003,22.332 22.312,22.332 12.309,0 22.316,-10.019 22.316,-22.332 0,-12.301 -10.007,-22.32 -22.316,-22.32"
         style="fill:#231f20;fill-opacity:1;fill-rule:nonzero;stroke:none"
         id="path64" /><path
         d="m 172.039,771.398 c -12.309,0 -22.312,10 -22.312,22.305 0,12.313 10.003,22.324 22.312,22.324 12.309,0 22.316,-10.011 22.316,-22.324 0,-12.305 -10.007,-22.305 -22.316,-22.305"
         style="fill:#231f20;fill-opacity:1;fill-rule:nonzero;stroke:none"
         id="path66" /><path
         d="m 172.039,1113.55 c -12.309,0 -22.312,10.02 -22.312,22.32 0,12.31 10.003,22.31 22.312,22.31 12.309,0 22.316,-10 22.316,-22.31 0,-12.3 -10.007,-22.32 -22.316,-22.32"
         style="fill:#231f20;fill-opacity:1;fill-rule:nonzero;stroke:none"
         id="path68" /><path
         d="m 852.367,433.219 c -12.304,0 -22.312,10.019 -22.312,22.32 0,12.313 10.008,22.332 22.312,22.332 12.305,0 22.317,-10.019 22.317,-22.332 0,-12.301 -10.012,-22.32 -22.317,-22.32"
         style="fill:#231f20;fill-opacity:1;fill-rule:nonzero;stroke:none"
         id="path70" /><path
         d="m 852.367,773.352 c -12.304,0 -22.312,10.007 -22.312,22.316 0,12.312 10.008,22.32 22.312,22.32 12.305,0 22.317,-10.008 22.317,-22.32 0,-12.309 -10.012,-22.316 -22.317,-22.316"
         style="fill:#231f20;fill-opacity:1;fill-rule:nonzero;stroke:none"
         id="path72" /><path
         d="m 852.367,1113.55 c -12.304,0 -22.312,10.02 -22.312,22.32 0,12.31 10.008,22.31 22.312,22.31 12.305,0 22.317,-10 22.317,-22.31 0,-12.3 -10.012,-22.32 -22.317,-22.32"
         style="fill:#231f20;fill-opacity:1;fill-rule:nonzero;stroke:none"
         id="path74" /><path
         d="m 1532.7,93.082 c -12.31,0 -22.32,10.02 -22.32,22.328 0,12.301 10.01,22.32 22.32,22.32 12.3,0 22.3,-10.019 22.3,-22.32 0,-12.308 -10,-22.328 -22.3,-22.328"
         style="fill:#231f20;fill-opacity:1;fill-rule:nonzero;stroke:none"
         id="path76" /><path
         d="m 1532.7,433.219 c -12.31,0 -22.32,10.019 -22.32,22.32 0,12.313 10.01,22.332 22.32,22.332 12.3,0 22.3,-10.019 22.3,-22.332 0,-12.301 -10,-22.32 -22.3,-22.32"
         style="fill:#231f20;fill-opacity:1;fill-rule:nonzero;stroke:none"
         id="path78" /><path
         d="m 1532.7,773.352 c -12.31,0 -22.32,10.007 -22.32,22.316 0,12.312 10.01,22.32 22.32,22.32 12.3,0 22.3,-10.008 22.3,-22.32 0,-12.309 -10,-22.316 -22.3,-22.316"
         style="fill:#231f20;fill-opacity:1;fill-rule:nonzero;stroke:none"
         id="path80" /><path
         d="m 1532.7,1113.55 c -12.31,0 -22.32,10.02 -22.32,22.32 0,12.31 10.01,22.31 22.32,22.31 12.3,0 22.3,-10 22.3,-22.31 0,-12.3 -10,-22.32 -22.3,-22.32"
         style="fill:#231f20;fill-opacity:1;fill-rule:nonzero;stroke:none"
         id="path82" /><g
         id="g84"
         transform="scale(10)"><text
           transform="matrix(1,0,0,-1,7,111.587)"
           style="font-style:italic;font-variant:normal;font-size:11px;font-family:'Times New Roman';-inkscape-font-specification:TimesNewRomanPS-ItalicMT;writing-mode:lr-tb;fill:#231f20;fill-opacity:1;fill-rule:nonzero;stroke:none"
           id="text110"><tspan
             x="0"
             y="0"
             id="tspan86">a</tspan><tspan
             x="0.0011718801"
             y="35.020302"
             id="tspan88">b</tspan><tspan
             x="0.0011718801"
             y="68.033203"
             id="tspan90">c</tspan><tspan
             x="0.0011718801"
             y="103.0461"
             id="tspan92">d</tspan><tspan
             x="76.90387"
             y="-7.6669002"
             id="tspan94">p</tspan><tspan
             x="76.236687"
             y="25.3452"
             id="tspan96">q</tspan><tspan
             x="77.236687"
             y="61.366299"
             id="tspan98">r</tspan><tspan
             x="151.93588"
             y="-0.00050000002"
             id="tspan100">s</tspan><tspan
             x="151.93588"
             y="34.019798"
             id="tspan102">t</tspan><tspan
             x="151.93588"
             y="68.0327"
             id="tspan104">u</tspan><tspan
             x="151.93588"
             y="102.0456"
             id="tspan106">v</tspan><tspan
             x="10.203884 78.236687"
             y="-19.006399"
             sodipodi:role="line"
             id="tspan108">AB</tspan></text></g><path
         d="m 286.086,1338.91 h 532.941 v 3.2344 H 286.086 Z"
         style="fill:#231f20;fill-opacity:1;fill-rule:nonzero;stroke:none"
         id="path112" /><path
         d="m 818.207,1339.84 c -11.074,-2.39 -21.68,-6.38 -31.719,-11.88 v 23.91 c 10.039,-5.49 20.645,-9.48 31.719,-11.87 v -0.16"
         style="fill:#231f20;fill-opacity:1;fill-rule:nonzero;stroke:none"
         id="path114" /><path
         d="m 965.766,1338.91 h 532.953 v 3.2344 H 965.766 Z"
         style="fill:#231f20;fill-opacity:1;fill-rule:nonzero;stroke:none"
         id="path116" /><path
         d="m 1498.54,1339.84 c -11.07,-2.39 -21.68,-6.38 -31.72,-11.88 v 23.91 c 10.04,-5.49 20.65,-9.48 31.72,-11.87 v -0.16"
         style="fill:#231f20;fill-opacity:1;fill-rule:nonzero;stroke:none"
         id="path118" /><g
         id="g120"
         transform="scale(10)"><text
           transform="matrix(1,0,0,-1,153.272,130.593)"
           style="font-style:italic;font-variant:normal;font-size:11px;font-family:'Times New Roman';-inkscape-font-specification:TimesNewRomanPS-ItalicMT;writing-mode:lr-tb;fill:#231f20;fill-opacity:1;fill-rule:nonzero;stroke:none"
           id="text126"><tspan
             x="0"
             y="0"
             id="tspan122">C</tspan><tspan
             x="-102.048"
             y="-7.9347701"
             id="tspan124">f</tspan></text></g><path
         d="m 228.484,1133.47 h 567 v 3.2422 h -567 z"
         style="fill:#231f20;fill-opacity:1;fill-rule:nonzero;stroke:none"
         id="path128" /><path
         d="m 795.609,1135.79 c -11.074,-2.38 -21.679,-6.37 -31.718,-11.87 v 23.9 c 10.039,-5.49 20.644,-9.47 31.718,-11.87 v -0.16"
         style="fill:#231f20;fill-opacity:1;fill-rule:nonzero;stroke:none"
         id="path130" /><path
         d="m 228.484,793.633 h 567 v 3.24609 h -567 z"
         style="fill:#231f20;fill-opacity:1;fill-rule:nonzero;stroke:none"
         id="path132" /><path
         d="m 795.531,795.59 c -11.074,-2.383 -21.679,-6.371 -31.718,-11.875 v 23.902 c 10.039,-5.496 20.644,-9.48 31.718,-11.875 v -0.152"
         style="fill:#231f20;fill-opacity:1;fill-rule:nonzero;stroke:none"
         id="path134" /><path
         d="m 228.484,453.789 h 567 v 3.24219 h -567 z"
         style="fill:#231f20;fill-opacity:1;fill-rule:nonzero;stroke:none"
         id="path136" /><path
         d="m 795.531,455.469 c -11.074,-2.387 -21.679,-6.367 -31.718,-11.879 v 23.91 c 10.039,-5.512 20.644,-9.5 31.718,-11.879 v -0.152"
         style="fill:#231f20;fill-opacity:1;fill-rule:nonzero;stroke:none"
         id="path138" /><path
         d="m 229.41,114.059 c -0.164,-0.161 -0.394,-0.239 -0.637,-0.239 -0.875,0 -1.593,0.711 -1.593,1.59 0,0.559 0.398,1.11 0.957,1.34 l 79.621,39.871 c 0.156,0.149 0.394,0.231 0.715,0.231 0.879,0 1.593,-0.723 1.593,-1.582 0,-0.641 -0.398,-1.211 -0.957,-1.45 L 229.41,114.059"
         style="fill:#231f20;fill-opacity:1;fill-rule:nonzero;stroke:none"
         id="path140" /><path
         d="m 309.109,153.879 c -0.156,-0.168 -0.394,-0.25 -0.632,-0.25 -0.875,0 -1.59,0.723 -1.59,1.601 0,0.551 0.394,1.11 0.957,1.352 l 79.617,39.859 c 0.156,0.161 0.398,0.239 0.715,0.239 0.879,0 1.594,-0.731 1.594,-1.61 0,-0.621 -0.399,-1.191 -0.954,-1.422 l -79.707,-39.769"
         style="fill:#231f20;fill-opacity:1;fill-rule:nonzero;stroke:none"
         id="path142" /><path
         d="m 388.816,193.77 c -0.16,-0.18 -0.398,-0.258 -0.636,-0.258 -0.875,0 -1.594,0.726 -1.594,1.597 0,0.551 0.394,1.121 0.957,1.352 l 79.621,39.859 c 0.156,0.16 0.399,0.239 0.719,0.239 0.879,0 1.59,-0.719 1.59,-1.598 0,-0.629 -0.403,-1.191 -0.953,-1.43 L 388.816,193.77"
         style="fill:#231f20;fill-opacity:1;fill-rule:nonzero;stroke:none"
         id="path144" /><path
         d="m 468.52,233.59 c -0.161,-0.18 -0.399,-0.25 -0.637,-0.25 -0.875,0 -1.594,0.719 -1.594,1.601 0,0.547 0.399,1.11 0.957,1.348 l 79.617,39.84 c 0.157,0.18 0.403,0.25 0.719,0.25 0.879,0 1.594,-0.719 1.594,-1.598 0,-0.64 -0.399,-1.191 -0.953,-1.422 L 468.52,233.59"
         style="fill:#231f20;fill-opacity:1;fill-rule:nonzero;stroke:none"
         id="path146" /><path
         d="m 548.223,273.469 c -0.16,-0.168 -0.403,-0.25 -0.633,-0.25 -0.879,0 -1.598,0.722 -1.598,1.601 0,0.551 0.399,1.11 0.957,1.352 l 79.621,39.84 c 0.16,0.179 0.399,0.258 0.715,0.258 0.879,0 1.594,-0.731 1.594,-1.61 0,-0.64 -0.399,-1.191 -0.953,-1.422 l -79.703,-39.769"
         style="fill:#231f20;fill-opacity:1;fill-rule:nonzero;stroke:none"
         id="path148" /><path
         d="m 627.926,313.281 c -0.16,-0.16 -0.399,-0.242 -0.637,-0.242 -0.871,0 -1.598,0.731 -1.598,1.609 0,0.543 0.403,1.114 0.957,1.34 l 79.625,39.852 c 0.157,0.172 0.399,0.25 0.715,0.25 0.879,0 1.598,-0.719 1.598,-1.602 0,-0.648 -0.402,-1.187 -0.957,-1.449 l -79.703,-39.758"
         style="fill:#231f20;fill-opacity:1;fill-rule:nonzero;stroke:none"
         id="path150" /><path
         d="m 707.629,353.18 c -0.156,-0.18 -0.399,-0.25 -0.637,-0.25 -0.875,0 -1.594,0.718 -1.594,1.601 0,0.539 0.399,1.11 0.957,1.348 l 79.625,39.859 c 0.157,0.16 0.391,0.231 0.704,0.231 0.879,0 1.601,-0.719 1.601,-1.598 0,-0.621 -0.398,-1.191 -0.957,-1.422 L 707.629,353.18"
         style="fill:#231f20;fill-opacity:1;fill-rule:nonzero;stroke:none"
         id="path152" /><path
         d="m 716.633,357.629 c -0.164,-0.149 -0.403,-0.231 -0.641,-0.231 -0.875,0 -1.594,0.723 -1.594,1.582 0,0.571 0.399,1.129 0.957,1.372 l 79.622,39.839 c 0.156,0.161 0.398,0.239 0.711,0.239 0.878,0 1.601,-0.711 1.601,-1.59 0,-0.641 -0.41,-1.192 -0.957,-1.442 l -79.699,-39.769"
         style="fill:#231f20;fill-opacity:1;fill-rule:nonzero;stroke:none"
         id="path154" /><path
         d="m 761.82,395.25 c 11.399,-0.391 22.715,0.801 33.711,3.52 -8.769,-7.192 -16.504,-15.551 -23.027,-24.95 l -10.684,21.43"
         style="fill:#231f20;fill-opacity:1;fill-rule:nonzero;stroke:none"
         id="path156" /><path
         d="m 989.438,1097.34 c 0.558,-0.24 0.957,-0.8 0.957,-1.36 0,-0.87 -0.723,-1.59 -1.602,-1.59 -0.313,0 -0.547,0.07 -0.703,0.24 l -79.629,39.76 c -0.555,0.25 -0.957,0.8 -0.957,1.44 0,0.88 0.723,1.6 1.601,1.6 0.235,0 0.469,-0.09 0.625,-0.24 l 79.708,-39.85"
         style="fill:#231f20;fill-opacity:1;fill-rule:nonzero;stroke:none"
         id="path158" /><path
         d="m 1069.15,1057.52 c 0.54,-0.24 0.95,-0.79 0.95,-1.36 0,-0.87 -0.72,-1.59 -1.6,-1.59 -0.31,0 -0.56,0.08 -0.71,0.24 l -79.622,39.77 c -0.566,0.24 -0.957,0.8 -0.957,1.44 0,0.87 0.723,1.59 1.594,1.59 0.242,0 0.476,-0.08 0.633,-0.23 l 79.712,-39.86"
         style="fill:#231f20;fill-opacity:1;fill-rule:nonzero;stroke:none"
         id="path160" /><path
         d="m 1148.85,1017.63 c 0.55,-0.24 0.95,-0.79 0.95,-1.35 0,-0.88 -0.71,-1.6 -1.59,-1.6 -0.31,0 -0.57,0.08 -0.72,0.25 l -79.61,39.77 c -0.57,0.23 -0.96,0.79 -0.96,1.43 0,0.87 0.71,1.6 1.58,1.6 0.25,0 0.49,-0.09 0.65,-0.24 l 79.7,-39.86"
         style="fill:#231f20;fill-opacity:1;fill-rule:nonzero;stroke:none"
         id="path162" /><path
         d="m 1228.48,977.82 c 0.55,-0.242 0.96,-0.797 0.96,-1.359 0,-0.871 -0.72,-1.59 -1.6,-1.59 -0.32,0 -0.56,0.078 -0.72,0.238 l -79.62,39.771 c -0.56,0.24 -0.95,0.8 -0.95,1.44 0,0.87 0.72,1.59 1.59,1.59 0.24,0 0.48,-0.09 0.63,-0.24 l 79.71,-39.85"
         style="fill:#231f20;fill-opacity:1;fill-rule:nonzero;stroke:none"
         id="path164" /><path
         d="m 1308.19,937.93 c 0.55,-0.239 0.95,-0.793 0.95,-1.356 0,-0.875 -0.72,-1.594 -1.6,-1.594 -0.31,0 -0.56,0.079 -0.72,0.243 l -79.61,39.769 c -0.56,0.238 -0.96,0.797 -0.96,1.434 0,0.875 0.72,1.594 1.59,1.594 0.24,0 0.49,-0.079 0.64,-0.235 l 79.71,-39.855"
         style="fill:#231f20;fill-opacity:1;fill-rule:nonzero;stroke:none"
         id="path166" /><path
         d="m 1387.89,898.117 c 0.55,-0.242 0.94,-0.801 0.94,-1.359 0,-0.875 -0.7,-1.59 -1.58,-1.59 -0.32,0 -0.57,0.078 -0.72,0.234 l -79.62,39.77 c -0.56,0.246 -0.96,0.797 -0.96,1.441 0,0.875 0.72,1.59 1.59,1.59 0.24,0 0.48,-0.082 0.65,-0.238 l 79.7,-39.848"
         style="fill:#231f20;fill-opacity:1;fill-rule:nonzero;stroke:none"
         id="path168" /><path
         d="m 1467.58,858.223 c 0.57,-0.235 0.96,-0.797 0.96,-1.344 0,-0.879 -0.71,-1.606 -1.58,-1.606 -0.33,0 -0.57,0.079 -0.72,0.247 l -79.63,39.765 c -0.55,0.242 -0.96,0.801 -0.96,1.434 0,0.879 0.72,1.601 1.6,1.601 0.24,0 0.47,-0.086 0.64,-0.242 l 79.69,-39.855"
         style="fill:#231f20;fill-opacity:1;fill-rule:nonzero;stroke:none"
         id="path170" /><path
         d="m 1476.67,853.762 c 0.56,-0.235 0.95,-0.793 0.95,-1.348 0,-0.879 -0.72,-1.594 -1.59,-1.594 -0.32,0 -0.56,0.078 -0.71,0.235 l -79.63,39.765 c -0.56,0.246 -0.96,0.805 -0.96,1.446 0,0.871 0.72,1.593 1.6,1.593 0.24,0 0.47,-0.089 0.63,-0.246 l 79.71,-39.851"
         style="fill:#231f20;fill-opacity:1;fill-rule:nonzero;stroke:none"
         id="path172" /><path
         d="m 1452.83,877.355 c 6.53,-9.406 14.26,-17.773 23.03,-24.863 -11,2.625 -22.32,3.828 -33.71,3.43 l 10.68,21.433"
         style="fill:#231f20;fill-opacity:1;fill-rule:nonzero;stroke:none"
         id="path174" /><path
         d="m 908.168,793.633 h 566.992 v 3.24609 H 908.168 Z"
         style="fill:#231f20;fill-opacity:1;fill-rule:nonzero;stroke:none"
         id="path176" /><path
         d="m 1475.86,795.59 c -11.07,-2.383 -21.68,-6.371 -31.71,-11.875 v 23.902 c 10.03,-5.496 20.64,-9.48 31.71,-11.875 v -0.152"
         style="fill:#231f20;fill-opacity:1;fill-rule:nonzero;stroke:none"
         id="path178" /><path
         d="m 910.219,488.41 c -0.321,-0.23 -0.723,-0.48 -1.114,-0.48 -0.878,0 -1.601,0.718 -1.601,1.601 0,0.391 0.234,0.797 0.48,1.11 l 79.618,79.707 c 0.324,0.234 0.722,0.468 1.191,0.468 0.879,0 1.602,-0.703 1.602,-1.582 0,-0.488 -0.235,-0.879 -0.477,-1.191 L 910.219,488.41"
         style="fill:#231f20;fill-opacity:1;fill-rule:nonzero;stroke:none"
         id="path180" /><path
         d="m 989.926,568.121 c -0.332,-0.234 -0.723,-0.488 -1.121,-0.488 -0.871,0 -1.594,0.722 -1.594,1.601 0,0.391 0.234,0.801 0.469,1.114 l 79.63,79.687 c 0.31,0.254 0.72,0.488 1.19,0.488 0.88,0 1.6,-0.722 1.6,-1.582 0,-0.488 -0.24,-0.898 -0.49,-1.211 l -79.684,-79.609"
         style="fill:#231f20;fill-opacity:1;fill-rule:nonzero;stroke:none"
         id="path182" /><path
         d="m 1069.62,647.809 c -0.32,-0.235 -0.71,-0.469 -1.12,-0.469 -0.87,0 -1.58,0.723 -1.58,1.601 0,0.391 0.23,0.782 0.47,1.114 l 79.63,79.695 c 0.31,0.242 0.71,0.484 1.19,0.484 0.88,0 1.59,-0.722 1.59,-1.605 0,-0.469 -0.24,-0.879 -0.48,-1.191 l -79.7,-79.629"
         style="fill:#231f20;fill-opacity:1;fill-rule:nonzero;stroke:none"
         id="path184" /><path
         d="m 1149.26,727.516 c -0.33,-0.235 -0.72,-0.469 -1.12,-0.469 -0.87,0 -1.59,0.723 -1.59,1.582 0,0.406 0.23,0.805 0.47,1.129 l 79.63,79.699 c 0.31,0.231 0.72,0.477 1.19,0.477 0.88,0 1.6,-0.715 1.6,-1.59 0,-0.492 -0.25,-0.879 -0.49,-1.196 l -79.69,-79.632"
         style="fill:#231f20;fill-opacity:1;fill-rule:nonzero;stroke:none"
         id="path186" /><path
         d="m 1228.96,807.227 c -0.32,-0.235 -0.71,-0.477 -1.12,-0.477 -0.87,0 -1.59,0.715 -1.59,1.594 0,0.398 0.24,0.797 0.47,1.113 l 79.63,79.703 c 0.32,0.235 0.72,0.473 1.19,0.473 0.88,0 1.6,-0.715 1.6,-1.594 0,-0.48 -0.25,-0.867 -0.48,-1.191 l -79.7,-79.621"
         style="fill:#231f20;fill-opacity:1;fill-rule:nonzero;stroke:none"
         id="path188" /><path
         d="m 1308.66,886.934 c -0.32,-0.243 -0.72,-0.477 -1.12,-0.477 -0.87,0 -1.59,0.715 -1.59,1.594 0,0.398 0.25,0.797 0.48,1.109 l 79.62,79.703 c 0.32,0.239 0.71,0.481 1.2,0.481 0.88,0 1.58,-0.719 1.58,-1.598 0,-0.473 -0.23,-0.875 -0.47,-1.191 l -79.7,-79.621"
         style="fill:#231f20;fill-opacity:1;fill-rule:nonzero;stroke:none"
         id="path190" /><path
         d="m 1388.36,966.633 c -0.31,-0.235 -0.72,-0.473 -1.11,-0.473 -0.88,0 -1.6,0.719 -1.6,1.59 0,0.402 0.24,0.797 0.49,1.117 l 79.62,79.703 c 0.31,0.23 0.71,0.48 1.2,0.48 0.87,0 1.58,-0.72 1.58,-1.6 0,-0.48 -0.23,-0.88 -0.48,-1.19 l -79.7,-79.627"
         style="fill:#231f20;fill-opacity:1;fill-rule:nonzero;stroke:none"
         id="path192" /><path
         d="m 1431.43,1009.62 c -0.32,-0.24 -0.72,-0.48 -1.11,-0.48 -0.88,0 -1.6,0.72 -1.6,1.59 0,0.4 0.24,0.81 0.47,1.12 l 79.62,79.7 c 0.32,0.24 0.73,0.48 1.2,0.48 0.87,0 1.6,-0.71 1.6,-1.59 0,-0.48 -0.24,-0.88 -0.49,-1.2 l -79.69,-79.62"
         style="fill:#231f20;fill-opacity:1;fill-rule:nonzero;stroke:none"
         id="path194" /><path
         d="m 1479,1076.33 c 11,3.19 21.28,7.89 30.85,14.03 l 0.08,-0.08 c -6.14,-9.57 -10.84,-19.85 -14.03,-30.85 l -16.9,16.9"
         style="fill:#231f20;fill-opacity:1;fill-rule:nonzero;stroke:none"
         id="path196" /><g
         id="g198"
         transform="scale(10)"><text
           transform="matrix(1,0,0,-1,119.259,138.528)"
           style="font-style:italic;font-variant:normal;font-size:11px;font-family:'Times New Roman';-inkscape-font-specification:TimesNewRomanPS-ItalicMT;writing-mode:lr-tb;fill:#231f20;fill-opacity:1;fill-rule:nonzero;stroke:none"
           id="text202"><tspan
             x="0"
             y="0"
             id="tspan200">g</tspan></text></g></g></g></svg>
