<?xml version="1.0" encoding="UTF-8" standalone="no"?>
<svg
   xmlns:dc="http://purl.org/dc/elements/1.1/"
   xmlns:cc="http://creativecommons.org/ns#"
   xmlns:rdf="http://www.w3.org/1999/02/22-rdf-syntax-ns#"
   xmlns:svg="http://www.w3.org/2000/svg"
   xmlns="http://www.w3.org/2000/svg"
   xmlns:sodipodi="http://sodipodi.sourceforge.net/DTD/sodipodi-0.dtd"
   xmlns:inkscape="http://www.inkscape.org/namespaces/inkscape"
   version="1.1"
   id="svg2"
   xml:space="preserve"
   width="193.33333"
   height="193.33333"
   viewBox="0 0 193.33333 193.33333"
   sodipodi:docname="figps-venn3 [Converted].eps"><metadata
     id="metadata8"><rdf:RDF><cc:Work
         rdf:about=""><dc:format>image/svg+xml</dc:format><dc:type
           rdf:resource="http://purl.org/dc/dcmitype/StillImage" /></cc:Work></rdf:RDF></metadata><defs
     id="defs6" /><sodipodi:namedview
     pagecolor="#ffffff"
     bordercolor="#666666"
     borderopacity="1"
     objecttolerance="10"
     gridtolerance="10"
     guidetolerance="10"
     inkscape:pageopacity="0"
     inkscape:pageshadow="2"
     inkscape:window-width="640"
     inkscape:window-height="480"
     id="namedview4" /><g
     id="g10"
     inkscape:groupmode="layer"
     inkscape:label="ink_ext_XXXXXX"
     transform="matrix(1.3333333,0,0,-1.3333333,0,193.33333)"><g
       id="g12"
       transform="scale(0.1)"><path
         d="M 905.039,890.02 H 900 c 0,-98.098 -39.691,-186.75 -103.949,-251.008 -64.262,-64.262 -153,-104.043 -251.012,-104.043 -98.098,0 -186.84,39.781 -251.098,104.043 -64.171,64.258 -103.953,152.91 -103.953,251.008 0,98.011 39.782,186.75 103.953,251.01 64.258,64.26 153,103.95 251.098,103.95 98.012,0 186.75,-39.69 251.012,-103.95 C 860.309,1076.77 900,988.031 900,890.02 h 5.039 4.949 c 0,201.6 -163.437,364.95 -364.949,364.95 C 343.441,1254.97 180,1091.62 180,890.02 180,688.422 343.441,524.98 545.039,524.98 c 201.512,0 364.949,163.442 364.949,365.04 h -4.949"
         style="fill:#231f20;fill-opacity:1;fill-rule:nonzero;stroke:none"
         id="path14" /><path
         d="M 1085.04,514.988 H 1080 c 0,-98.008 -39.69,-186.75 -103.949,-251.008 -64.262,-64.261 -153,-103.949 -251.012,-103.949 -98.098,0 -186.84,39.688 -251.098,103.949 -64.171,64.258 -103.953,153 -103.953,251.008 0,98.102 39.782,186.75 103.953,251.012 64.258,64.262 153,104.039 251.098,104.039 98.012,0 186.75,-39.777 251.012,-104.039 C 1040.31,701.738 1080,613.09 1080,514.988 h 5.04 4.95 c 0,201.602 -163.439,365.043 -364.951,365.043 C 523.441,880.031 360,716.59 360,514.988 360,313.391 523.441,150.039 725.039,150.039 c 201.512,0 364.951,163.352 364.951,364.949 h -4.95"
         style="fill:#231f20;fill-opacity:1;fill-rule:nonzero;stroke:none"
         id="path16" /><path
         d="M 1265.04,890.02 H 1260 c 0,-98.098 -39.69,-186.75 -103.95,-251.008 -64.26,-64.262 -153,-104.043 -251.011,-104.043 -98.098,0 -186.84,39.781 -251.098,104.043 -64.171,64.258 -103.953,152.91 -103.953,251.008 0,98.011 39.782,186.75 103.953,251.01 64.258,64.26 153,103.95 251.098,103.95 98.011,0 186.751,-39.69 251.011,-103.95 C 1220.31,1076.77 1260,988.031 1260,890.02 h 5.04 4.95 c 0,201.6 -163.44,364.95 -364.951,364.95 C 703.441,1254.97 540,1091.62 540,890.02 540,688.422 703.441,524.98 905.039,524.98 c 201.511,0 364.951,163.442 364.951,365.04 h -4.95"
         style="fill:#231f20;fill-opacity:1;fill-rule:nonzero;stroke:none"
         id="path18" /><path
         d="M 1445.04,4.96094 H 5.03906 V 1444.96 H 1445.04 V 4.96094 M 364.539,572.668 C 361.555,553.879 360,534.617 360,514.988 360,313.391 523.441,150.039 725.039,150.039 c 201.512,0 364.951,163.352 364.951,364.949 v 0 0 c 0,19.629 -1.55,38.879 -4.54,57.664 110.21,62.825 184.54,181.414 184.54,317.368 v 0 0 c 0,201.6 -163.44,364.95 -364.951,364.95 -65.461,0 -126.906,-17.24 -180.031,-47.4 -53.113,30.16 -114.535,47.4 -179.969,47.4 C 343.441,1254.97 180,1091.62 180,890.02 180,754.078 254.316,635.492 364.539,572.668"
         style="fill:#ffffff;fill-opacity:1;fill-rule:nonzero;stroke:none"
         id="path20" /><path
         d="m 366.359,583.156 c -26.515,15.477 -50.847,34.282 -72.418,55.856 -64.171,64.258 -103.953,152.91 -103.953,251.008 0,98.011 39.782,186.75 103.953,251.01 64.258,64.26 153,103.95 251.098,103.95 61.594,0 119.516,-15.68 170.008,-43.27 C 610.07,1137.63 540,1022.02 540,890.02 c 0,-19.625 1.555,-38.887 4.539,-57.676 C 453.203,780.281 386.527,689.945 366.359,583.156"
         style="fill:#ffffff;fill-opacity:1;fill-rule:nonzero;stroke:none"
         id="path22" /><path
         d="M 364.539,572.668 C 254.316,635.492 180,754.078 180,890.02 c 0,201.6 163.441,364.95 365.039,364.95 65.434,0 126.856,-17.24 179.969,-47.4 -3.356,-1.9 -6.672,-3.85 -9.961,-5.86 -50.492,27.59 -108.414,43.27 -170.008,43.27 -98.098,0 -186.84,-39.69 -251.098,-103.95 -64.171,-64.26 -103.953,-152.999 -103.953,-251.01 0,-98.098 39.782,-186.75 103.953,-251.008 21.571,-21.574 45.903,-40.379 72.418,-55.856 -0.656,-3.472 -1.265,-6.98 -1.82,-10.488"
         style="fill:#231f20;fill-opacity:1;fill-rule:nonzero;stroke:none"
         id="path24" /><path
         d="m 725.039,160.031 c -98.098,0 -186.84,39.688 -251.098,103.949 -64.171,64.258 -103.953,153 -103.953,251.008 0,17.864 1.325,35.399 3.871,52.543 51.051,-27.152 109.325,-42.551 171.18,-42.551 65.434,0 126.856,17.247 179.969,47.418 53.125,-30.171 114.57,-47.418 180.031,-47.418 61.828,0 120.061,15.387 171.101,42.543 2.54,-17.14 3.86,-34.679 3.86,-52.535 0,-98.008 -39.69,-186.75 -103.949,-251.008 -64.262,-64.261 -153,-103.949 -251.012,-103.949"
         style="fill:#ffffff;fill-opacity:1;fill-rule:nonzero;stroke:none"
         id="path26" /><path
         d="m 545.039,534.969 c -61.394,0 -119.125,15.582 -169.48,42.996 13.035,72.808 48.273,137.855 98.382,188.035 21.571,21.57 45.899,40.379 72.418,55.852 C 565.82,718.809 628.578,631.086 715.016,578.285 664.531,550.68 606.613,534.969 545.039,534.969"
         style="fill:#ffffff;fill-opacity:1;fill-rule:nonzero;stroke:none"
         id="path28" /><path
         d="m 545.039,524.98 c -61.855,0 -120.129,15.399 -171.18,42.551 0.516,3.489 1.082,6.981 1.7,10.434 50.355,-27.414 108.086,-42.996 169.48,-42.996 61.574,0 119.492,15.711 169.977,43.316 3.297,-2.015 6.629,-3.972 9.992,-5.887 C 671.895,542.227 610.473,524.98 545.039,524.98"
         style="fill:#231f20;fill-opacity:1;fill-rule:nonzero;stroke:none"
         id="path30" /><path
         d="M 725.039,150.039 C 523.441,150.039 360,313.391 360,514.988 c 0,19.629 1.555,38.891 4.539,57.68 0.555,3.508 1.164,7.016 1.82,10.488 20.168,106.789 86.844,197.125 178.18,249.188 0.555,-3.508 1.164,-7.016 1.82,-10.492 C 519.84,806.379 495.512,787.57 473.941,766 423.832,715.82 388.594,650.773 375.559,577.965 c -0.618,-3.453 -1.184,-6.945 -1.7,-10.434 -2.546,-17.144 -3.871,-34.679 -3.871,-52.543 0,-98.008 39.782,-186.75 103.953,-251.008 64.258,-64.261 153,-103.949 251.098,-103.949 98.012,0 186.75,39.688 251.012,103.949 64.259,64.258 103.949,153 103.949,251.008 0,17.856 -1.32,35.395 -3.86,52.535 3.13,1.661 6.24,3.379 9.31,5.129 2.99,-18.785 4.54,-38.035 4.54,-57.664 v 0 0 0 c 0,-201.597 -163.439,-364.949 -364.951,-364.949 m 364.951,364.949 v 0 0"
         style="fill:#231f20;fill-opacity:1;fill-rule:nonzero;stroke:none"
         id="path32" /><path
         d="m 1083.63,583.156 c -20.17,106.797 -86.849,197.145 -178.177,249.203 2.985,18.786 4.535,38.036 4.535,57.661 v 0 0 c 0,132 -70.078,247.61 -175.031,311.69 50.5,27.59 108.441,43.27 170.082,43.27 98.011,0 186.751,-39.69 251.011,-103.95 64.26,-64.26 103.95,-152.999 103.95,-251.01 0,-98.098 -39.69,-186.75 -103.95,-251.008 -21.57,-21.574 -45.91,-40.379 -72.42,-55.856"
         style="fill:#ffffff;fill-opacity:1;fill-rule:nonzero;stroke:none"
         id="path34" /><path
         d="m 553.859,837.477 c -2.546,17.144 -3.871,34.683 -3.871,52.543 0,98.011 39.782,186.75 103.953,251.01 21.204,21.2 45.067,39.73 71.055,55.04 25.988,-15.31 49.852,-33.84 71.055,-55.04 C 860.309,1076.77 900,988.031 900,890.02 c 0,-17.856 -1.32,-35.391 -3.859,-52.532 -51.039,27.157 -109.274,42.543 -171.102,42.543 -61.855,0 -120.129,-15.398 -171.18,-42.554"
         style="fill:#ffffff;fill-opacity:1;fill-rule:nonzero;stroke:none"
         id="path36" /><path
         d="m 905.453,832.359 c -3.07,1.75 -6.183,3.465 -9.312,5.129 2.539,17.141 3.859,34.676 3.859,52.532 0,98.011 -39.691,186.75 -103.949,251.01 -21.203,21.2 -45.067,39.73 -71.055,55.04 3.285,1.93 6.609,3.82 9.961,5.64 104.953,-64.08 175.031,-179.69 175.031,-311.69 v 0 0 0 c 0,-19.625 -1.55,-38.875 -4.535,-57.661 m 4.535,57.661 v 0 0"
         style="fill:#231f20;fill-opacity:1;fill-rule:nonzero;stroke:none"
         id="path38" /><path
         d="m 905.039,534.969 c -61.629,0 -119.559,15.703 -170.051,43.308 86.418,52.805 149.184,140.536 168.645,243.578 26.512,-15.476 50.844,-34.285 72.418,-55.855 50.179,-50.176 85.369,-115.23 98.389,-188.031 -50.35,-27.414 -108.061,-43 -169.401,-43"
         style="fill:#ffffff;fill-opacity:1;fill-rule:nonzero;stroke:none"
         id="path40" /><path
         d="m 724.996,583.953 c -25.988,15.324 -49.851,33.856 -71.055,55.059 -50.109,50.179 -85.347,115.222 -98.382,188.035 50.359,27.414 108.086,42.992 169.48,42.992 61.34,0 119.051,-15.582 169.402,-42.996 -13.019,-72.805 -48.214,-137.855 -98.39,-188.031 -21.203,-21.203 -45.067,-39.735 -71.055,-55.059"
         style="fill:#ffffff;fill-opacity:1;fill-rule:nonzero;stroke:none"
         id="path42" /><path
         d="m 734.988,578.277 c -3.359,1.84 -6.699,3.735 -9.992,5.676 25.988,15.324 49.852,33.856 71.055,55.059 50.176,50.176 85.371,115.226 98.39,188.031 3.09,-1.684 6.153,-3.414 9.192,-5.188 C 884.172,718.813 821.406,631.082 734.988,578.277"
         style="fill:#231f20;fill-opacity:1;fill-rule:nonzero;stroke:none"
         id="path44" /><path
         d="m 1074.44,577.969 c -13.02,72.801 -48.21,137.855 -98.389,188.031 -21.574,21.57 -45.906,40.379 -72.418,55.855 -3.039,1.774 -6.102,3.504 -9.192,5.188 -50.351,27.414 -108.062,42.996 -169.402,42.996 -61.394,0 -119.121,-15.578 -169.48,-42.992 -0.618,3.453 -1.184,6.941 -1.7,10.43 51.051,27.156 109.325,42.554 171.18,42.554 61.828,0 120.063,-15.386 171.102,-42.543 3.129,-1.664 6.242,-3.379 9.312,-5.129 91.328,-52.058 158.007,-142.406 178.177,-249.203 -3.04,-1.773 -6.1,-3.504 -9.19,-5.187"
         style="fill:#231f20;fill-opacity:1;fill-rule:nonzero;stroke:none"
         id="path46" /><path
         d="m 905.039,524.98 c -65.461,0 -126.906,17.247 -180.031,47.418 -3.363,1.915 -6.695,3.872 -9.992,5.887 -86.438,52.801 -149.196,140.524 -168.657,243.567 -0.656,3.476 -1.265,6.984 -1.82,10.492 -2.984,18.789 -4.539,38.051 -4.539,57.676 0,132 70.07,247.61 175.047,311.69 3.289,2.01 6.605,3.96 9.961,5.86 53.125,30.16 114.57,47.4 180.031,47.4 201.511,0 364.951,-163.35 364.951,-364.95 v 0 0 0 c 0,-135.954 -74.33,-254.543 -184.54,-317.368 -3.07,-1.75 -6.18,-3.468 -9.31,-5.129 C 1025.1,540.367 966.867,524.98 905.039,524.98 m -170.051,53.297 c 50.492,-27.605 108.422,-43.308 170.051,-43.308 61.34,0 119.051,15.586 169.401,43 3.09,1.683 6.15,3.414 9.19,5.187 26.51,15.477 50.85,34.282 72.42,55.856 64.26,64.258 103.95,152.91 103.95,251.008 0,98.011 -39.69,186.75 -103.95,251.01 -64.26,64.26 -153,103.95 -251.011,103.95 -61.641,0 -119.582,-15.68 -170.082,-43.27 -3.352,-1.82 -6.676,-3.71 -9.961,-5.64 -25.988,-15.31 -49.851,-33.84 -71.055,-55.04 -64.171,-64.26 -103.953,-152.999 -103.953,-251.01 0,-17.86 1.325,-35.399 3.871,-52.543 0.516,-3.489 1.082,-6.977 1.7,-10.43 13.035,-72.813 48.273,-137.856 98.382,-188.035 21.204,-21.203 45.067,-39.735 71.055,-55.059 3.293,-1.941 6.633,-3.836 9.992,-5.676 M 1269.99,890.02 v 0 0"
         style="fill:#231f20;fill-opacity:1;fill-rule:nonzero;stroke:none"
         id="path48" /><path
         d="m 1445,5 v 5 H 10 V 1440 H 1440 V 5 h 5 v 5 -5 h 5 V 1450 H 0 V 0 h 1450 v 5 h -5"
         style="fill:#231f20;fill-opacity:1;fill-rule:nonzero;stroke:none"
         id="path50" /><g
         id="g52"
         transform="scale(10)"><text
           transform="matrix(1,0,0,-1,37,107)"
           style="font-style:italic;font-variant:normal;font-size:11px;font-family:'Times New Roman';-inkscape-font-specification:TimesNewRomanPS-ItalicMT;writing-mode:lr-tb;fill:#231f20;fill-opacity:1;fill-rule:nonzero;stroke:none"
           id="text62"><tspan
             x="0"
             y="0"
             id="tspan54">A</tspan><tspan
             x="63"
             y="-0.5"
             id="tspan56">B</tspan><tspan
             x="30.5"
             y="70"
             id="tspan58">C</tspan><tspan
             x="-26.5"
             y="-24.5"
             id="tspan60">U</tspan></text><text
           transform="matrix(1,0,0,-1,34.0004,84.5)"
           style="font-variant:normal;font-weight:normal;font-size:11px;font-family:'Times New Roman';-inkscape-font-specification:TimesNewRomanPSMT;writing-mode:lr-tb;fill:#231f20;fill-opacity:1;fill-rule:nonzero;stroke:none"
           id="text80"><tspan
             x="0"
             y="0"
             id="tspan64">1</tspan><tspan
             x="35"
             y="-14.4996"
             id="tspan66">2</tspan><tspan
             x="72.5"
             y="0"
             id="tspan68">3</tspan><tspan
             x="12.5"
             y="24"
             id="tspan70">4</tspan><tspan
             x="35"
             y="13.5012"
             id="tspan72">5</tspan><tspan
             x="58.5"
             y="23.500031"
             id="tspan74">6</tspan><tspan
             x="38"
             y="63.000031"
             id="tspan76">7</tspan><tspan
             x="-20"
             y="-31.499969"
             id="tspan78">8</tspan></text></g></g></g></svg>
