<?xml version="1.0" encoding="UTF-8" standalone="no"?>
<svg
   xmlns:dc="http://purl.org/dc/elements/1.1/"
   xmlns:cc="http://creativecommons.org/ns#"
   xmlns:rdf="http://www.w3.org/1999/02/22-rdf-syntax-ns#"
   xmlns:svg="http://www.w3.org/2000/svg"
   xmlns="http://www.w3.org/2000/svg"
   xmlns:sodipodi="http://sodipodi.sourceforge.net/DTD/sodipodi-0.dtd"
   xmlns:inkscape="http://www.inkscape.org/namespaces/inkscape"
   version="1.1"
   id="svg2"
   xml:space="preserve"
   width="362.32001"
   height="169.02667"
   viewBox="0 0 362.32001 169.02667"
   sodipodi:docname="figps-arrow63-1new.eps"><metadata
     id="metadata8"><rdf:RDF><cc:Work
         rdf:about=""><dc:format>image/svg+xml</dc:format><dc:type
           rdf:resource="http://purl.org/dc/dcmitype/StillImage" /></cc:Work></rdf:RDF></metadata><defs
     id="defs6" /><sodipodi:namedview
     pagecolor="#ffffff"
     bordercolor="#666666"
     borderopacity="1"
     objecttolerance="10"
     gridtolerance="10"
     guidetolerance="10"
     inkscape:pageopacity="0"
     inkscape:pageshadow="2"
     inkscape:window-width="640"
     inkscape:window-height="480"
     id="namedview4" /><g
     id="g10"
     inkscape:groupmode="layer"
     inkscape:label="ink_ext_XXXXXX"
     transform="matrix(1.3333333,0,0,-1.3333333,0,169.02667)"><g
       id="g12"
       transform="scale(0.1)"><path
         d="m 161.391,1025.21 c 1.097,0 1.992,-0.89 1.992,-1.99 0,-1.09 -0.895,-1.99 -1.992,-1.99 -86.7738,0 -157.40662,-70.632 -157.40662,-157.406 0,-1.097 -0.89844,-1.992 -1.99219,-1.992 C 0.898438,861.832 0,862.727 0,863.824 0,952.789 72.4258,1025.21 161.391,1025.21"
         style="fill:#231f20;fill-opacity:1;fill-rule:nonzero;stroke:none"
         id="path14" /><path
         d="m 0.175781,163.199 h 4.05469 v 701.734 h -4.05469 z"
         style="fill:#231f20;fill-opacity:1;fill-rule:nonzero;stroke:none"
         id="path16" /><path
         d="m 0,162.121 c 0,1.09 0.898438,1.988 1.99219,1.988 1.09375,0 1.99219,-0.898 1.99219,-1.988 0,-86.7812 70.63282,-157.41006 157.40662,-157.41006 1.097,0 1.992,-0.90235 1.992,-2 0,-1.08985 -0.895,-1.99219 -1.992,-1.99219 C 72.4258,0.71875 0,73.1484 0,162.121"
         style="fill:#231f20;fill-opacity:1;fill-rule:nonzero;stroke:none"
         id="path18" /><path
         d="m 180.797,1023.22 c 0,1.1 0.891,1.99 1.992,1.99 88.965,0 161.391,-72.421 161.391,-161.386 0,-1.097 -0.899,-1.992 -1.992,-1.992 -1.094,0 -1.993,0.895 -1.993,1.992 0,86.774 -70.632,157.406 -157.406,157.406 -1.101,0 -1.992,0.9 -1.992,1.99"
         style="fill:#231f20;fill-opacity:1;fill-rule:nonzero;stroke:none"
         id="path20" /><path
         d="m 340.977,163.199 h 4.05078 V 864.933 H 340.977 Z"
         style="fill:#231f20;fill-opacity:1;fill-rule:nonzero;stroke:none"
         id="path22" /><path
         d="m 342.188,164.109 c 1.093,0 1.992,-0.898 1.992,-1.988 0,-88.9726 -72.426,-161.40225 -161.391,-161.40225 -1.101,0 -1.992,0.90234 -1.992,1.99219 0,1.09765 0.891,2 1.992,2 86.774,0 157.406,70.62886 157.406,157.41006 0,1.09 0.899,1.988 1.993,1.988"
         style="fill:#231f20;fill-opacity:1;fill-rule:nonzero;stroke:none"
         id="path24" /><path
         d="m 160.977,0 h 21.418 v 4.05078 h -21.418 z"
         style="fill:#231f20;fill-opacity:1;fill-rule:nonzero;stroke:none"
         id="path26" /><path
         d="m 160.977,1022.4 h 21.418 v 4.043 h -21.418 z"
         style="fill:#231f20;fill-opacity:1;fill-rule:nonzero;stroke:none"
         id="path28" /><path
         d="m 841.695,855.117 c 1.094,0 1.993,-0.894 1.993,-1.992 0,-1.094 -0.899,-1.992 -1.993,-1.992 -86.777,0 -157.402,-70.633 -157.402,-157.41 0,-1.094 -0.898,-1.993 -1.992,-1.993 -1.094,0 -1.992,0.899 -1.992,1.993 0,88.968 72.421,161.394 161.386,161.394"
         style="fill:#231f20;fill-opacity:1;fill-rule:nonzero;stroke:none"
         id="path30" /><path
         d="m 679.371,333.605 h 4.0625 v 361.523 h -4.0625 z"
         style="fill:#231f20;fill-opacity:1;fill-rule:nonzero;stroke:none"
         id="path32" /><path
         d="m 680.309,332.219 c 0,1.094 0.898,1.992 1.992,1.992 1.094,0 1.992,-0.898 1.992,-1.992 0,-86.778 70.625,-157.418 157.402,-157.418 1.094,0 1.993,-0.891 1.993,-1.992 0,-1.09 -0.899,-1.989 -1.993,-1.989 -88.965,0 -161.386,72.43 -161.386,161.399"
         style="fill:#231f20;fill-opacity:1;fill-rule:nonzero;stroke:none"
         id="path34" /><path
         d="m 861.109,853.125 c 0,1.098 0.899,1.992 1.993,1.992 88.964,0 161.388,-72.426 161.388,-161.394 0,-1.094 -0.9,-1.993 -1.99,-1.993 -1.1,0 -2,0.899 -2,1.993 0,86.777 -70.621,157.41 -157.398,157.41 -1.094,0 -1.993,0.898 -1.993,1.992"
         style="fill:#231f20;fill-opacity:1;fill-rule:nonzero;stroke:none"
         id="path36" /><path
         d="m 1020.17,333.605 h 4.0391 v 361.523 h -4.0391 z"
         style="fill:#231f20;fill-opacity:1;fill-rule:nonzero;stroke:none"
         id="path38" /><path
         d="m 1022.5,334.211 c 1.09,0 1.99,-0.898 1.99,-1.992 0,-88.969 -72.424,-161.399 -161.388,-161.399 -1.094,0 -1.993,0.899 -1.993,1.989 0,1.101 0.899,1.992 1.993,1.992 86.777,0 157.398,70.64 157.398,157.418 0,1.094 0.9,1.992 2,1.992"
         style="fill:#231f20;fill-opacity:1;fill-rule:nonzero;stroke:none"
         id="path40" /><path
         d="m 842.574,170.398 h 21.4258 v 4.05078 H 842.574 Z"
         style="fill:#231f20;fill-opacity:1;fill-rule:nonzero;stroke:none"
         id="path42" /><path
         d="m 842.574,852.004 h 21.4258 v 4.04297 H 842.574 Z"
         style="fill:#231f20;fill-opacity:1;fill-rule:nonzero;stroke:none"
         id="path44" /><path
         d="m 172.617,153.422 c -10.957,0 -19.926,8.957 -19.926,19.918 0,10.961 8.969,19.922 19.926,19.922 10.957,0 19.926,-8.961 19.926,-19.922 0,-10.961 -8.969,-19.918 -19.926,-19.918"
         style="fill:#231f20;fill-opacity:1;fill-rule:nonzero;stroke:none"
         id="path46" /><path
         d="m 172.617,493.523 c -10.957,0 -19.926,8.965 -19.926,19.922 0,10.957 8.969,19.926 19.926,19.926 10.957,0 19.926,-8.969 19.926,-19.926 0,-10.957 -8.969,-19.922 -19.926,-19.922"
         style="fill:#231f20;fill-opacity:1;fill-rule:nonzero;stroke:none"
         id="path48" /><path
         d="m 172.617,833.727 c -10.957,0 -19.926,8.968 -19.926,19.925 0,10.957 8.969,19.926 19.926,19.926 10.957,0 19.926,-8.969 19.926,-19.926 0,-10.957 -8.969,-19.925 -19.926,-19.925"
         style="fill:#231f20;fill-opacity:1;fill-rule:nonzero;stroke:none"
         id="path50" /><path
         d="m 852.926,323.43 c -10.957,0 -19.934,8.965 -19.934,19.922 0,10.957 8.977,19.921 19.934,19.921 10.957,0 19.922,-8.964 19.922,-19.921 0,-10.957 -8.965,-19.922 -19.922,-19.922"
         style="fill:#231f20;fill-opacity:1;fill-rule:nonzero;stroke:none"
         id="path52" /><path
         d="m 852.926,663.625 c -10.957,0 -19.934,8.965 -19.934,19.922 0,10.957 8.977,19.922 19.934,19.922 10.957,0 19.922,-8.965 19.922,-19.922 0,-10.957 -8.965,-19.922 -19.922,-19.922"
         style="fill:#231f20;fill-opacity:1;fill-rule:nonzero;stroke:none"
         id="path54" /><g
         id="g56"
         transform="scale(10)"><text
           transform="matrix(1,0,0,-1,7.75703,15.6332)"
           style="font-variant:normal;font-weight:normal;font-size:10.9091px;font-family:'Times New Roman';-inkscape-font-specification:TimesNewRomanPSMT;writing-mode:lr-tb;fill:#231f20;fill-opacity:1;fill-rule:nonzero;stroke:none"
           id="text60"><tspan
             x="0"
             y="0"
             id="tspan58">3</tspan></text><text
           transform="matrix(1,0,0,-1,7.75703,49.6437)"
           style="font-style:italic;font-variant:normal;font-size:10.9091px;font-family:'Times New Roman';-inkscape-font-specification:TimesNewRomanPS-ItalicMT;writing-mode:lr-tb;fill:#231f20;fill-opacity:1;fill-rule:nonzero;stroke:none"
           id="text64"><tspan
             x="0"
             y="0"
             id="tspan62">2</tspan></text><text
           transform="matrix(1,0,0,-1,7.75703,83.664)"
           style="font-variant:normal;font-weight:normal;font-size:10.9091px;font-family:'Times New Roman';-inkscape-font-specification:TimesNewRomanPSMT;writing-mode:lr-tb;fill:#231f20;fill-opacity:1;fill-rule:nonzero;stroke:none"
           id="text68"><tspan
             x="0"
             y="0"
             id="tspan66">1</tspan></text><text
           transform="matrix(1,0,0,-1,89.54063,32.6339)"
           style="font-style:italic;font-variant:normal;font-size:10.9091px;font-family:'Times New Roman';-inkscape-font-specification:TimesNewRomanPS-ItalicMT;writing-mode:lr-tb;fill:#231f20;fill-opacity:1;fill-rule:nonzero;stroke:none"
           id="text76"><tspan
             x="0"
             y="0"
             id="tspan70">b</tspan><tspan
             x="0"
             y="-34.020302"
             id="tspan72">a</tspan><tspan
             x="-4.2480502"
             y="-73.989098"
             id="tspan74">B</tspan></text></g><path
         d="m 256.973,1089.6 h 595.348 v 4.0508 H 256.973 Z"
         style="fill:#231f20;fill-opacity:1;fill-rule:nonzero;stroke:none"
         id="path78" /><path
         d="m 852.711,1091.6 c -13.848,-2.99 -27.09,-7.97 -39.648,-14.84 v 29.88 c 12.558,-6.87 25.8,-11.85 39.648,-14.84 v -0.2"
         style="fill:#231f20;fill-opacity:1;fill-rule:nonzero;stroke:none"
         id="path80" /><path
         d="m 215.496,171.449 c -0.101,0 -0.301,0 -0.398,0 -1.094,0 -1.895,0.801 -1.895,1.891 0,0.898 0.602,1.691 1.492,1.89 l 99.528,24.911 c 0.101,0 0.297,0.089 0.5,0.089 1.097,0 1.992,-0.878 1.992,-1.992 0,-0.988 -0.695,-1.777 -1.594,-1.988 l -99.625,-24.801"
         style="fill:#231f20;fill-opacity:1;fill-rule:nonzero;stroke:none"
         id="path82" /><path
         d="m 315.129,196.289 c -0.106,0 -0.305,0 -0.402,0 -1.094,0 -1.895,0.801 -1.895,1.891 0,0.902 0.602,1.691 1.492,1.902 l 99.528,24.898 c 0.101,0 0.296,0.102 0.5,0.102 1.097,0 1.992,-0.891 1.992,-1.992 0,-1 -0.696,-1.789 -1.594,-2 l -99.621,-24.801"
         style="fill:#231f20;fill-opacity:1;fill-rule:nonzero;stroke:none"
         id="path84" /><path
         d="m 414.758,221.211 c -0.106,0 -0.305,0 -0.403,0 -1.093,0 -1.894,0.801 -1.894,1.898 0,0.891 0.602,1.68 1.492,1.891 l 99.527,24.898 c 0.11,0 0.305,0.102 0.5,0.102 1.094,0 1.993,-0.891 1.993,-1.988 0,-1 -0.696,-1.793 -1.594,-1.992 l -99.621,-24.809"
         style="fill:#231f20;fill-opacity:1;fill-rule:nonzero;stroke:none"
         id="path86" /><path
         d="m 514.391,246.141 c -0.11,0 -0.313,0 -0.411,0 -1.093,0 -1.894,0.8 -1.894,1.898 0,0.902 0.605,1.691 1.504,1.891 l 99.519,24.906 c 0.11,0 0.305,0.098 0.5,0.098 1.094,0 1.993,-0.891 1.993,-1.996 0,-0.997 -0.696,-1.786 -1.594,-1.993 l -99.617,-24.804"
         style="fill:#231f20;fill-opacity:1;fill-rule:nonzero;stroke:none"
         id="path88" /><path
         d="m 614.02,271.074 c -0.11,0 -0.313,0 -0.411,0 -1.093,0 -1.894,0.801 -1.894,1.895 0,0.898 0.605,1.687 1.504,1.894 l 99.519,24.903 c 0.11,0 0.305,0.097 0.5,0.097 1.094,0 1.992,-0.886 1.992,-1.992 0,-0.996 -0.695,-1.785 -1.593,-1.992 L 614.02,271.074"
         style="fill:#231f20;fill-opacity:1;fill-rule:nonzero;stroke:none"
         id="path90" /><path
         d="m 713.648,295.918 c -0.109,0 -0.312,0 -0.41,0 -1.093,0 -1.894,0.801 -1.894,1.895 0,0.898 0.605,1.691 1.504,1.894 l 99.519,24.902 c 0.11,0 0.305,0.098 0.5,0.098 1.094,0 1.992,-0.891 1.992,-1.992 0,-0.996 -0.695,-1.785 -1.593,-1.992 l -99.618,-24.805"
         style="fill:#231f20;fill-opacity:1;fill-rule:nonzero;stroke:none"
         id="path92" /><path
         d="m 719.684,297.441 c -0.11,0 -0.313,0 -0.411,0 -1.093,0 -1.894,0.801 -1.894,1.895 0,0.898 0.605,1.687 1.504,1.894 l 99.519,24.903 c 0.11,0 0.305,0.097 0.5,0.097 1.094,0 1.993,-0.886 1.993,-1.992 0,-0.996 -0.696,-1.789 -1.594,-1.992 l -99.617,-24.805"
         style="fill:#231f20;fill-opacity:1;fill-rule:nonzero;stroke:none"
         id="path94" /><path
         d="m 818.688,324.141 c -12.649,-6.375 -24.297,-14.446 -34.864,-24.114 l -7.265,28.996 c 13.847,-3.585 27.988,-5.175 42.129,-4.785 v -0.097"
         style="fill:#231f20;fill-opacity:1;fill-rule:nonzero;stroke:none"
         id="path96" /><path
         d="m 215.496,511.555 c -0.101,0 -0.301,0 -0.398,0 -1.094,0 -1.895,0.8 -1.895,1.89 0,0.903 0.602,1.692 1.492,1.899 l 99.528,24.902 c 0.101,0 0.297,0.098 0.5,0.098 1.097,0 1.992,-0.891 1.992,-1.992 0,-0.997 -0.695,-1.789 -1.594,-1.997 l -99.625,-24.8"
         style="fill:#231f20;fill-opacity:1;fill-rule:nonzero;stroke:none"
         id="path98" /><path
         d="m 315.129,536.484 c -0.106,0 -0.305,0 -0.402,0 -1.094,0 -1.895,0.801 -1.895,1.895 0,0.898 0.602,1.687 1.492,1.894 l 99.528,24.903 c 0.101,0 0.296,0.097 0.5,0.097 1.097,0 1.992,-0.886 1.992,-1.992 0,-0.996 -0.696,-1.785 -1.594,-1.992 l -99.621,-24.805"
         style="fill:#231f20;fill-opacity:1;fill-rule:nonzero;stroke:none"
         id="path100" /><path
         d="m 414.758,561.418 c -0.106,0 -0.305,0 -0.403,0 -1.093,0 -1.894,0.801 -1.894,1.895 0,0.898 0.602,1.687 1.492,1.894 l 99.527,24.898 c 0.11,0 0.305,0.102 0.5,0.102 1.094,0 1.993,-0.891 1.993,-1.992 0,-0.996 -0.696,-1.789 -1.594,-1.992 l -99.621,-24.805"
         style="fill:#231f20;fill-opacity:1;fill-rule:nonzero;stroke:none"
         id="path102" /><path
         d="m 514.391,586.262 c -0.11,0 -0.313,0 -0.411,0 -1.093,0 -1.894,0.801 -1.894,1.89 0,0.903 0.605,1.692 1.504,1.899 l 99.519,24.898 c 0.11,0 0.305,0.102 0.5,0.102 1.094,0 1.993,-0.891 1.993,-1.992 0,-0.996 -0.696,-1.789 -1.594,-1.996 l -99.617,-24.801"
         style="fill:#231f20;fill-opacity:1;fill-rule:nonzero;stroke:none"
         id="path104" /><path
         d="m 614.02,611.184 c -0.11,0 -0.313,0 -0.411,0 -1.093,0 -1.894,0.796 -1.894,1.89 0,0.903 0.605,1.692 1.504,1.899 l 99.519,24.902 c 0.11,0 0.305,0.098 0.5,0.098 1.094,0 1.992,-0.891 1.992,-1.993 0,-1 -0.695,-1.789 -1.593,-1.996 l -99.617,-24.8"
         style="fill:#231f20;fill-opacity:1;fill-rule:nonzero;stroke:none"
         id="path106" /><path
         d="m 713.648,636.113 c -0.109,0 -0.312,0 -0.41,0 -1.093,0 -1.894,0.801 -1.894,1.895 0,0.898 0.605,1.687 1.504,1.894 l 99.519,24.903 c 0.11,0 0.305,0.097 0.5,0.097 1.094,0 1.992,-0.886 1.992,-1.992 0,-0.996 -0.695,-1.785 -1.593,-1.992 l -99.618,-24.805"
         style="fill:#231f20;fill-opacity:1;fill-rule:nonzero;stroke:none"
         id="path108" /><path
         d="m 719.684,637.559 c -0.11,0 -0.313,0 -0.411,0 -1.093,0 -1.894,0.8 -1.894,1.894 0,0.899 0.605,1.692 1.504,1.895 l 99.519,24.902 c 0.11,0 0.305,0.098 0.5,0.098 1.094,0 1.993,-0.887 1.993,-1.993 0,-0.996 -0.696,-1.789 -1.594,-1.992 l -99.617,-24.804"
         style="fill:#231f20;fill-opacity:1;fill-rule:nonzero;stroke:none"
         id="path110" /><path
         d="m 818.688,664.258 c -12.649,-6.375 -24.297,-14.445 -34.864,-24.11 l -7.265,28.993 c 13.847,-3.582 27.988,-5.176 42.129,-4.786 v -0.097"
         style="fill:#231f20;fill-opacity:1;fill-rule:nonzero;stroke:none"
         id="path112" /><path
         d="m 315.121,830.613 c 0.899,-0.199 1.594,-0.996 1.594,-1.89 0,-1.094 -0.895,-1.899 -1.992,-1.899 -0.203,0 -0.399,0 -0.5,0 l -99.528,24.813 c -0.89,0.199 -1.492,0.996 -1.492,1.992 0,1.094 0.801,1.992 1.895,1.992 0.097,0 0.297,-0.101 0.398,-0.101 l 99.625,-24.907"
         style="fill:#231f20;fill-opacity:1;fill-rule:nonzero;stroke:none"
         id="path114" /><path
         d="m 414.75,805.684 c 0.898,-0.2 1.594,-0.996 1.594,-1.895 0,-1.094 -0.895,-1.894 -1.992,-1.894 -0.204,0 -0.399,0 -0.5,0 l -99.528,24.808 c -0.89,0.199 -1.492,0.996 -1.492,1.992 0,1.094 0.801,1.993 1.895,1.993 0.097,0 0.296,-0.102 0.402,-0.102 l 99.621,-24.902"
         style="fill:#231f20;fill-opacity:1;fill-rule:nonzero;stroke:none"
         id="path116" /><path
         d="m 514.379,780.754 c 0.898,-0.203 1.594,-0.996 1.594,-1.899 0,-1.089 -0.899,-1.89 -1.993,-1.89 -0.195,0 -0.39,0 -0.5,0 l -99.527,24.808 c -0.89,0.2 -1.492,0.997 -1.492,1.993 0,1.093 0.801,1.992 1.894,1.992 0.098,0 0.297,-0.106 0.403,-0.106 l 99.621,-24.898"
         style="fill:#231f20;fill-opacity:1;fill-rule:nonzero;stroke:none"
         id="path118" /><path
         d="m 614.008,755.918 c 0.898,-0.199 1.594,-0.996 1.594,-1.895 0,-1.093 -0.899,-1.894 -1.993,-1.894 -0.195,0 -0.39,0 -0.5,0 l -99.519,24.809 c -0.899,0.203 -1.504,0.996 -1.504,1.992 0,1.093 0.801,1.992 1.894,1.992 0.098,0 0.301,-0.102 0.411,-0.102 l 99.617,-24.902"
         style="fill:#231f20;fill-opacity:1;fill-rule:nonzero;stroke:none"
         id="path120" /><path
         d="m 713.637,730.984 c 0.898,-0.203 1.593,-0.996 1.593,-1.89 0,-1.094 -0.898,-1.899 -1.992,-1.899 -0.195,0 -0.39,0 -0.5,0 l -99.519,24.809 c -0.899,0.203 -1.504,1 -1.504,1.996 0,1.094 0.801,1.992 1.894,1.992 0.098,0 0.301,-0.101 0.411,-0.101 l 99.617,-24.907"
         style="fill:#231f20;fill-opacity:1;fill-rule:nonzero;stroke:none"
         id="path122" /><path
         d="m 813.266,706.055 c 0.898,-0.203 1.593,-0.996 1.593,-1.895 0,-1.094 -0.898,-1.894 -1.992,-1.894 -0.195,0 -0.39,0 -0.5,0 l -99.519,24.804 c -0.899,0.203 -1.504,0.996 -1.504,1.993 0,1.105 0.801,1.992 1.894,1.992 0.098,0 0.301,-0.098 0.41,-0.098 l 99.618,-24.902"
         style="fill:#231f20;fill-opacity:1;fill-rule:nonzero;stroke:none"
         id="path124" /><path
         d="m 819.301,704.609 c 0.898,-0.207 1.594,-0.996 1.594,-1.894 0,-1.094 -0.899,-1.895 -1.993,-1.895 -0.195,0 -0.39,0 -0.5,0 l -99.519,24.805 c -0.899,0.207 -1.504,0.996 -1.504,1.992 0,1.106 0.801,1.992 1.894,1.992 0.098,0 0.301,-0.097 0.411,-0.097 l 99.617,-24.903"
         style="fill:#231f20;fill-opacity:1;fill-rule:nonzero;stroke:none"
         id="path126" /><path
         d="m 818.688,702.715 c -14.141,0.305 -28.282,-1.192 -42.129,-4.785 l 7.265,28.894 c 10.567,-9.668 22.215,-17.73 34.864,-24.011 v -0.098"
         style="fill:#231f20;fill-opacity:1;fill-rule:nonzero;stroke:none"
         id="path128" /><path
         d="m 1854.32,1056.29 c 1.1,0 1.99,-0.89 1.99,-1.99 0,-1.09 -0.89,-1.99 -1.99,-1.99 -86.78,0 -157.41,-70.634 -157.41,-157.408 0,-1.097 -0.9,-1.992 -1.99,-1.992 -1.1,0 -2,0.895 -2,1.992 0,88.965 72.43,161.388 161.4,161.388"
         style="fill:#231f20;fill-opacity:1;fill-rule:nonzero;stroke:none"
         id="path130" /><path
         d="m 1693.1,194.281 h 4.0469 v 701.73 H 1693.1 Z"
         style="fill:#231f20;fill-opacity:1;fill-rule:nonzero;stroke:none"
         id="path132" /><path
         d="m 1692.92,193.199 c 0,1.102 0.9,2 2,2 1.09,0 1.99,-0.898 1.99,-2 0,-86.769 70.63,-157.4177 157.41,-157.4177 1.1,0 1.99,-0.9024 1.99,-1.9922 0,-1.0899 -0.89,-1.9883 -1.99,-1.9883 -88.97,0 -161.4,72.4372 -161.4,161.3982"
         style="fill:#231f20;fill-opacity:1;fill-rule:nonzero;stroke:none"
         id="path134" /><path
         d="m 1873.72,1054.3 c 0,1.1 0.89,1.99 1.99,1.99 88.96,0 161.39,-72.423 161.39,-161.388 0,-1.097 -0.89,-1.992 -1.99,-1.992 -1.09,0 -1.99,0.895 -1.99,1.992 0,86.774 -70.63,157.408 -157.41,157.408 -1.1,0 -1.99,0.9 -1.99,1.99"
         style="fill:#231f20;fill-opacity:1;fill-rule:nonzero;stroke:none"
         id="path136" /><path
         d="m 2033.9,194.281 h 4.0508 v 701.73 H 2033.9 Z"
         style="fill:#231f20;fill-opacity:1;fill-rule:nonzero;stroke:none"
         id="path138" /><path
         d="m 2035.11,195.199 c 1.1,0 1.99,-0.898 1.99,-2 0,-88.961 -72.43,-161.3982 -161.39,-161.3982 -1.1,0 -1.99,0.8984 -1.99,1.9883 0,1.0898 0.89,1.9922 1.99,1.9922 86.78,0 157.41,70.6487 157.41,157.4177 0,1.102 0.9,2 1.99,2"
         style="fill:#231f20;fill-opacity:1;fill-rule:nonzero;stroke:none"
         id="path140" /><path
         d="m 1853.9,31.0703 h 21.4219 v 4.07031 H 1853.9 Z"
         style="fill:#231f20;fill-opacity:1;fill-rule:nonzero;stroke:none"
         id="path142" /><path
         d="m 1853.9,1053.48 h 21.4219 v 4.043 H 1853.9 Z"
         style="fill:#231f20;fill-opacity:1;fill-rule:nonzero;stroke:none"
         id="path144" /><path
         d="m 2534.62,1056.29 c 1.1,0 2,-0.89 2,-1.99 0,-1.09 -0.9,-1.99 -2,-1.99 -86.77,0 -157.41,-70.634 -157.41,-157.408 0,-1.097 -0.9,-1.992 -1.99,-1.992 -1.09,0 -1.99,0.895 -1.99,1.992 0,88.965 72.43,161.388 161.39,161.388"
         style="fill:#231f20;fill-opacity:1;fill-rule:nonzero;stroke:none"
         id="path146" /><path
         d="m 2372.3,194.281 h 4.0508 v 701.73 H 2372.3 Z"
         style="fill:#231f20;fill-opacity:1;fill-rule:nonzero;stroke:none"
         id="path148" /><path
         d="m 2373.23,193.199 c 0,1.102 0.9,2 1.99,2 1.09,0 1.99,-0.898 1.99,-2 0,-86.769 70.64,-157.4177 157.41,-157.4177 1.1,0 2,-0.9024 2,-1.9922 0,-1.0899 -0.9,-1.9883 -2,-1.9883 -88.96,0 -161.39,72.4372 -161.39,161.3982"
         style="fill:#231f20;fill-opacity:1;fill-rule:nonzero;stroke:none"
         id="path150" /><path
         d="m 2554.04,1054.3 c 0,1.1 0.89,1.99 1.99,1.99 88.97,0 161.39,-72.423 161.39,-161.388 0,-1.097 -0.9,-1.992 -2,-1.992 -1.09,0 -1.99,0.895 -1.99,1.992 0,86.774 -70.63,157.408 -157.4,157.408 -1.1,0 -1.99,0.9 -1.99,1.99"
         style="fill:#231f20;fill-opacity:1;fill-rule:nonzero;stroke:none"
         id="path152" /><path
         d="m 2713.1,194.281 h 4.0391 v 701.73 H 2713.1 Z"
         style="fill:#231f20;fill-opacity:1;fill-rule:nonzero;stroke:none"
         id="path154" /><path
         d="m 2715.42,195.199 c 1.1,0 2,-0.898 2,-2 0,-88.961 -72.42,-161.3982 -161.39,-161.3982 -1.1,0 -1.99,0.8984 -1.99,1.9883 0,1.0898 0.89,1.9922 1.99,1.9922 86.77,0 157.4,70.6487 157.4,157.4177 0,1.102 0.9,2 1.99,2"
         style="fill:#231f20;fill-opacity:1;fill-rule:nonzero;stroke:none"
         id="path156" /><path
         d="m 2535.5,31.0703 h 21.4219 v 4.07031 H 2535.5 Z"
         style="fill:#231f20;fill-opacity:1;fill-rule:nonzero;stroke:none"
         id="path158" /><path
         d="m 2535.5,1053.48 h 21.4219 v 4.043 H 2535.5 Z"
         style="fill:#231f20;fill-opacity:1;fill-rule:nonzero;stroke:none"
         id="path160" /><path
         d="m 1865.54,184.488 c -10.96,0 -19.93,8.973 -19.93,19.922 0,10.961 8.97,19.93 19.93,19.93 10.96,0 19.93,-8.969 19.93,-19.93 0,-10.949 -8.97,-19.922 -19.93,-19.922"
         style="fill:#231f20;fill-opacity:1;fill-rule:nonzero;stroke:none"
         id="path162" /><path
         d="m 1865.54,524.609 c -10.96,0 -19.93,8.965 -19.93,19.922 0,10.957 8.97,19.922 19.93,19.922 10.96,0 19.93,-8.965 19.93,-19.922 0,-10.957 -8.97,-19.922 -19.93,-19.922"
         style="fill:#231f20;fill-opacity:1;fill-rule:nonzero;stroke:none"
         id="path164" /><path
         d="m 1865.54,864.805 c -10.96,0 -19.93,8.968 -19.93,19.925 0,10.958 8.97,19.926 19.93,19.926 10.96,0 19.93,-8.968 19.93,-19.926 0,-10.957 -8.97,-19.925 -19.93,-19.925"
         style="fill:#231f20;fill-opacity:1;fill-rule:nonzero;stroke:none"
         id="path166" /><path
         d="m 2545.84,184.488 c -10.95,0 -19.93,8.973 -19.93,19.922 0,10.961 8.98,19.93 19.93,19.93 10.96,0 19.94,-8.969 19.94,-19.93 0,-10.949 -8.98,-19.922 -19.94,-19.922"
         style="fill:#231f20;fill-opacity:1;fill-rule:nonzero;stroke:none"
         id="path168" /><path
         d="m 2545.84,524.609 c -10.95,0 -19.93,8.965 -19.93,19.922 0,10.957 8.98,19.922 19.93,19.922 10.96,0 19.94,-8.965 19.94,-19.922 0,-10.957 -8.98,-19.922 -19.94,-19.922"
         style="fill:#231f20;fill-opacity:1;fill-rule:nonzero;stroke:none"
         id="path170" /><path
         d="m 2545.84,864.805 c -10.95,0 -19.93,8.968 -19.93,19.925 0,10.958 8.98,19.926 19.93,19.926 10.96,0 19.94,-8.968 19.94,-19.926 0,-10.957 -8.98,-19.925 -19.94,-19.925"
         style="fill:#231f20;fill-opacity:1;fill-rule:nonzero;stroke:none"
         id="path172" /><g
         id="g174"
         transform="scale(10)"><text
           transform="matrix(1,0,0,-1,177.049,18.7398)"
           style="font-variant:normal;font-weight:normal;font-size:10.9091px;font-family:'Times New Roman';-inkscape-font-specification:TimesNewRomanPSMT;writing-mode:lr-tb;fill:#231f20;fill-opacity:1;fill-rule:nonzero;stroke:none"
           id="text178"><tspan
             x="0"
             y="0"
             id="tspan176">3</tspan></text><text
           transform="matrix(1,0,0,-1,177.049,52.7519)"
           style="font-style:italic;font-variant:normal;font-size:10.9091px;font-family:'Times New Roman';-inkscape-font-specification:TimesNewRomanPS-ItalicMT;writing-mode:lr-tb;fill:#231f20;fill-opacity:1;fill-rule:nonzero;stroke:none"
           id="text182"><tspan
             x="0"
             y="0"
             id="tspan180">2</tspan></text><text
           transform="matrix(1,0,0,-1,177.049,86.7718)"
           style="font-variant:normal;font-weight:normal;font-size:10.9091px;font-family:'Times New Roman';-inkscape-font-specification:TimesNewRomanPSMT;writing-mode:lr-tb;fill:#231f20;fill-opacity:1;fill-rule:nonzero;stroke:none"
           id="text186"><tspan
             x="0"
             y="0"
             id="tspan184">1</tspan></text><text
           transform="matrix(1,0,0,-1,258.8334,18.7398)"
           style="font-style:italic;font-variant:normal;font-size:10.9091px;font-family:'Times New Roman';-inkscape-font-specification:TimesNewRomanPS-ItalicMT;writing-mode:lr-tb;fill:#231f20;fill-opacity:1;fill-rule:nonzero;stroke:none"
           id="text196"><tspan
             x="0"
             y="0"
             id="tspan188">c</tspan><tspan
             x="0"
             y="-34.0121"
             id="tspan190">b</tspan><tspan
             x="0"
             y="-68.031998"
             id="tspan192">a</tspan><tspan
             x="-73.980103 -4.2480421"
             y="-90.990997"
             sodipodi:role="line"
             id="tspan194">AB</tspan></text></g><path
         d="m 1949.9,1120.68 h 595.352 v 4.0508 H 1949.9 Z"
         style="fill:#231f20;fill-opacity:1;fill-rule:nonzero;stroke:none"
         id="path198" /><path
         d="m 2545.64,1122.68 c -13.85,-2.99 -27.09,-7.97 -39.65,-14.84 v 29.88 c 12.56,-6.87 25.8,-11.85 39.65,-14.84 v -0.2"
         style="fill:#231f20;fill-opacity:1;fill-rule:nonzero;stroke:none"
         id="path200" /><path
         d="m 1926.43,203.031 c -0.4,-0.301 -0.9,-0.609 -1.4,-0.609 -1.09,0 -1.99,0.898 -1.99,1.988 0,0.512 0.3,1 0.6,1.41 l 99.53,99.61 c 0.39,0.312 0.9,0.605 1.48,0.605 1.11,0 2,-0.898 2,-1.992 0,-0.605 -0.3,-1.094 -0.59,-1.484 l -99.63,-99.528"
         style="fill:#231f20;fill-opacity:1;fill-rule:nonzero;stroke:none"
         id="path202" /><path
         d="m 2026.06,302.656 c -0.4,-0.293 -0.9,-0.605 -1.4,-0.605 -1.09,0 -1.99,0.898 -1.99,1.992 0,0.508 0.3,0.996 0.6,1.406 l 99.52,99.61 c 0.41,0.312 0.9,0.605 1.5,0.605 1.1,0 1.99,-0.898 1.99,-1.992 0,-0.606 -0.3,-1.094 -0.6,-1.484 l -99.62,-99.532"
         style="fill:#231f20;fill-opacity:1;fill-rule:nonzero;stroke:none"
         id="path204" /><path
         d="m 2125.69,402.188 c -0.4,-0.293 -0.9,-0.586 -1.4,-0.586 -1.09,0 -1.99,0.898 -1.99,1.992 0,0.488 0.29,0.996 0.6,1.386 l 99.52,99.629 c 0.41,0.293 0.9,0.606 1.5,0.606 1.09,0 1.99,-0.899 1.99,-1.992 0,-0.606 -0.3,-1.114 -0.6,-1.504 l -99.62,-99.531"
         style="fill:#231f20;fill-opacity:1;fill-rule:nonzero;stroke:none"
         id="path206" /><path
         d="m 2225.32,501.816 c -0.4,-0.293 -0.9,-0.586 -1.4,-0.586 -1.09,0 -1.99,0.899 -1.99,1.993 0,0.488 0.29,0.996 0.59,1.386 l 99.53,99.629 c 0.41,0.293 0.89,0.606 1.5,0.606 1.09,0 1.99,-0.899 1.99,-1.992 0,-0.606 -0.3,-1.114 -0.6,-1.504 l -99.62,-99.532"
         style="fill:#231f20;fill-opacity:1;fill-rule:nonzero;stroke:none"
         id="path208" /><path
         d="m 2324.95,601.445 c -0.4,-0.293 -0.9,-0.586 -1.4,-0.586 -1.09,0 -1.99,0.899 -1.99,1.993 0,0.488 0.29,0.996 0.59,1.386 l 99.52,99.625 c 0.41,0.301 0.9,0.606 1.51,0.606 1.09,0 1.99,-0.899 1.99,-1.992 0,-0.606 -0.3,-1.106 -0.6,-1.497 l -99.62,-99.535"
         style="fill:#231f20;fill-opacity:1;fill-rule:nonzero;stroke:none"
         id="path210" /><path
         d="m 2424.58,701.078 c -0.41,-0.293 -0.9,-0.594 -1.4,-0.594 -1.1,0 -1.99,0.899 -1.99,1.993 0,0.496 0.29,0.996 0.59,1.394 l 99.52,99.625 c 0.41,0.297 0.9,0.598 1.51,0.598 1.09,0 1.99,-0.895 1.99,-1.992 0,-0.598 -0.3,-1.094 -0.61,-1.497 l -99.61,-99.527"
         style="fill:#231f20;fill-opacity:1;fill-rule:nonzero;stroke:none"
         id="path212" /><path
         d="m 2439.07,715.57 c -0.4,-0.293 -0.9,-0.593 -1.4,-0.593 -1.09,0 -1.99,0.898 -1.99,1.992 0,0.496 0.29,0.996 0.59,1.394 l 99.53,99.625 c 0.41,0.297 0.89,0.598 1.5,0.598 1.09,0 1.99,-0.895 1.99,-1.992 0,-0.598 -0.3,-1.094 -0.6,-1.496 l -99.62,-99.528"
         style="fill:#231f20;fill-opacity:1;fill-rule:nonzero;stroke:none"
         id="path214" /><path
         d="m 2498.53,798.961 c 13.75,3.984 26.6,9.863 38.55,17.531 l 0.1,-0.094 c -7.66,-11.96 -13.54,-24.812 -17.53,-38.562 l -21.12,21.125"
         style="fill:#231f20;fill-opacity:1;fill-rule:nonzero;stroke:none"
         id="path216" /><path
         d="m 1909.1,542.285 h 603.809 v 4.04297 H 1909.1 Z"
         style="fill:#231f20;fill-opacity:1;fill-rule:nonzero;stroke:none"
         id="path218" /><path
         d="m 2511.63,544.434 c -13.85,-2.989 -27.1,-7.969 -39.65,-14.844 v 29.883 c 12.55,-6.875 25.8,-11.856 39.65,-14.844 v -0.195"
         style="fill:#231f20;fill-opacity:1;fill-rule:nonzero;stroke:none"
         id="path220" /><path
         d="m 1909.1,883.082 h 603.809 v 4.04297 H 1909.1 Z"
         style="fill:#231f20;fill-opacity:1;fill-rule:nonzero;stroke:none"
         id="path222" /><path
         d="m 2511.63,884.633 c -13.85,-2.988 -27.1,-7.973 -39.65,-14.844 v 29.883 c 12.55,-6.867 25.8,-11.852 39.65,-14.844 v -0.195"
         style="fill:#231f20;fill-opacity:1;fill-rule:nonzero;stroke:none"
         id="path224" /><g
         id="g226"
         transform="scale(10)"><text
           transform="matrix(1,0,0,-1,15.7074,107.465)"
           style="font-style:italic;font-variant:normal;font-size:12px;font-family:'Times New Roman';-inkscape-font-specification:TimesNewRomanPS-ItalicMT;writing-mode:lr-tb;fill:#231f20;fill-opacity:1;fill-rule:nonzero;stroke:none"
           id="text234"><tspan
             x="0"
             y="0"
             id="tspan228">A</tspan><tspan
             x="38.666401"
             y="-6.6668"
             id="tspan230">f</tspan><tspan
             x="204.0004"
             y="-9.3336"
             id="tspan232">g</tspan></text></g></g></g></svg>
