<?xml version="1.0" encoding="UTF-8" standalone="no"?>
<svg
   xmlns:dc="http://purl.org/dc/elements/1.1/"
   xmlns:cc="http://creativecommons.org/ns#"
   xmlns:rdf="http://www.w3.org/1999/02/22-rdf-syntax-ns#"
   xmlns:svg="http://www.w3.org/2000/svg"
   xmlns="http://www.w3.org/2000/svg"
   xmlns:sodipodi="http://sodipodi.sourceforge.net/DTD/sodipodi-0.dtd"
   xmlns:inkscape="http://www.inkscape.org/namespaces/inkscape"
   version="1.1"
   id="svg2"
   xml:space="preserve"
   width="227.25333"
   height="199.37334"
   viewBox="0 0 227.25333 199.37334"
   sodipodi:docname="figps-sec641.eps"><metadata
     id="metadata8"><rdf:RDF><cc:Work
         rdf:about=""><dc:format>image/svg+xml</dc:format><dc:type
           rdf:resource="http://purl.org/dc/dcmitype/StillImage" /></cc:Work></rdf:RDF></metadata><defs
     id="defs6" /><sodipodi:namedview
     pagecolor="#ffffff"
     bordercolor="#666666"
     borderopacity="1"
     objecttolerance="10"
     gridtolerance="10"
     guidetolerance="10"
     inkscape:pageopacity="0"
     inkscape:pageshadow="2"
     inkscape:window-width="640"
     inkscape:window-height="480"
     id="namedview4" /><g
     id="g10"
     inkscape:groupmode="layer"
     inkscape:label="ink_ext_XXXXXX"
     transform="matrix(1.3333333,0,0,-1.3333333,0,199.37333)"><g
       id="g12"
       transform="scale(0.1)"><path
         d="m 161.023,1250.44 c 0.875,0 1.598,-0.71 1.598,-1.59 0,-0.87 -0.723,-1.59 -1.598,-1.59 -86.9488,0 -157.80425,-70.86 -157.80425,-157.81 0,-0.88 -0.71875,-1.6 -1.59375,-1.6 -0.878906,0 -1.59375,0.72 -1.59375,1.6 0,88.71 72.28905,160.99 160.99175,160.99"
         style="fill:#231f20;fill-opacity:1;fill-rule:nonzero;stroke:none"
         id="path14" /><path
         d="m 0,161.949 h 3.24219 v 928.449 H 0 Z"
         style="fill:#231f20;fill-opacity:1;fill-rule:nonzero;stroke:none"
         id="path16" /><path
         d="m 0.03125,161 c 0,0.879 0.714844,1.578 1.59375,1.578 0.875,0 1.59375,-0.699 1.59375,-1.578 0,-86.9609 70.85545,-157.80859 157.80425,-157.80859 0.875,0 1.598,-0.73047 1.598,-1.58985 C 162.621,0.71875 161.898,0 161.023,0 72.3203,0 0.03125,72.2891 0.03125,161"
         style="fill:#231f20;fill-opacity:1;fill-rule:nonzero;stroke:none"
         id="path18" /><path
         d="m 180.754,1248.85 c 0,0.88 0.715,1.59 1.594,1.59 88.707,0 160.996,-72.28 160.996,-160.99 0,-0.88 -0.723,-1.6 -1.598,-1.6 -0.871,0 -1.59,0.72 -1.59,1.6 0,86.95 -70.855,157.81 -157.808,157.81 -0.879,0 -1.594,0.72 -1.594,1.59"
         style="fill:#231f20;fill-opacity:1;fill-rule:nonzero;stroke:none"
         id="path20" /><path
         d="m 339.844,161.949 h 3.24219 v 928.449 H 339.844 Z"
         style="fill:#231f20;fill-opacity:1;fill-rule:nonzero;stroke:none"
         id="path22" /><path
         d="m 341.746,162.578 c 0.875,0 1.598,-0.699 1.598,-1.578 0,-88.7109 -72.289,-161 -160.996,-161 -0.879,0 -1.594,0.71875 -1.594,1.60156 0,0.85938 0.715,1.58985 1.594,1.58985 86.953,0 157.808,70.84769 157.808,157.80859 0,0.879 0.719,1.578 1.59,1.578"
         style="fill:#231f20;fill-opacity:1;fill-rule:nonzero;stroke:none"
         id="path24" /><path
         d="m 161.277,0.671875 h 21.3828 v 3.23828 H 161.277 Z"
         style="fill:#231f20;fill-opacity:1;fill-rule:nonzero;stroke:none"
         id="path26" /><path
         d="m 161.277,1246.75 h 21.3828 v 3.2383 H 161.277 Z"
         style="fill:#231f20;fill-opacity:1;fill-rule:nonzero;stroke:none"
         id="path28" /><path
         d="m 841.273,1250.44 c 0.879,0 1.594,-0.71 1.594,-1.59 0,-0.87 -0.715,-1.59 -1.594,-1.59 -86.953,0 -157.804,-70.86 -157.804,-157.81 0,-0.88 -0.719,-1.6 -1.594,-1.6 -0.875,0 -1.598,0.72 -1.598,1.6 0,88.71 72.297,160.99 160.996,160.99"
         style="fill:#231f20;fill-opacity:1;fill-rule:nonzero;stroke:none"
         id="path30" /><path
         d="m 679.688,161.949 h 3.23438 v 928.449 H 679.688 Z"
         style="fill:#231f20;fill-opacity:1;fill-rule:nonzero;stroke:none"
         id="path32" /><path
         d="m 680.277,161 c 0,0.879 0.723,1.578 1.598,1.578 0.875,0 1.594,-0.699 1.594,-1.578 0,-86.9609 70.851,-157.80859 157.804,-157.80859 0.879,0 1.594,-0.73047 1.594,-1.58985 C 842.867,0.71875 842.152,0 841.273,0 752.574,0 680.277,72.2891 680.277,161"
         style="fill:#231f20;fill-opacity:1;fill-rule:nonzero;stroke:none"
         id="path34" /><path
         d="m 861.078,1248.85 c 0,0.88 0.723,1.59 1.594,1.59 88.711,0 160.998,-72.28 160.998,-160.99 0,-0.88 -0.72,-1.6 -1.59,-1.6 -0.87,0 -1.6,0.72 -1.6,1.6 0,86.95 -70.855,157.81 -157.808,157.81 -0.871,0 -1.594,0.72 -1.594,1.59"
         style="fill:#231f20;fill-opacity:1;fill-rule:nonzero;stroke:none"
         id="path36" /><path
         d="m 1021.44,161.949 h 3.2383 v 928.449 h -3.2383 z"
         style="fill:#231f20;fill-opacity:1;fill-rule:nonzero;stroke:none"
         id="path38" /><path
         d="m 1022.08,162.578 c 0.87,0 1.59,-0.699 1.59,-1.578 0,-88.7109 -72.287,-161 -160.998,-161 -0.871,0 -1.594,0.71875 -1.594,1.60156 0,0.85938 0.723,1.58985 1.594,1.58985 86.953,0 157.808,70.84769 157.808,157.80859 0,0.879 0.73,1.578 1.6,1.578"
         style="fill:#231f20;fill-opacity:1;fill-rule:nonzero;stroke:none"
         id="path40" /><path
         d="m 840.961,0.671875 h 21.3789 v 3.23828 H 840.961 Z"
         style="fill:#231f20;fill-opacity:1;fill-rule:nonzero;stroke:none"
         id="path42" /><path
         d="m 840.961,1246.75 h 21.3789 v 3.2383 H 840.961 Z"
         style="fill:#231f20;fill-opacity:1;fill-rule:nonzero;stroke:none"
         id="path44" /><path
         d="m 1521.6,1250.44 c 0.89,0 1.6,-0.71 1.6,-1.59 0,-0.87 -0.71,-1.59 -1.6,-1.59 -86.96,0 -157.81,-70.86 -157.81,-157.81 0,-0.88 -0.71,-1.6 -1.59,-1.6 -0.88,0 -1.59,0.72 -1.59,1.6 0,88.71 72.29,160.99 160.99,160.99"
         style="fill:#231f20;fill-opacity:1;fill-rule:nonzero;stroke:none"
         id="path46" /><path
         d="m 1361.28,161.949 h 3.25 v 928.449 h -3.25 z"
         style="fill:#231f20;fill-opacity:1;fill-rule:nonzero;stroke:none"
         id="path48" /><path
         d="m 1360.61,161 c 0,0.879 0.71,1.578 1.59,1.578 0.88,0 1.59,-0.699 1.59,-1.578 0,-86.9609 70.85,-157.80859 157.81,-157.80859 0.89,0 1.6,-0.73047 1.6,-1.58985 C 1523.2,0.71875 1522.49,0 1521.6,0 1432.9,0 1360.61,72.2891 1360.61,161"
         style="fill:#231f20;fill-opacity:1;fill-rule:nonzero;stroke:none"
         id="path50" /><path
         d="m 1541.41,1248.85 c 0,0.88 0.71,1.59 1.59,1.59 88.71,0 161,-72.28 161,-160.99 0,-0.88 -0.72,-1.6 -1.6,-1.6 -0.86,0 -1.58,0.72 -1.58,1.6 0,86.95 -70.86,157.81 -157.82,157.81 -0.88,0 -1.59,0.72 -1.59,1.59"
         style="fill:#231f20;fill-opacity:1;fill-rule:nonzero;stroke:none"
         id="path52" /><path
         d="m 1701.13,161.949 h 3.2422 v 928.449 h -3.2422 z"
         style="fill:#231f20;fill-opacity:1;fill-rule:nonzero;stroke:none"
         id="path54" /><path
         d="m 1702.4,162.578 c 0.88,0 1.6,-0.699 1.6,-1.578 0,-88.7109 -72.29,-161 -161,-161 -0.88,0 -1.59,0.71875 -1.59,1.60156 0,0.85938 0.71,1.58985 1.59,1.58985 86.96,0 157.82,70.84769 157.82,157.80859 0,0.879 0.72,1.578 1.58,1.578"
         style="fill:#231f20;fill-opacity:1;fill-rule:nonzero;stroke:none"
         id="path56" /><path
         d="m 1522.56,0.671875 h 21.3906 v 3.23828 H 1522.56 Z"
         style="fill:#231f20;fill-opacity:1;fill-rule:nonzero;stroke:none"
         id="path58" /><path
         d="m 1522.56,1246.75 h 21.3906 v 3.2383 H 1522.56 Z"
         style="fill:#231f20;fill-opacity:1;fill-rule:nonzero;stroke:none"
         id="path60" /><path
         d="m 172.035,93.0313 c -12.347,0 -22.394,10.0387 -22.394,22.3987 0,12.351 10.047,22.379 22.394,22.379 12.356,0 22.403,-10.028 22.403,-22.379 0,-12.36 -10.047,-22.3987 -22.403,-22.3987"
         style="fill:#231f20;fill-opacity:1;fill-rule:nonzero;stroke:none"
         id="path62" /><path
         d="m 172.035,433.148 c -12.347,0 -22.394,10.051 -22.394,22.403 0,12.34 10.047,22.398 22.394,22.398 12.356,0 22.403,-10.058 22.403,-22.398 0,-12.352 -10.047,-22.403 -22.403,-22.403"
         style="fill:#231f20;fill-opacity:1;fill-rule:nonzero;stroke:none"
         id="path64" /><path
         d="m 172.035,773.273 c -12.347,0 -22.394,10.047 -22.394,22.395 0,12.352 10.047,22.398 22.394,22.398 12.356,0 22.403,-10.046 22.403,-22.398 0,-12.348 -10.047,-22.395 -22.403,-22.395"
         style="fill:#231f20;fill-opacity:1;fill-rule:nonzero;stroke:none"
         id="path66" /><path
         d="m 172.035,1113.47 c -12.347,0 -22.394,10.05 -22.394,22.4 0,12.35 10.047,22.4 22.394,22.4 12.356,0 22.403,-10.05 22.403,-22.4 0,-12.35 -10.047,-22.4 -22.403,-22.4"
         style="fill:#231f20;fill-opacity:1;fill-rule:nonzero;stroke:none"
         id="path68" /><path
         d="m 852.367,433.148 c -12.351,0 -22.402,10.051 -22.402,22.403 0,12.34 10.051,22.398 22.402,22.398 12.356,0 22.395,-10.058 22.395,-22.398 0,-12.352 -10.039,-22.403 -22.395,-22.403"
         style="fill:#231f20;fill-opacity:1;fill-rule:nonzero;stroke:none"
         id="path70" /><path
         d="m 852.367,773.273 c -12.351,0 -22.402,10.047 -22.402,22.395 0,12.352 10.051,22.398 22.402,22.398 12.356,0 22.395,-10.046 22.395,-22.398 0,-12.348 -10.039,-22.395 -22.395,-22.395"
         style="fill:#231f20;fill-opacity:1;fill-rule:nonzero;stroke:none"
         id="path72" /><path
         d="m 852.367,1113.47 c -12.351,0 -22.402,10.05 -22.402,22.4 0,12.35 10.051,22.4 22.402,22.4 12.356,0 22.395,-10.05 22.395,-22.4 0,-12.35 -10.039,-22.4 -22.395,-22.4"
         style="fill:#231f20;fill-opacity:1;fill-rule:nonzero;stroke:none"
         id="path74" /><path
         d="m 1532.69,93.0313 c -12.34,0 -22.39,10.0387 -22.39,22.3987 0,12.351 10.05,22.379 22.39,22.379 12.35,0 22.4,-10.028 22.4,-22.379 0,-12.36 -10.05,-22.3987 -22.4,-22.3987"
         style="fill:#231f20;fill-opacity:1;fill-rule:nonzero;stroke:none"
         id="path76" /><path
         d="m 1532.69,433.148 c -12.34,0 -22.39,10.051 -22.39,22.403 0,12.34 10.05,22.398 22.39,22.398 12.35,0 22.4,-10.058 22.4,-22.398 0,-12.352 -10.05,-22.403 -22.4,-22.403"
         style="fill:#231f20;fill-opacity:1;fill-rule:nonzero;stroke:none"
         id="path78" /><path
         d="m 1532.69,773.273 c -12.34,0 -22.39,10.047 -22.39,22.395 0,12.352 10.05,22.398 22.39,22.398 12.35,0 22.4,-10.046 22.4,-22.398 0,-12.348 -10.05,-22.395 -22.4,-22.395"
         style="fill:#231f20;fill-opacity:1;fill-rule:nonzero;stroke:none"
         id="path80" /><path
         d="m 1532.69,1113.47 c -12.34,0 -22.39,10.05 -22.39,22.4 0,12.35 10.05,22.4 22.39,22.4 12.35,0 22.4,-10.05 22.4,-22.4 0,-12.35 -10.05,-22.4 -22.4,-22.4"
         style="fill:#231f20;fill-opacity:1;fill-rule:nonzero;stroke:none"
         id="path82" /><g
         id="g84"
         transform="scale(10)"><text
           transform="matrix(1,0,0,-1,7,111.988)"
           style="font-style:italic;font-variant:normal;font-size:11px;font-family:'Times New Roman';-inkscape-font-specification:TimesNewRomanPS-ItalicMT;writing-mode:lr-tb;fill:#231f20;fill-opacity:1;fill-rule:nonzero;stroke:none"
           id="text110"><tspan
             x="0"
             y="0"
             id="tspan86">a</tspan><tspan
             x="0"
             y="34.020302"
             id="tspan88">b</tspan><tspan
             x="0"
             y="68.032402"
             id="tspan90">c</tspan><tspan
             x="0"
             y="102.0453"
             id="tspan92">d</tspan><tspan
             x="80.635902"
             y="-6.2656999"
             id="tspan94">p</tspan><tspan
             x="76.635902"
             y="26.746401"
             id="tspan96">q</tspan><tspan
             x="76.635902"
             y="60.766701"
             id="tspan98">r</tspan><tspan
             x="151.93469"
             y="0.00030000001"
             id="tspan100">s</tspan><tspan
             x="151.93469"
             y="34.020599"
             id="tspan102">t</tspan><tspan
             x="151.93469"
             y="68.0327"
             id="tspan104">u</tspan><tspan
             x="151.93469"
             y="102.0456"
             id="tspan106">v</tspan><tspan
             x="10.2027 78.235939"
             y="-18.6054"
             sodipodi:role="line"
             id="tspan108">AB</tspan></text></g><path
         d="m 286.086,1338.91 h 532.941 v 3.2422 H 286.086 Z"
         style="fill:#231f20;fill-opacity:1;fill-rule:nonzero;stroke:none"
         id="path112" /><path
         d="m 818.207,1339.84 c -11.074,-2.39 -21.668,-6.38 -31.719,-11.88 v 23.91 c 10.051,-5.49 20.645,-9.48 31.719,-11.87 v -0.16"
         style="fill:#231f20;fill-opacity:1;fill-rule:nonzero;stroke:none"
         id="path114" /><path
         d="m 965.766,1338.91 h 532.945 v 3.2422 H 965.766 Z"
         style="fill:#231f20;fill-opacity:1;fill-rule:nonzero;stroke:none"
         id="path116" /><path
         d="m 1498.54,1339.84 c -11.08,-2.39 -21.68,-6.38 -31.72,-11.88 v 23.91 c 10.04,-5.49 20.64,-9.48 31.72,-11.87 v -0.16"
         style="fill:#231f20;fill-opacity:1;fill-rule:nonzero;stroke:none"
         id="path118" /><g
         id="g120"
         transform="scale(10)"><text
           transform="matrix(1,0,0,-1,153.273,130.593)"
           style="font-style:italic;font-variant:normal;font-size:11px;font-family:'Times New Roman';-inkscape-font-specification:TimesNewRomanPS-ItalicMT;writing-mode:lr-tb;fill:#231f20;fill-opacity:1;fill-rule:nonzero;stroke:none"
           id="text126"><tspan
             x="0"
             y="0"
             id="tspan122">C</tspan><tspan
             x="-102.05"
             y="-7.9347701"
             id="tspan124">f</tspan></text></g><path
         d="m 228.48,1133.47 h 567.004 v 3.2422 H 228.48 Z"
         style="fill:#231f20;fill-opacity:1;fill-rule:nonzero;stroke:none"
         id="path128" /><path
         d="m 795.609,1135.79 c -11.082,-2.38 -21.679,-6.37 -31.718,-11.87 v 23.9 c 10.039,-5.49 20.636,-9.47 31.718,-11.87 v -0.16"
         style="fill:#231f20;fill-opacity:1;fill-rule:nonzero;stroke:none"
         id="path130" /><path
         d="m 229.41,794.316 c -0.164,-0.164 -0.402,-0.242 -0.637,-0.242 -0.878,0 -1.593,0.723 -1.593,1.594 0,0.555 0.398,1.121 0.957,1.355 l 79.621,39.856 c 0.156,0.152 0.394,0.23 0.715,0.23 0.879,0 1.59,-0.711 1.59,-1.589 0,-0.637 -0.395,-1.192 -0.954,-1.434 l -79.699,-39.77"
         style="fill:#231f20;fill-opacity:1;fill-rule:nonzero;stroke:none"
         id="path132" /><path
         d="m 309.109,834.211 c -0.16,-0.164 -0.394,-0.242 -0.632,-0.242 -0.875,0 -1.598,0.719 -1.598,1.59 0,0.554 0.402,1.121 0.957,1.359 l 79.625,39.852 c 0.156,0.156 0.394,0.234 0.715,0.234 0.879,0 1.594,-0.711 1.594,-1.594 0,-0.644 -0.399,-1.191 -0.957,-1.433 l -79.704,-39.766"
         style="fill:#231f20;fill-opacity:1;fill-rule:nonzero;stroke:none"
         id="path134" /><path
         d="m 388.813,874.023 c -0.157,-0.156 -0.395,-0.23 -0.633,-0.23 -0.875,0 -1.594,0.711 -1.594,1.59 0,0.555 0.394,1.113 0.957,1.355 l 79.621,39.852 c 0.156,0.156 0.399,0.238 0.711,0.238 0.879,0 1.598,-0.723 1.598,-1.598 0,-0.636 -0.403,-1.195 -0.953,-1.433 l -79.707,-39.774"
         style="fill:#231f20;fill-opacity:1;fill-rule:nonzero;stroke:none"
         id="path136" /><path
         d="m 468.52,913.906 c -0.161,-0.16 -0.399,-0.238 -0.637,-0.238 -0.875,0 -1.594,0.719 -1.594,1.598 0,0.554 0.395,1.113 0.957,1.351 l 79.617,39.856 c 0.157,0.156 0.403,0.238 0.719,0.238 0.879,0 1.594,-0.723 1.594,-1.598 0,-0.64 -0.403,-1.195 -0.953,-1.433 L 468.52,913.906"
         style="fill:#231f20;fill-opacity:1;fill-rule:nonzero;stroke:none"
         id="path138" /><path
         d="m 548.223,953.727 c -0.16,-0.161 -0.403,-0.239 -0.641,-0.239 -0.871,0 -1.59,0.723 -1.59,1.598 0,0.555 0.399,1.117 0.957,1.352 l 79.617,39.855 c 0.157,0.152 0.403,0.238 0.719,0.238 0.879,0 1.594,-0.718 1.594,-1.597 0,-0.641 -0.399,-1.192 -0.953,-1.434 l -79.703,-39.773"
         style="fill:#231f20;fill-opacity:1;fill-rule:nonzero;stroke:none"
         id="path140" /><path
         d="m 627.926,993.609 c -0.16,-0.16 -0.403,-0.238 -0.637,-0.238 -0.879,0 -1.598,0.723 -1.598,1.598 0,0.554 0.403,1.117 0.957,1.351 l 79.625,39.86 c 0.157,0.15 0.399,0.23 0.715,0.23 0.879,0 1.59,-0.71 1.59,-1.59 0,-0.64 -0.394,-1.19 -0.949,-1.44 l -79.703,-39.771"
         style="fill:#231f20;fill-opacity:1;fill-rule:nonzero;stroke:none"
         id="path142" /><path
         d="m 707.629,1033.43 c -0.164,-0.16 -0.399,-0.23 -0.637,-0.23 -0.875,0 -1.597,0.71 -1.597,1.59 0,0.55 0.402,1.12 0.957,1.35 l 79.621,39.85 c 0.156,0.16 0.398,0.24 0.722,0.24 0.879,0 1.59,-0.71 1.59,-1.59 0,-0.64 -0.398,-1.19 -0.957,-1.44 l -79.699,-39.77"
         style="fill:#231f20;fill-opacity:1;fill-rule:nonzero;stroke:none"
         id="path144" /><path
         d="m 716.625,1037.96 c -0.156,-0.16 -0.395,-0.23 -0.633,-0.23 -0.875,0 -1.594,0.72 -1.594,1.59 0,0.56 0.399,1.12 0.957,1.36 l 79.622,39.84 c 0.156,0.16 0.398,0.24 0.711,0.24 0.878,0 1.593,-0.71 1.593,-1.59 0,-0.64 -0.39,-1.19 -0.949,-1.44 l -79.707,-39.77"
         style="fill:#231f20;fill-opacity:1;fill-rule:nonzero;stroke:none"
         id="path146" /><path
         d="m 761.82,1075.58 c 11.399,-0.39 22.715,0.8 33.711,3.51 -8.769,-7.17 -16.492,-15.54 -23.035,-24.95 l -10.676,21.44"
         style="fill:#231f20;fill-opacity:1;fill-rule:nonzero;stroke:none"
         id="path148" /><path
         d="m 228.48,453.789 h 567.004 v 3.24219 H 228.48 Z"
         style="fill:#231f20;fill-opacity:1;fill-rule:nonzero;stroke:none"
         id="path150" /><path
         d="m 795.531,455.469 c -11.082,-2.379 -21.679,-6.367 -31.718,-11.867 V 467.5 c 10.039,-5.512 20.636,-9.488 31.718,-11.871 v -0.16"
         style="fill:#231f20;fill-opacity:1;fill-rule:nonzero;stroke:none"
         id="path152" /><path
         d="m 229.887,148.281 c -0.317,-0.23 -0.715,-0.472 -1.114,-0.472 -0.878,0 -1.593,0.73 -1.593,1.613 0,0.387 0.238,0.777 0.476,1.109 l 79.617,79.688 c 0.325,0.25 0.719,0.48 1.2,0.48 0.879,0 1.59,-0.719 1.59,-1.597 0,-0.473 -0.235,-0.883 -0.473,-1.192 l -79.703,-79.629"
         style="fill:#231f20;fill-opacity:1;fill-rule:nonzero;stroke:none"
         id="path154" /><path
         d="m 309.594,227.988 c -0.321,-0.226 -0.723,-0.468 -1.117,-0.468 -0.875,0 -1.598,0.718 -1.598,1.582 0,0.41 0.238,0.796 0.48,1.136 l 79.618,79.684 c 0.324,0.238 0.722,0.488 1.199,0.488 0.879,0 1.594,-0.719 1.594,-1.601 0,-0.489 -0.239,-0.879 -0.477,-1.188 l -79.699,-79.633"
         style="fill:#231f20;fill-opacity:1;fill-rule:nonzero;stroke:none"
         id="path156" /><path
         d="m 389.297,307.699 c -0.32,-0.238 -0.719,-0.469 -1.117,-0.469 -0.875,0 -1.594,0.7 -1.594,1.579 0,0.41 0.234,0.8 0.477,1.113 l 79.621,79.707 c 0.32,0.23 0.718,0.492 1.191,0.492 0.879,0 1.598,-0.723 1.598,-1.601 0,-0.489 -0.239,-0.879 -0.481,-1.188 l -79.695,-79.633"
         style="fill:#231f20;fill-opacity:1;fill-rule:nonzero;stroke:none"
         id="path158" /><path
         d="m 469,387.398 c -0.324,-0.226 -0.719,-0.476 -1.117,-0.476 -0.875,0 -1.594,0.719 -1.594,1.598 0,0.39 0.238,0.8 0.473,1.109 l 79.625,79.711 c 0.316,0.23 0.718,0.469 1.195,0.469 0.879,0 1.594,-0.707 1.594,-1.59 0,-0.481 -0.238,-0.867 -0.481,-1.188 L 469,387.398"
         style="fill:#231f20;fill-opacity:1;fill-rule:nonzero;stroke:none"
         id="path160" /><path
         d="m 548.699,467.109 c -0.316,-0.23 -0.715,-0.488 -1.117,-0.488 -0.871,0 -1.59,0.731 -1.59,1.598 0,0.39 0.238,0.812 0.477,1.121 l 79.621,79.683 c 0.32,0.254 0.719,0.489 1.195,0.489 0.879,0 1.594,-0.719 1.594,-1.582 0,-0.489 -0.242,-0.899 -0.477,-1.211 l -79.703,-79.61"
         style="fill:#231f20;fill-opacity:1;fill-rule:nonzero;stroke:none"
         id="path162" /><path
         d="m 628.402,546.801 c -0.316,-0.238 -0.714,-0.469 -1.113,-0.469 -0.879,0 -1.598,0.719 -1.598,1.598 0,0.39 0.243,0.785 0.481,1.117 l 79.621,79.683 c 0.32,0.254 0.715,0.489 1.195,0.489 0.879,0 1.59,-0.719 1.59,-1.602 0,-0.469 -0.234,-0.879 -0.473,-1.191 l -79.703,-79.625"
         style="fill:#231f20;fill-opacity:1;fill-rule:nonzero;stroke:none"
         id="path164" /><path
         d="m 708.109,626.508 c -0.32,-0.238 -0.722,-0.473 -1.117,-0.473 -0.875,0 -1.597,0.723 -1.597,1.582 0,0.41 0.242,0.805 0.48,1.137 l 79.617,79.684 c 0.324,0.238 0.723,0.48 1.203,0.48 0.879,0 1.59,-0.711 1.59,-1.594 0,-0.484 -0.242,-0.879 -0.476,-1.191 l -79.7,-79.625"
         style="fill:#231f20;fill-opacity:1;fill-rule:nonzero;stroke:none"
         id="path166" /><path
         d="m 751.09,669.418 c -0.313,-0.238 -0.715,-0.473 -1.113,-0.473 -0.879,0 -1.594,0.715 -1.594,1.594 0,0.399 0.234,0.793 0.48,1.113 l 79.617,79.696 c 0.325,0.246 0.715,0.492 1.192,0.492 0.879,0 1.594,-0.727 1.594,-1.606 0,-0.476 -0.235,-0.879 -0.469,-1.187 L 751.09,669.418"
         style="fill:#231f20;fill-opacity:1;fill-rule:nonzero;stroke:none"
         id="path168" /><path
         d="m 798.668,736.133 c 11.004,3.183 21.289,7.89 30.848,14.023 l 0.078,-0.074 c -6.133,-9.574 -10.84,-19.848 -14.024,-30.852 l -16.902,16.903"
         style="fill:#231f20;fill-opacity:1;fill-rule:nonzero;stroke:none"
         id="path170" /><path
         d="m 989.438,1074.66 c 0.558,-0.24 0.957,-0.8 0.957,-1.36 0,-0.87 -0.711,-1.59 -1.59,-1.59 -0.325,0 -0.567,0.08 -0.723,0.24 l -79.621,39.76 c -0.555,0.25 -0.957,0.8 -0.957,1.45 0,0.87 0.723,1.59 1.594,1.59 0.242,0 0.476,-0.09 0.644,-0.24 l 79.696,-39.85"
         style="fill:#231f20;fill-opacity:1;fill-rule:nonzero;stroke:none"
         id="path172" /><path
         d="m 1069.15,1034.84 c 0.55,-0.23 0.94,-0.79 0.94,-1.35 0,-0.88 -0.71,-1.6 -1.59,-1.6 -0.31,0 -0.56,0.08 -0.71,0.25 l -79.622,39.77 c -0.555,0.23 -0.957,0.79 -0.957,1.43 0,0.87 0.715,1.59 1.594,1.59 0.234,0 0.476,-0.07 0.633,-0.23 l 79.712,-39.86"
         style="fill:#231f20;fill-opacity:1;fill-rule:nonzero;stroke:none"
         id="path174" /><path
         d="m 1148.84,994.953 c 0.56,-0.234 0.96,-0.797 0.96,-1.351 0,-0.875 -0.71,-1.598 -1.59,-1.598 -0.32,0 -0.56,0.078 -0.71,0.238 l -79.63,39.768 c -0.56,0.25 -0.96,0.8 -0.96,1.44 0,0.88 0.72,1.6 1.6,1.6 0.24,0 0.47,-0.09 0.64,-0.25 l 79.69,-39.847"
         style="fill:#231f20;fill-opacity:1;fill-rule:nonzero;stroke:none"
         id="path176" /><path
         d="m 1228.48,955.145 c 0.56,-0.243 0.95,-0.797 0.95,-1.36 0,-0.875 -0.71,-1.59 -1.59,-1.59 -0.32,0 -0.56,0.078 -0.72,0.239 l -79.62,39.765 c -0.55,0.242 -0.95,0.801 -0.95,1.442 0,0.871 0.71,1.589 1.59,1.589 0.23,0 0.48,-0.082 0.63,-0.238 l 79.71,-39.847"
         style="fill:#231f20;fill-opacity:1;fill-rule:nonzero;stroke:none"
         id="path178" /><path
         d="m 1308.18,915.25 c 0.56,-0.238 0.96,-0.797 0.96,-1.352 0,-0.878 -0.72,-1.597 -1.6,-1.597 -0.32,0 -0.55,0.078 -0.71,0.242 l -79.63,39.77 c -0.55,0.238 -0.95,0.792 -0.95,1.433 0,0.875 0.72,1.598 1.6,1.598 0.23,0 0.47,-0.082 0.63,-0.239 l 79.7,-39.855"
         style="fill:#231f20;fill-opacity:1;fill-rule:nonzero;stroke:none"
         id="path180" /><path
         d="m 1387.89,875.441 c 0.55,-0.246 0.95,-0.8 0.95,-1.355 0,-0.883 -0.72,-1.594 -1.6,-1.594 -0.31,0 -0.56,0.078 -0.71,0.235 l -79.62,39.769 c -0.56,0.246 -0.96,0.797 -0.96,1.442 0,0.875 0.72,1.589 1.59,1.589 0.25,0 0.48,-0.082 0.64,-0.238 l 79.71,-39.848"
         style="fill:#231f20;fill-opacity:1;fill-rule:nonzero;stroke:none"
         id="path182" /><path
         d="m 1467.58,835.617 c 0.57,-0.234 0.97,-0.801 0.97,-1.359 0,-0.867 -0.72,-1.59 -1.6,-1.59 -0.31,0 -0.56,0.078 -0.71,0.242 l -79.62,39.766 c -0.57,0.246 -0.96,0.801 -0.96,1.437 0,0.879 0.71,1.59 1.59,1.59 0.24,0 0.48,-0.074 0.64,-0.234 l 79.69,-39.852"
         style="fill:#231f20;fill-opacity:1;fill-rule:nonzero;stroke:none"
         id="path184" /><path
         d="m 1499.34,819.777 c 0.57,-0.234 0.97,-0.793 0.97,-1.347 0,-0.879 -0.73,-1.59 -1.6,-1.59 -0.32,0 -0.56,0.078 -0.72,0.23 l -79.62,39.77 c -0.56,0.242 -0.95,0.797 -0.95,1.441 0,0.871 0.71,1.594 1.59,1.594 0.23,0 0.48,-0.078 0.63,-0.242 l 79.7,-39.856"
         style="fill:#231f20;fill-opacity:1;fill-rule:nonzero;stroke:none"
         id="path186" /><path
         d="m 1475.5,843.371 c 6.55,-9.402 14.27,-17.773 23.04,-24.863 -11.01,2.625 -22.31,3.828 -33.71,3.426 l 10.67,21.437"
         style="fill:#231f20;fill-opacity:1;fill-rule:nonzero;stroke:none"
         id="path188" /><path
         d="m 989.918,694.484 c 0.234,-0.324 0.477,-0.722 0.477,-1.125 0,-0.867 -0.711,-1.589 -1.59,-1.589 -0.481,0 -0.879,0.242 -1.203,0.48 l -79.618,79.629 c -0.234,0.309 -0.48,0.703 -0.48,1.187 0,0.879 0.723,1.594 1.594,1.594 0.398,0 0.8,-0.242 1.121,-0.48 l 79.699,-79.696"
         style="fill:#231f20;fill-opacity:1;fill-rule:nonzero;stroke:none"
         id="path190" /><path
         d="m 1069.62,614.766 c 0.24,-0.309 0.47,-0.703 0.47,-1.114 0,-0.879 -0.71,-1.582 -1.59,-1.582 -0.48,0 -0.87,0.235 -1.19,0.473 l -79.619,79.617 c -0.246,0.313 -0.48,0.715 -0.48,1.199 0,0.871 0.715,1.594 1.594,1.594 0.398,0 0.8,-0.242 1.113,-0.488 l 79.702,-79.699"
         style="fill:#231f20;fill-opacity:1;fill-rule:nonzero;stroke:none"
         id="path192" /><path
         d="m 1149.32,535.082 c 0.25,-0.332 0.48,-0.727 0.48,-1.137 0,-0.855 -0.71,-1.582 -1.59,-1.582 -0.48,0 -0.88,0.235 -1.2,0.473 l -79.62,79.629 c -0.24,0.308 -0.48,0.703 -0.48,1.187 0,0.879 0.72,1.606 1.6,1.606 0.39,0 0.79,-0.254 1.11,-0.492 l 79.7,-79.684"
         style="fill:#231f20;fill-opacity:1;fill-rule:nonzero;stroke:none"
         id="path194" /><path
         d="m 1228.96,455.371 c 0.23,-0.332 0.47,-0.723 0.47,-1.109 0,-0.883 -0.71,-1.602 -1.59,-1.602 -0.48,0 -0.87,0.231 -1.19,0.469 l -79.62,79.629 c -0.25,0.308 -0.48,0.719 -0.48,1.187 0,0.879 0.71,1.606 1.59,1.606 0.4,0 0.8,-0.238 1.11,-0.492 l 79.71,-79.688"
         style="fill:#231f20;fill-opacity:1;fill-rule:nonzero;stroke:none"
         id="path196" /><path
         d="m 1308.66,375.672 c 0.24,-0.32 0.48,-0.731 0.48,-1.121 0,-0.879 -0.72,-1.602 -1.6,-1.602 -0.47,0 -0.87,0.25 -1.2,0.492 l -79.62,79.61 c -0.23,0.308 -0.47,0.719 -0.47,1.211 0,0.859 0.72,1.578 1.6,1.578 0.39,0 0.79,-0.231 1.11,-0.488 l 79.7,-79.68"
         style="fill:#231f20;fill-opacity:1;fill-rule:nonzero;stroke:none"
         id="path198" /><path
         d="m 1388.36,295.961 c 0.24,-0.313 0.48,-0.723 0.48,-1.109 0,-0.883 -0.72,-1.614 -1.6,-1.614 -0.47,0 -0.87,0.262 -1.19,0.492 l -79.62,79.629 c -0.24,0.313 -0.48,0.7 -0.48,1.192 0,0.879 0.72,1.578 1.59,1.578 0.4,0 0.8,-0.231 1.13,-0.457 l 79.69,-79.711"
         style="fill:#231f20;fill-opacity:1;fill-rule:nonzero;stroke:none"
         id="path200" /><path
         d="m 1468.06,216.25 c 0.25,-0.309 0.49,-0.699 0.49,-1.109 0,-0.879 -0.72,-1.582 -1.6,-1.582 -0.48,0 -0.88,0.23 -1.19,0.472 l -79.63,79.617 c -0.24,0.321 -0.47,0.711 -0.47,1.204 0,0.867 0.71,1.597 1.59,1.597 0.4,0 0.79,-0.258 1.11,-0.488 l 79.7,-79.711"
         style="fill:#231f20;fill-opacity:1;fill-rule:nonzero;stroke:none"
         id="path202" /><path
         d="m 1511.13,173.281 c 0.23,-0.332 0.48,-0.722 0.48,-1.133 0,-0.859 -0.72,-1.578 -1.6,-1.578 -0.48,0 -0.87,0.231 -1.19,0.469 l -79.63,79.633 c -0.23,0.308 -0.47,0.699 -0.47,1.187 0,0.879 0.72,1.602 1.59,1.602 0.4,0 0.8,-0.262 1.12,-0.492 l 79.7,-79.688"
         style="fill:#231f20;fill-opacity:1;fill-rule:nonzero;stroke:none"
         id="path204" /><path
         d="m 1495.89,203.09 c 3.2,-11.02 7.89,-21.289 14.03,-30.781 l -0.08,-0.079 c -9.56,6.071 -19.84,10.758 -30.84,13.942 l 16.89,16.918"
         style="fill:#231f20;fill-opacity:1;fill-rule:nonzero;stroke:none"
         id="path206" /><path
         d="m 908.16,453.789 h 567 v 3.24219 h -567 z"
         style="fill:#231f20;fill-opacity:1;fill-rule:nonzero;stroke:none"
         id="path208" /><path
         d="m 1475.86,455.469 c -11.07,-2.379 -21.68,-6.367 -31.71,-11.867 V 467.5 c 10.03,-5.512 20.64,-9.488 31.71,-11.871 v -0.16"
         style="fill:#231f20;fill-opacity:1;fill-rule:nonzero;stroke:none"
         id="path210" /><g
         id="g212"
         transform="scale(10)"><text
           transform="matrix(1,0,0,-1,119.259,138.528)"
           style="font-style:italic;font-variant:normal;font-size:11px;font-family:'Times New Roman';-inkscape-font-specification:TimesNewRomanPS-ItalicMT;writing-mode:lr-tb;fill:#231f20;fill-opacity:1;fill-rule:nonzero;stroke:none"
           id="text216"><tspan
             x="0"
             y="0"
             id="tspan214">g</tspan></text></g></g></g></svg>
